<svg class="main-svg" xmlns="http://www.w3.org/2000/svg" xmlns:xlink="http://www.w3.org/1999/xlink" width="800" height="600" style="" viewBox="0 0 800 600"><rect x="0" y="0" width="800" height="600" style="fill: rgb(255, 255, 255); fill-opacity: 1;"/><defs id="defs-e95026"><g class="clips"><clipPath id="clipe95026xyplot" class="plotclip"><rect width="555" height="406"/></clipPath><clipPath class="axesclip" id="clipe95026x"><rect x="80" y="0" width="555" height="600"/></clipPath><clipPath class="axesclip" id="clipe95026y"><rect x="0" y="100" width="800" height="406"/></clipPath><clipPath class="axesclip" id="clipe95026xy"><rect x="80" y="100" width="555" height="406"/></clipPath></g><g class="gradients"/></defs><g class="bglayer"><rect class="bg" x="80" y="100" width="555" height="406" style="fill: rgb(229, 236, 246); fill-opacity: 1; stroke-width: 0;"/></g><g class="layer-below"><g class="imagelayer"/><g class="shapelayer"/></g><g class="cartesianlayer"><g class="subplot xy"><g class="layer-subplot"><g class="shapelayer"/><g class="imagelayer"/></g><g class="gridlayer"><g class="x"><path class="xgrid crisp" transform="translate(100.18,0)" d="M0,100v406" style="stroke: rgb(255, 255, 255); stroke-opacity: 1; stroke-width: 1px;"/><path class="xgrid crisp" transform="translate(120.36,0)" d="M0,100v406" style="stroke: rgb(255, 255, 255); stroke-opacity: 1; stroke-width: 1px;"/><path class="xgrid crisp" transform="translate(140.55,0)" d="M0,100v406" style="stroke: rgb(255, 255, 255); stroke-opacity: 1; stroke-width: 1px;"/><path class="xgrid crisp" transform="translate(160.73000000000002,0)" d="M0,100v406" style="stroke: rgb(255, 255, 255); stroke-opacity: 1; stroke-width: 1px;"/><path class="xgrid crisp" transform="translate(180.91,0)" d="M0,100v406" style="stroke: rgb(255, 255, 255); stroke-opacity: 1; stroke-width: 1px;"/><path class="xgrid crisp" transform="translate(201.09,0)" d="M0,100v406" style="stroke: rgb(255, 255, 255); stroke-opacity: 1; stroke-width: 1px;"/><path class="xgrid crisp" transform="translate(221.27,0)" d="M0,100v406" style="stroke: rgb(255, 255, 255); stroke-opacity: 1; stroke-width: 1px;"/><path class="xgrid crisp" transform="translate(241.45,0)" d="M0,100v406" style="stroke: rgb(255, 255, 255); stroke-opacity: 1; stroke-width: 1px;"/><path class="xgrid crisp" transform="translate(261.64,0)" d="M0,100v406" style="stroke: rgb(255, 255, 255); stroke-opacity: 1; stroke-width: 1px;"/><path class="xgrid crisp" transform="translate(281.82,0)" d="M0,100v406" style="stroke: rgb(255, 255, 255); stroke-opacity: 1; stroke-width: 1px;"/><path class="xgrid crisp" transform="translate(302,0)" d="M0,100v406" style="stroke: rgb(255, 255, 255); stroke-opacity: 1; stroke-width: 1px;"/><path class="xgrid crisp" transform="translate(322.18,0)" d="M0,100v406" style="stroke: rgb(255, 255, 255); stroke-opacity: 1; stroke-width: 1px;"/><path class="xgrid crisp" transform="translate(342.36,0)" d="M0,100v406" style="stroke: rgb(255, 255, 255); stroke-opacity: 1; stroke-width: 1px;"/><path class="xgrid crisp" transform="translate(362.55,0)" d="M0,100v406" style="stroke: rgb(255, 255, 255); stroke-opacity: 1; stroke-width: 1px;"/><path class="xgrid crisp" transform="translate(382.73,0)" d="M0,100v406" style="stroke: rgb(255, 255, 255); stroke-opacity: 1; stroke-width: 1px;"/><path class="xgrid crisp" transform="translate(402.91,0)" d="M0,100v406" style="stroke: rgb(255, 255, 255); stroke-opacity: 1; stroke-width: 1px;"/><path class="xgrid crisp" transform="translate(423.09,0)" d="M0,100v406" style="stroke: rgb(255, 255, 255); stroke-opacity: 1; stroke-width: 1px;"/><path class="xgrid crisp" transform="translate(443.27,0)" d="M0,100v406" style="stroke: rgb(255, 255, 255); stroke-opacity: 1; stroke-width: 1px;"/><path class="xgrid crisp" transform="translate(463.45,0)" d="M0,100v406" style="stroke: rgb(255, 255, 255); stroke-opacity: 1; stroke-width: 1px;"/><path class="xgrid crisp" transform="translate(483.64,0)" d="M0,100v406" style="stroke: rgb(255, 255, 255); stroke-opacity: 1; stroke-width: 1px;"/><path class="xgrid crisp" transform="translate(503.82,0)" d="M0,100v406" style="stroke: rgb(255, 255, 255); stroke-opacity: 1; stroke-width: 1px;"/><path class="xgrid crisp" transform="translate(524,0)" d="M0,100v406" style="stroke: rgb(255, 255, 255); stroke-opacity: 1; stroke-width: 1px;"/><path class="xgrid crisp" transform="translate(544.1800000000001,0)" d="M0,100v406" style="stroke: rgb(255, 255, 255); stroke-opacity: 1; stroke-width: 1px;"/><path class="xgrid crisp" transform="translate(564.36,0)" d="M0,100v406" style="stroke: rgb(255, 255, 255); stroke-opacity: 1; stroke-width: 1px;"/><path class="xgrid crisp" transform="translate(584.55,0)" d="M0,100v406" style="stroke: rgb(255, 255, 255); stroke-opacity: 1; stroke-width: 1px;"/><path class="xgrid crisp" transform="translate(604.73,0)" d="M0,100v406" style="stroke: rgb(255, 255, 255); stroke-opacity: 1; stroke-width: 1px;"/><path class="xgrid crisp" transform="translate(624.91,0)" d="M0,100v406" style="stroke: rgb(255, 255, 255); stroke-opacity: 1; stroke-width: 1px;"/></g><g class="y"><path class="ygrid crisp" transform="translate(0,424.8)" d="M80,0h555" style="stroke: rgb(255, 255, 255); stroke-opacity: 1; stroke-width: 1px;"/><path class="ygrid crisp" transform="translate(0,343.6)" d="M80,0h555" style="stroke: rgb(255, 255, 255); stroke-opacity: 1; stroke-width: 1px;"/><path class="ygrid crisp" transform="translate(0,262.4)" d="M80,0h555" style="stroke: rgb(255, 255, 255); stroke-opacity: 1; stroke-width: 1px;"/><path class="ygrid crisp" transform="translate(0,181.2)" d="M80,0h555" style="stroke: rgb(255, 255, 255); stroke-opacity: 1; stroke-width: 1px;"/></g></g><g class="zerolinelayer"><path class="yzl zl crisp" transform="translate(0,506)" d="M80,0h555" style="stroke: rgb(255, 255, 255); stroke-opacity: 1; stroke-width: 2px;"/></g><path class="xlines-below"/><path class="ylines-below"/><g class="overlines-below"/><g class="xaxislayer-below"/><g class="yaxislayer-below"/><g class="overaxes-below"/><g class="plot" transform="translate(80,100)" clip-path="url('#clipe95026xyplot')"><g class="scatterlayer mlayer"><g class="trace scatter trace2b2780" style="stroke-miterlimit: 2; opacity: 1;"><g class="fills"/><g class="errorbars"/><g class="lines"><path class="js-line" d="M0,223.3L20.18,206.25L30.27,209.5L40.36,183.51L50.45,194.07L60.55,197.32L70.64,189.2L80.73,190.82L90.82,190.82L100.91,174.58L111,170.52L121.09,168.08L131.18,188.38L141.27,195.69L151.36,215.99L161.45,200.56L171.55,219.24L181.64,222.49L191.73,220.86L201.82,205.44L211.91,206.25L222,196.5L232.09,190.01L242.18,181.08L252.27,158.34L262.36,163.21L272.45,155.09L282.55,177.83L292.64,176.2L302.73,197.32L312.82,170.52L322.91,169.71L333,181.08L343.09,177.02L353.18,183.51L363.27,198.94L373.36,192.44L383.45,201.38L393.55,202.19L403.64,201.38L413.73,191.63L423.82,217.62L433.91,218.43L444,216.8L454.09,244.41L464.18,272.02L474.27,267.15L484.36,269.58L494.45,289.88L504.55,305.31L514.64,317.49L524.73,311.81L534.82,311L544.91,314.24L555,314.24" style="vector-effect: non-scaling-stroke; fill: none; stroke: rgb(99, 110, 250); stroke-opacity: 1; stroke-width: 2px; opacity: 1;"/></g><g class="points"/><g class="text"/></g><g class="trace scatter trace576d2b" style="stroke-miterlimit: 2; opacity: 1;"><g class="fills"/><g class="errorbars"/><g class="lines"><path class="js-line" d="M0,315.87L10.09,319.12L20.18,317.49L30.27,339.42L40.36,352.41L50.45,346.72L60.55,330.48L70.64,341.04L80.73,335.36L90.82,332.11L100.91,338.6L121.09,360.53L131.18,359.72L141.27,356.47L151.36,354.84L161.45,362.15L171.55,359.72L181.64,362.96L191.73,367.84L211.91,380.02L222,378.39L232.09,381.64L242.18,387.32L252.27,389.76L262.36,382.45L272.45,381.64L282.55,387.32L292.64,389.76L302.73,388.14L312.82,392.2L322.91,393.82L333,393.01L343.09,391.38L353.18,384.89L363.27,384.89L373.36,381.64L383.45,377.58L393.55,380.02L403.64,381.64L413.73,383.26L423.82,381.64L433.91,380.02L444,373.52L454.09,375.96L464.18,382.45L474.27,384.08L484.36,379.2L494.45,377.58L504.55,376.77L514.64,380.83L524.73,383.26L534.82,382.45L544.91,382.45L555,378.39" style="vector-effect: non-scaling-stroke; fill: none; stroke: rgb(239, 85, 59); stroke-opacity: 1; stroke-width: 2px; opacity: 1;"/></g><g class="points"/><g class="text"/></g><g class="trace scatter trace19483d" style="stroke-miterlimit: 2; opacity: 1;"><g class="fills"/><g class="errorbars"/><g class="lines"><path class="js-line" d="M0,358.09L10.09,358.9L20.18,371.08L30.27,364.59L40.36,363.78L50.45,367.02L60.55,367.84L70.64,364.59L80.73,369.46L90.82,371.08L100.91,368.65L111,366.21L121.09,367.84L131.18,349.97L141.27,353.22L151.36,361.34L161.45,354.03L171.55,358.09L181.64,354.03L191.73,348.35L201.82,360.53L211.91,376.77L222,378.39L232.09,379.2L242.18,373.52L252.27,386.51L262.36,391.38L272.45,391.38L282.55,386.51L292.64,380.83L302.73,368.65L312.82,385.7L322.91,382.45L333,384.08L343.09,386.51L353.18,384.89L363.27,381.64L373.36,389.76L383.45,389.76L393.55,390.57L403.64,390.57L413.73,389.76L423.82,388.14L433.91,384.89L444,375.96L454.09,379.2L464.18,384.89L474.27,380.83L484.36,383.26L494.45,388.95L504.55,388.95L524.73,395.44L534.82,393.01L544.91,393.01L555,392.2" style="vector-effect: non-scaling-stroke; fill: none; stroke: rgb(0, 204, 150); stroke-opacity: 1; stroke-width: 2px; opacity: 1;"/></g><g class="points"/><g class="text"/></g><g class="trace scatter tracea39dda" style="stroke-miterlimit: 2; opacity: 1;"><g class="fills"/><g class="errorbars"/><g class="lines"><path class="js-line" d="M0,385.7L10.09,388.95L20.18,386.51L30.27,386.51L40.36,393.01L50.45,392.2L60.55,396.26L80.73,386.51L90.82,386.51L100.91,385.7L111,383.26L121.09,382.45L131.18,386.51L141.27,383.26L151.36,378.39L161.45,380.02L171.55,378.39L181.64,375.96L191.73,374.33L211.91,379.2L222,376.77L232.09,371.9L242.18,380.02L252.27,372.71L262.36,377.58L272.45,381.64L282.55,371.9L302.73,362.96L312.82,368.65L322.91,370.27L333,369.46L343.09,375.14L353.18,385.7L363.27,384.08L373.36,384.08L383.45,385.7L393.55,386.51L403.64,382.45L413.73,387.32L423.82,381.64L433.91,381.64L444,382.45L454.09,391.38L464.18,397.07L474.27,395.44L484.36,392.2L494.45,393.82L504.55,388.14L514.64,389.76L524.73,391.38L534.82,397.07L544.91,397.88L555,396.26" style="vector-effect: non-scaling-stroke; fill: none; stroke: rgb(171, 99, 250); stroke-opacity: 1; stroke-width: 2px; opacity: 1;"/></g><g class="points"/><g class="text"/></g><g class="trace scatter trace9afa8b" style="stroke-miterlimit: 2; opacity: 1;"><g class="fills"/><g class="errorbars"/><g class="lines"><path class="js-line" d="M40.36,405.19L131.18,405.19L141.27,404.38L181.64,403.56L191.73,401.94L201.82,401.13L211.91,397.88L222,394.63L232.09,392.2L242.18,390.57L252.27,392.2L262.36,383.26L272.45,391.38L282.55,395.44L292.64,397.88L302.73,396.26L312.82,393.82L322.91,388.95L333,388.95L343.09,386.51L353.18,372.71L363.27,356.47L373.36,345.91L383.45,350.78L393.55,347.54L403.64,352.41L413.73,354.84L423.82,344.29L433.91,356.47L444,375.96L454.09,317.49L464.18,269.58L474.27,267.15L484.36,276.08L494.45,241.98L504.55,238.73L514.64,221.68L524.73,227.36L534.82,220.86L544.91,222.49L555,232.23" style="vector-effect: non-scaling-stroke; fill: none; stroke: rgb(255, 161, 90); stroke-opacity: 1; stroke-width: 2px; opacity: 1;"/></g><g class="points"/><g class="text"/></g></g></g><g class="overplot"/><path class="xlines-above crisp" d="M0,0" style="fill: none;"/><path class="ylines-above crisp" d="M0,0" style="fill: none;"/><g class="overlines-above"/><g class="xaxislayer-above"><g class="xtick"><text text-anchor="start" x="0" y="519" transform="translate(80,0) rotate(90,0,513)" style="font-family: 'Open Sans', verdana, arial, sans-serif; font-size: 12px; fill: rgb(42, 63, 95); fill-opacity: 1; white-space: pre;">1993.06</text></g><g class="xtick"><text text-anchor="start" x="0" y="519" transform="translate(100.18,0) rotate(90,0,513)" style="font-family: 'Open Sans', verdana, arial, sans-serif; font-size: 12px; fill: rgb(42, 63, 95); fill-opacity: 1; white-space: pre;">1994.06</text></g><g class="xtick"><text text-anchor="start" x="0" y="519" transform="translate(120.36,0) rotate(90,0,513)" style="font-family: 'Open Sans', verdana, arial, sans-serif; font-size: 12px; fill: rgb(42, 63, 95); fill-opacity: 1; white-space: pre;">1995.06</text></g><g class="xtick"><text text-anchor="start" x="0" y="519" transform="translate(140.55,0) rotate(90,0,513)" style="font-family: 'Open Sans', verdana, arial, sans-serif; font-size: 12px; fill: rgb(42, 63, 95); fill-opacity: 1; white-space: pre;">1996.06</text></g><g class="xtick"><text text-anchor="start" x="0" y="519" transform="translate(160.73000000000002,0) rotate(90,0,513)" style="font-family: 'Open Sans', verdana, arial, sans-serif; font-size: 12px; fill: rgb(42, 63, 95); fill-opacity: 1; white-space: pre;">1997.06</text></g><g class="xtick"><text text-anchor="start" x="0" y="519" transform="translate(180.91,0) rotate(90,0,513)" style="font-family: 'Open Sans', verdana, arial, sans-serif; font-size: 12px; fill: rgb(42, 63, 95); fill-opacity: 1; white-space: pre;">1998.06</text></g><g class="xtick"><text text-anchor="start" x="0" y="519" transform="translate(201.09,0) rotate(90,0,513)" style="font-family: 'Open Sans', verdana, arial, sans-serif; font-size: 12px; fill: rgb(42, 63, 95); fill-opacity: 1; white-space: pre;">1999.06</text></g><g class="xtick"><text text-anchor="start" x="0" y="519" transform="translate(221.27,0) rotate(90,0,513)" style="font-family: 'Open Sans', verdana, arial, sans-serif; font-size: 12px; fill: rgb(42, 63, 95); fill-opacity: 1; white-space: pre;">2000.06</text></g><g class="xtick"><text text-anchor="start" x="0" y="519" transform="translate(241.45,0) rotate(90,0,513)" style="font-family: 'Open Sans', verdana, arial, sans-serif; font-size: 12px; fill: rgb(42, 63, 95); fill-opacity: 1; white-space: pre;">2001.06</text></g><g class="xtick"><text text-anchor="start" x="0" y="519" transform="translate(261.64,0) rotate(90,0,513)" style="font-family: 'Open Sans', verdana, arial, sans-serif; font-size: 12px; fill: rgb(42, 63, 95); fill-opacity: 1; white-space: pre;">2002.06</text></g><g class="xtick"><text text-anchor="start" x="0" y="519" transform="translate(281.82,0) rotate(90,0,513)" style="font-family: 'Open Sans', verdana, arial, sans-serif; font-size: 12px; fill: rgb(42, 63, 95); fill-opacity: 1; white-space: pre;">2003.06</text></g><g class="xtick"><text text-anchor="start" x="0" y="519" transform="translate(302,0) rotate(90,0,513)" style="font-family: 'Open Sans', verdana, arial, sans-serif; font-size: 12px; fill: rgb(42, 63, 95); fill-opacity: 1; white-space: pre;">2004.06</text></g><g class="xtick"><text text-anchor="start" x="0" y="519" transform="translate(322.18,0) rotate(90,0,513)" style="font-family: 'Open Sans', verdana, arial, sans-serif; font-size: 12px; fill: rgb(42, 63, 95); fill-opacity: 1; white-space: pre;">2005.06</text></g><g class="xtick"><text text-anchor="start" x="0" y="519" transform="translate(342.36,0) rotate(90,0,513)" style="font-family: 'Open Sans', verdana, arial, sans-serif; font-size: 12px; fill: rgb(42, 63, 95); fill-opacity: 1; white-space: pre;">2006.06</text></g><g class="xtick"><text text-anchor="start" x="0" y="519" transform="translate(362.55,0) rotate(90,0,513)" style="font-family: 'Open Sans', verdana, arial, sans-serif; font-size: 12px; fill: rgb(42, 63, 95); fill-opacity: 1; white-space: pre;">2007.06</text></g><g class="xtick"><text text-anchor="start" x="0" y="519" transform="translate(382.73,0) rotate(90,0,513)" style="font-family: 'Open Sans', verdana, arial, sans-serif; font-size: 12px; fill: rgb(42, 63, 95); fill-opacity: 1; white-space: pre;">2008.06</text></g><g class="xtick"><text text-anchor="start" x="0" y="519" transform="translate(402.91,0) rotate(90,0,513)" style="font-family: 'Open Sans', verdana, arial, sans-serif; font-size: 12px; fill: rgb(42, 63, 95); fill-opacity: 1; white-space: pre;">2009.06</text></g><g class="xtick"><text text-anchor="start" x="0" y="519" transform="translate(423.09,0) rotate(90,0,513)" style="font-family: 'Open Sans', verdana, arial, sans-serif; font-size: 12px; fill: rgb(42, 63, 95); fill-opacity: 1; white-space: pre;">2010.06</text></g><g class="xtick"><text text-anchor="start" x="0" y="519" transform="translate(443.27,0) rotate(90,0,513)" style="font-family: 'Open Sans', verdana, arial, sans-serif; font-size: 12px; fill: rgb(42, 63, 95); fill-opacity: 1; white-space: pre;">2011.06</text></g><g class="xtick"><text text-anchor="start" x="0" y="519" transform="translate(463.45,0) rotate(90,0,513)" style="font-family: 'Open Sans', verdana, arial, sans-serif; font-size: 12px; fill: rgb(42, 63, 95); fill-opacity: 1; white-space: pre;">2012.06</text></g><g class="xtick"><text text-anchor="start" x="0" y="519" transform="translate(483.64,0) rotate(90,0,513)" style="font-family: 'Open Sans', verdana, arial, sans-serif; font-size: 12px; fill: rgb(42, 63, 95); fill-opacity: 1; white-space: pre;">2013.06</text></g><g class="xtick"><text text-anchor="start" x="0" y="519" transform="translate(503.82,0) rotate(90,0,513)" style="font-family: 'Open Sans', verdana, arial, sans-serif; font-size: 12px; fill: rgb(42, 63, 95); fill-opacity: 1; white-space: pre;">2014.06</text></g><g class="xtick"><text text-anchor="start" x="0" y="519" transform="translate(524,0) rotate(90,0,513)" style="font-family: 'Open Sans', verdana, arial, sans-serif; font-size: 12px; fill: rgb(42, 63, 95); fill-opacity: 1; white-space: pre;">2015.06</text></g><g class="xtick"><text text-anchor="start" x="0" y="519" transform="translate(544.1800000000001,0) rotate(90,0,513)" style="font-family: 'Open Sans', verdana, arial, sans-serif; font-size: 12px; fill: rgb(42, 63, 95); fill-opacity: 1; white-space: pre;">2016.06</text></g><g class="xtick"><text text-anchor="start" x="0" y="519" transform="translate(564.36,0) rotate(90,0,513)" style="font-family: 'Open Sans', verdana, arial, sans-serif; font-size: 12px; fill: rgb(42, 63, 95); fill-opacity: 1; white-space: pre;">2017.06</text></g><g class="xtick"><text text-anchor="start" x="0" y="519" transform="translate(584.55,0) rotate(90,0,513)" style="font-family: 'Open Sans', verdana, arial, sans-serif; font-size: 12px; fill: rgb(42, 63, 95); fill-opacity: 1; white-space: pre;">2018.06</text></g><g class="xtick"><text text-anchor="start" x="0" y="519" transform="translate(604.73,0) rotate(90,0,513)" style="font-family: 'Open Sans', verdana, arial, sans-serif; font-size: 12px; fill: rgb(42, 63, 95); fill-opacity: 1; white-space: pre;">2019.06</text></g><g class="xtick"><text text-anchor="start" x="0" y="519" transform="translate(624.91,0) rotate(90,0,513)" style="font-family: 'Open Sans', verdana, arial, sans-serif; font-size: 12px; fill: rgb(42, 63, 95); fill-opacity: 1; white-space: pre;">2020.06</text></g></g><g class="yaxislayer-above"><g class="ytick"><text text-anchor="end" x="79" y="4.199999999999999" transform="translate(0,506)" style="font-family: 'Open Sans', verdana, arial, sans-serif; font-size: 12px; fill: rgb(42, 63, 95); fill-opacity: 1; white-space: pre;">0</text></g><g class="ytick"><text text-anchor="end" x="79" y="4.199999999999999" transform="translate(0,424.8)" style="font-family: 'Open Sans', verdana, arial, sans-serif; font-size: 12px; fill: rgb(42, 63, 95); fill-opacity: 1; white-space: pre;">100</text></g><g class="ytick"><text text-anchor="end" x="79" y="4.199999999999999" transform="translate(0,343.6)" style="font-family: 'Open Sans', verdana, arial, sans-serif; font-size: 12px; fill: rgb(42, 63, 95); fill-opacity: 1; white-space: pre;">200</text></g><g class="ytick"><text text-anchor="end" x="79" y="4.199999999999999" transform="translate(0,262.4)" style="font-family: 'Open Sans', verdana, arial, sans-serif; font-size: 12px; fill: rgb(42, 63, 95); fill-opacity: 1; white-space: pre;">300</text></g><g class="ytick"><text text-anchor="end" x="79" y="4.199999999999999" transform="translate(0,181.2)" style="font-family: 'Open Sans', verdana, arial, sans-serif; font-size: 12px; fill: rgb(42, 63, 95); fill-opacity: 1; white-space: pre;">400</text></g><g class="ytick"><text text-anchor="end" x="79" y="4.199999999999999" transform="translate(0,100)" style="font-family: 'Open Sans', verdana, arial, sans-serif; font-size: 12px; fill: rgb(42, 63, 95); fill-opacity: 1; white-space: pre;">500</text></g></g><g class="overaxes-above"/></g></g><g class="polarlayer"/><g class="ternarylayer"/><g class="geolayer"/><g class="funnelarealayer"/><g class="pielayer"/><g class="treemaplayer"/><g class="sunburstlayer"/><g class="glimages"/><defs id="topdefs-e95026"><g class="clips"/><clipPath id="legende95026"><rect width="142" height="121" x="0" y="0"/></clipPath></defs><g class="layer-above"><g class="imagelayer"/><g class="shapelayer"/></g><g class="infolayer"><g class="legend" pointer-events="all" transform="translate(646.1,100)"><rect class="bg" shape-rendering="crispEdges" width="142" height="121" x="0" y="0" style="stroke: rgb(68, 68, 68); stroke-opacity: 1; fill: rgb(255, 255, 255); fill-opacity: 1; stroke-width: 0px;"/><g class="scrollbox" transform="" clip-path="url('#legende95026')"><text class="legendtitletext" text-anchor="start" x="2" y="15.600000000000001" style="font-family: 'Open Sans', verdana, arial, sans-serif; font-size: 12px; fill: rgb(42, 63, 95); fill-opacity: 1; white-space: pre;">Países</text><g class="groups" transform=""><g class="traces" transform="translate(0,30.1)" style="opacity: 1;"><text class="legendtext" text-anchor="start" x="40" y="4.680000000000001" style="font-family: 'Open Sans', verdana, arial, sans-serif; font-size: 12px; fill: rgb(42, 63, 95); fill-opacity: 1; white-space: pre;">United States</text><g class="layers" style="opacity: 1;"><g class="legendfill"/><g class="legendlines"><path class="js-line" d="M5,0h30" style="fill: none; stroke: rgb(99, 110, 250); stroke-opacity: 1; stroke-width: 2px;"/></g><g class="legendsymbols"><g class="legendpoints"/></g></g><rect class="legendtoggle" x="0" y="-9.5" width="136.359375" height="19" style="fill: rgb(0, 0, 0); fill-opacity: 0;"/></g></g><g class="groups" transform=""><g class="traces" transform="translate(0,49.1)" style="opacity: 1;"><text class="legendtext" text-anchor="start" x="40" y="4.680000000000001" style="font-family: 'Open Sans', verdana, arial, sans-serif; font-size: 12px; fill: rgb(42, 63, 95); fill-opacity: 1; white-space: pre;">Japan</text><g class="layers" style="opacity: 1;"><g class="legendfill"/><g class="legendlines"><path class="js-line" d="M5,0h30" style="fill: none; stroke: rgb(239, 85, 59); stroke-opacity: 1; stroke-width: 2px;"/></g><g class="legendsymbols"><g class="legendpoints"/></g></g><rect class="legendtoggle" x="0" y="-9.5" width="136.359375" height="19" style="fill: rgb(0, 0, 0); fill-opacity: 0;"/></g></g><g class="groups" transform=""><g class="traces" transform="translate(0,68.1)" style="opacity: 1;"><text class="legendtext" text-anchor="start" x="40" y="4.680000000000001" style="font-family: 'Open Sans', verdana, arial, sans-serif; font-size: 12px; fill: rgb(42, 63, 95); fill-opacity: 1; white-space: pre;">Germany</text><g class="layers" style="opacity: 1;"><g class="legendfill"/><g class="legendlines"><path class="js-line" d="M5,0h30" style="fill: none; stroke: rgb(0, 204, 150); stroke-opacity: 1; stroke-width: 2px;"/></g><g class="legendsymbols"><g class="legendpoints"/></g></g><rect class="legendtoggle" x="0" y="-9.5" width="136.359375" height="19" style="fill: rgb(0, 0, 0); fill-opacity: 0;"/></g></g><g class="groups" transform=""><g class="traces" transform="translate(0,87.1)" style="opacity: 1;"><text class="legendtext" text-anchor="start" x="40" y="4.680000000000001" style="font-family: 'Open Sans', verdana, arial, sans-serif; font-size: 12px; fill: rgb(42, 63, 95); fill-opacity: 1; white-space: pre;">United Kingdom</text><g class="layers" style="opacity: 1;"><g class="legendfill"/><g class="legendlines"><path class="js-line" d="M5,0h30" style="fill: none; stroke: rgb(171, 99, 250); stroke-opacity: 1; stroke-width: 2px;"/></g><g class="legendsymbols"><g class="legendpoints"/></g></g><rect class="legendtoggle" x="0" y="-9.5" width="136.359375" height="19" style="fill: rgb(0, 0, 0); fill-opacity: 0;"/></g></g><g class="groups" transform=""><g class="traces" transform="translate(0,106.1)" style="opacity: 1;"><text class="legendtext" text-anchor="start" x="40" y="4.680000000000001" style="font-family: 'Open Sans', verdana, arial, sans-serif; font-size: 12px; fill: rgb(42, 63, 95); fill-opacity: 1; white-space: pre;">China</text><g class="layers" style="opacity: 1;"><g class="legendfill"/><g class="legendlines"><path class="js-line" d="M5,0h30" style="fill: none; stroke: rgb(255, 161, 90); stroke-opacity: 1; stroke-width: 2px;"/></g><g class="legendsymbols"><g class="legendpoints"/></g></g><rect class="legendtoggle" x="0" y="-9.5" width="136.359375" height="19" style="fill: rgb(0, 0, 0); fill-opacity: 0;"/></g></g></g><rect class="scrollbar" rx="20" ry="3" width="0" height="0" x="0" y="0" style="fill: rgb(128, 139, 164); fill-opacity: 1;"/></g><g class="g-gtitle"><text class="gtitle" x="40" y="50" text-anchor="start" dy="0em" style="font-family: 'Open Sans', verdana, arial, sans-serif; font-size: 17px; fill: rgb(42, 63, 95); opacity: 1; font-weight: normal; white-space: pre;">Participação dos países no Top500</text></g><g class="g-xtitle"><text class="xtitle" x="357.5" y="587.940625" text-anchor="middle" style="font-family: 'Open Sans', verdana, arial, sans-serif; font-size: 14px; fill: rgb(42, 63, 95); opacity: 1; font-weight: normal; white-space: pre;">Lista publicada</text></g><g class="g-ytitle"><text class="ytitle" transform="rotate(-90,31.309375000000003,303)" x="31.309375000000003" y="303" text-anchor="middle" style="font-family: 'Open Sans', verdana, arial, sans-serif; font-size: 14px; fill: rgb(42, 63, 95); opacity: 1; font-weight: normal; white-space: pre;">Ocorrências</text></g></g></svg>