<svg class="main-svg" xmlns="http://www.w3.org/2000/svg" xmlns:xlink="http://www.w3.org/1999/xlink" width="800" height="600" style="" viewBox="0 0 800 600"><rect x="0" y="0" width="800" height="600" style="fill: rgb(255, 255, 255); fill-opacity: 1;"/><defs id="defs-7e4636"><g class="clips"><clipPath id="clip7e4636xyplot" class="plotclip"><rect width="640" height="390"/></clipPath><clipPath class="axesclip" id="clip7e4636x"><rect x="80" y="0" width="640" height="600"/></clipPath><clipPath class="axesclip" id="clip7e4636y"><rect x="0" y="100" width="800" height="390"/></clipPath><clipPath class="axesclip" id="clip7e4636xy"><rect x="80" y="100" width="640" height="390"/></clipPath></g><g class="gradients"/></defs><g class="bglayer"><rect class="bg" x="80" y="100" width="640" height="390" style="fill: rgb(229, 236, 246); fill-opacity: 1; stroke-width: 0;"/></g><g class="layer-below"><g class="imagelayer"/><g class="shapelayer"/></g><g class="cartesianlayer"><g class="subplot xy"><g class="layer-subplot"><g class="shapelayer"/><g class="imagelayer"/></g><g class="gridlayer"><g class="x"/><g class="y"><path class="ygrid crisp" transform="translate(0,412)" d="M80,0h640" style="stroke: rgb(255, 255, 255); stroke-opacity: 1; stroke-width: 1px;"/><path class="ygrid crisp" transform="translate(0,334)" d="M80,0h640" style="stroke: rgb(255, 255, 255); stroke-opacity: 1; stroke-width: 1px;"/><path class="ygrid crisp" transform="translate(0,256)" d="M80,0h640" style="stroke: rgb(255, 255, 255); stroke-opacity: 1; stroke-width: 1px;"/><path class="ygrid crisp" transform="translate(0,178)" d="M80,0h640" style="stroke: rgb(255, 255, 255); stroke-opacity: 1; stroke-width: 1px;"/></g></g><g class="zerolinelayer"><path class="yzl zl crisp" transform="translate(0,490)" d="M80,0h640" style="stroke: rgb(255, 255, 255); stroke-opacity: 1; stroke-width: 2px;"/></g><path class="xlines-below"/><path class="ylines-below"/><g class="overlines-below"/><g class="xaxislayer-below"/><g class="yaxislayer-below"/><g class="overaxes-below"/><g class="plot" transform="translate(80,100)" clip-path="url('#clip7e4636xyplot')"><g class="boxlayer mlayer"><g class="trace boxes" style="opacity: 1;"><path class="box" d="M8.59,59.5H25.09M8.59,66.7H25.09V58.5H8.59ZM16.84,66.7V74.61M16.84,58.5V57.56M12.72,74.61H20.97M12.72,57.56H20.97" style="vector-effect: non-scaling-stroke; stroke-width: 2px; stroke: rgb(99, 110, 250); stroke-opacity: 1; fill: rgb(99, 110, 250); fill-opacity: 0.5;"/><path class="box" d="M42.27,95.2H58.78M42.27,101.36H58.78V78.82H42.27ZM50.53,101.36V111.66M50.53,78.82V61.82M46.4,111.66H54.65M46.4,61.82H54.65" style="vector-effect: non-scaling-stroke; stroke-width: 2px; stroke: rgb(99, 110, 250); stroke-opacity: 1; fill: rgb(99, 110, 250); fill-opacity: 0.5;"/><path class="box" d="M75.96,100.82H92.46M75.96,100.82H92.46V100.82H75.96ZM84.21,100.82V100.82M84.21,100.82V100.82M80.08,100.82H88.34M80.08,100.82H88.34" style="vector-effect: non-scaling-stroke; stroke-width: 2px; stroke: rgb(99, 110, 250); stroke-opacity: 1; fill: rgb(99, 110, 250); fill-opacity: 0.5;"/><path class="box" d="M109.64,138.84H126.15M109.64,151.98H126.15V120H109.64ZM117.89,151.98V162.51M117.89,120V14.51M113.77,162.51H122.02M113.77,14.51H122.02" style="vector-effect: non-scaling-stroke; stroke-width: 2px; stroke: rgb(99, 110, 250); stroke-opacity: 1; fill: rgb(99, 110, 250); fill-opacity: 0.5;"/><path class="box" d="M143.33,155.92H159.83M143.33,186.26H159.83V137.24H143.33ZM151.58,186.26V232.36M151.58,137.24V101.71M147.45,232.36H155.71M147.45,101.71H155.71" style="vector-effect: non-scaling-stroke; stroke-width: 2px; stroke: rgb(99, 110, 250); stroke-opacity: 1; fill: rgb(99, 110, 250); fill-opacity: 0.5;"/><path class="box" d="M177.01,100.58H193.52M177.01,129.55H193.52V82.72H177.01ZM185.26,129.55V201.24M185.26,82.72V48.01M181.14,201.24H189.39M181.14,48.01H189.39" style="vector-effect: non-scaling-stroke; stroke-width: 2px; stroke: rgb(99, 110, 250); stroke-opacity: 1; fill: rgb(99, 110, 250); fill-opacity: 0.5;"/><path class="box" d="M210.69,101.67H227.2M210.69,140.75H227.2V83.78H210.69ZM218.95,140.75V381.65M218.95,83.78V67.31M214.82,381.65H223.07M214.82,67.31H223.07" style="vector-effect: non-scaling-stroke; stroke-width: 2px; stroke: rgb(99, 110, 250); stroke-opacity: 1; fill: rgb(99, 110, 250); fill-opacity: 0.5;"/><path class="box" d="M244.38,177.8H260.88M244.38,193.95H260.88V169.38H244.38ZM252.63,193.95V225.19M252.63,169.38V158.54M248.51,225.19H256.76M248.51,158.54H256.76" style="vector-effect: non-scaling-stroke; stroke-width: 2px; stroke: rgb(99, 110, 250); stroke-opacity: 1; fill: rgb(99, 110, 250); fill-opacity: 0.5;"/><path class="box" d="M278.06,183.34H294.57M278.06,197.93H294.57V148.49H278.06ZM286.32,197.93V372.53M286.32,148.49V60.45M282.19,372.53H290.44M282.19,60.45H290.44" style="vector-effect: non-scaling-stroke; stroke-width: 2px; stroke: rgb(99, 110, 250); stroke-opacity: 1; fill: rgb(99, 110, 250); fill-opacity: 0.5;"/><path class="box" d="M311.75,87.58H328.25M311.75,126.59H328.25V86.58H311.75ZM320,126.59V279.67M320,86.58V23.59M315.87,279.67H324.13M315.87,23.59H324.13" style="vector-effect: non-scaling-stroke; stroke-width: 2px; stroke: rgb(99, 110, 250); stroke-opacity: 1; fill: rgb(99, 110, 250); fill-opacity: 0.5;"/><path class="box" d="M345.43,115.01H361.94M345.43,115.01H361.94V115.01H345.43ZM353.68,115.01V115.01M353.68,115.01V115.01M349.56,115.01H357.81M349.56,115.01H357.81" style="vector-effect: non-scaling-stroke; stroke-width: 2px; stroke: rgb(99, 110, 250); stroke-opacity: 1; fill: rgb(99, 110, 250); fill-opacity: 0.5;"/><path class="box" d="M379.12,57.33H395.62M379.12,57.33H395.62V57.33H379.12ZM387.37,57.33V57.33M387.37,57.33V57.33M383.24,57.33H391.49M383.24,57.33H391.49" style="vector-effect: non-scaling-stroke; stroke-width: 2px; stroke: rgb(99, 110, 250); stroke-opacity: 1; fill: rgb(99, 110, 250); fill-opacity: 0.5;"/><path class="box" d="M412.8,36.31H429.31M412.8,36.31H429.31V36.31H412.8ZM421.05,36.31V36.31M421.05,36.31V36.31M416.93,36.31H425.18M416.93,36.31H425.18" style="vector-effect: non-scaling-stroke; stroke-width: 2px; stroke: rgb(99, 110, 250); stroke-opacity: 1; fill: rgb(99, 110, 250); fill-opacity: 0.5;"/><path class="box" d="M446.48,72.07H462.99M446.48,97.73H462.99V35.26H446.48ZM454.74,97.73V235.79M454.74,35.26V29.33M450.61,235.79H458.86M450.61,29.33H458.86" style="vector-effect: non-scaling-stroke; stroke-width: 2px; stroke: rgb(99, 110, 250); stroke-opacity: 1; fill: rgb(99, 110, 250); fill-opacity: 0.5;"/><path class="box" d="M480.17,178.14H496.67M480.17,212.21H496.67V177.14H480.17ZM488.42,212.21V223.9M488.42,177.14V177.14M484.29,223.9H492.55M484.29,177.14H492.55" style="vector-effect: non-scaling-stroke; stroke-width: 2px; stroke: rgb(99, 110, 250); stroke-opacity: 1; fill: rgb(99, 110, 250); fill-opacity: 0.5;"/><path class="box" d="M513.85,78.94H530.36M513.85,78.94H530.36V78.94H513.85ZM522.11,78.94V78.94M522.11,78.94V78.94M517.98,78.94H526.23M517.98,78.94H526.23" style="vector-effect: non-scaling-stroke; stroke-width: 2px; stroke: rgb(99, 110, 250); stroke-opacity: 1; fill: rgb(99, 110, 250); fill-opacity: 0.5;"/><path class="box" d="M547.54,125.84H564.04M547.54,127.24H564.04V124.84H547.54ZM555.79,127.24V128.04M555.79,124.84V124.84M551.66,128.04H559.92M551.66,124.84H559.92" style="vector-effect: non-scaling-stroke; stroke-width: 2px; stroke: rgb(99, 110, 250); stroke-opacity: 1; fill: rgb(99, 110, 250); fill-opacity: 0.5;"/><path class="box" d="M581.22,127.49H597.73M581.22,157.83H597.73V97.15H581.22ZM589.47,157.83V157.83M589.47,97.15V97.15M585.35,157.83H593.6M585.35,97.15H593.6" style="vector-effect: non-scaling-stroke; stroke-width: 2px; stroke: rgb(99, 110, 250); stroke-opacity: 1; fill: rgb(99, 110, 250); fill-opacity: 0.5;"/><path class="box" d="M614.91,115.01H631.41M614.91,115.01H631.41V115.01H614.91ZM623.16,115.01V115.01M623.16,115.01V115.01M619.03,115.01H627.28M619.03,115.01H627.28" style="vector-effect: non-scaling-stroke; stroke-width: 2px; stroke: rgb(99, 110, 250); stroke-opacity: 1; fill: rgb(99, 110, 250); fill-opacity: 0.5;"/></g></g></g><g class="overplot"/><path class="xlines-above crisp" d="M0,0" style="fill: none;"/><path class="ylines-above crisp" d="M0,0" style="fill: none;"/><g class="overlines-above"/><g class="xaxislayer-above"><g class="xtick"><text text-anchor="start" x="0" y="503" transform="translate(96.84,0) rotate(30,0,497)" style="font-family: 'Open Sans', verdana, arial, sans-serif; font-size: 12px; fill: rgb(42, 63, 95); fill-opacity: 1; white-space: pre;">Fujitsu ARM</text></g><g class="xtick"><text text-anchor="start" x="0" y="503" transform="translate(130.53,0) rotate(30,0,497)" style="font-family: 'Open Sans', verdana, arial, sans-serif; font-size: 12px; fill: rgb(42, 63, 95); fill-opacity: 1; white-space: pre;">Power</text></g><g class="xtick"><text text-anchor="start" x="0" y="503" transform="translate(164.20999999999998,0) rotate(30,0,497)" style="font-family: 'Open Sans', verdana, arial, sans-serif; font-size: 12px; fill: rgb(42, 63, 95); fill-opacity: 1; white-space: pre;">ShenWei</text></g><g class="xtick"><text text-anchor="start" x="0" y="503" transform="translate(197.89,0) rotate(30,0,497)" style="font-family: 'Open Sans', verdana, arial, sans-serif; font-size: 12px; fill: rgb(42, 63, 95); fill-opacity: 1; white-space: pre;">Intel IvyBridge</text></g><g class="xtick"><text text-anchor="start" x="0" y="503" transform="translate(231.58,0) rotate(30,0,497)" style="font-family: 'Open Sans', verdana, arial, sans-serif; font-size: 12px; fill: rgb(42, 63, 95); fill-opacity: 1; white-space: pre;">Intel Cascade lake</text></g><g class="xtick"><text text-anchor="start" x="0" y="503" transform="translate(265.26,0) rotate(30,0,497)" style="font-family: 'Open Sans', verdana, arial, sans-serif; font-size: 12px; fill: rgb(42, 63, 95); fill-opacity: 1; white-space: pre;">AMD Zen-2 (Rome)</text></g><g class="xtick"><text text-anchor="start" x="0" y="503" transform="translate(298.95,0) rotate(30,0,497)" style="font-family: 'Open Sans', verdana, arial, sans-serif; font-size: 12px; fill: rgb(42, 63, 95); fill-opacity: 1; white-space: pre;">Intel Haswell</text></g><g class="xtick"><text text-anchor="start" x="0" y="503" transform="translate(332.63,0) rotate(30,0,497)" style="font-family: 'Open Sans', verdana, arial, sans-serif; font-size: 12px; fill: rgb(42, 63, 95); fill-opacity: 1; white-space: pre;">Intel Xeon Phi</text></g><g class="xtick"><text text-anchor="start" x="0" y="503" transform="translate(366.32,0) rotate(30,0,497)" style="font-family: 'Open Sans', verdana, arial, sans-serif; font-size: 12px; fill: rgb(42, 63, 95); fill-opacity: 1; white-space: pre;">Intel Skylake</text></g><g class="xtick"><text text-anchor="start" x="0" y="503" transform="translate(400,0) rotate(30,0,497)" style="font-family: 'Open Sans', verdana, arial, sans-serif; font-size: 12px; fill: rgb(42, 63, 95); fill-opacity: 1; white-space: pre;">Intel Broadwell</text></g><g class="xtick"><text text-anchor="start" x="0" y="503" transform="translate(433.68,0) rotate(30,0,497)" style="font-family: 'Open Sans', verdana, arial, sans-serif; font-size: 12px; fill: rgb(42, 63, 95); fill-opacity: 1; white-space: pre;">AMD x86_64</text></g><g class="xtick"><text text-anchor="start" x="0" y="503" transform="translate(467.37,0) rotate(30,0,497)" style="font-family: 'Open Sans', verdana, arial, sans-serif; font-size: 12px; fill: rgb(42, 63, 95); fill-opacity: 1; white-space: pre;">PowerPC</text></g><g class="xtick"><text text-anchor="start" x="0" y="503" transform="translate(501.05,0) rotate(30,0,497)" style="font-family: 'Open Sans', verdana, arial, sans-serif; font-size: 12px; fill: rgb(42, 63, 95); fill-opacity: 1; white-space: pre;">Sparc</text></g><g class="xtick"><text text-anchor="start" x="0" y="503" transform="translate(534.74,0) rotate(30,0,497)" style="font-family: 'Open Sans', verdana, arial, sans-serif; font-size: 12px; fill: rgb(42, 63, 95); fill-opacity: 1; white-space: pre;">Intel SandyBridge</text></g><g class="xtick"><text text-anchor="start" x="0" y="503" transform="translate(568.4200000000001,0) rotate(30,0,497)" style="font-family: 'Open Sans', verdana, arial, sans-serif; font-size: 12px; fill: rgb(42, 63, 95); fill-opacity: 1; white-space: pre;">Intel Nehalem</text></g><g class="xtick"><text text-anchor="start" x="0" y="503" transform="translate(602.11,0) rotate(30,0,497)" style="font-family: 'Open Sans', verdana, arial, sans-serif; font-size: 12px; fill: rgb(42, 63, 95); fill-opacity: 1; white-space: pre;">ThunderX2</text></g><g class="xtick"><text text-anchor="start" x="0" y="503" transform="translate(635.79,0) rotate(30,0,497)" style="font-family: 'Open Sans', verdana, arial, sans-serif; font-size: 12px; fill: rgb(42, 63, 95); fill-opacity: 1; white-space: pre;">AMD Zen (Naples)</text></g><g class="xtick"><text text-anchor="start" x="0" y="503" transform="translate(669.47,0) rotate(30,0,497)" style="font-family: 'Open Sans', verdana, arial, sans-serif; font-size: 12px; fill: rgb(42, 63, 95); fill-opacity: 1; white-space: pre;">NEC Vector Engine</text></g><g class="xtick"><text text-anchor="start" x="0" y="503" transform="translate(703.16,0) rotate(30,0,497)" style="font-family: 'Open Sans', verdana, arial, sans-serif; font-size: 12px; fill: rgb(42, 63, 95); fill-opacity: 1; white-space: pre;">X86_64</text></g></g><g class="yaxislayer-above"><g class="ytick"><text text-anchor="end" x="79" y="4.199999999999999" transform="translate(0,490)" style="font-family: 'Open Sans', verdana, arial, sans-serif; font-size: 12px; fill: rgb(42, 63, 95); fill-opacity: 1; white-space: pre;">0</text></g><g class="ytick"><text text-anchor="end" x="79" y="4.199999999999999" transform="translate(0,412)" style="font-family: 'Open Sans', verdana, arial, sans-serif; font-size: 12px; fill: rgb(42, 63, 95); fill-opacity: 1; white-space: pre;">20</text></g><g class="ytick"><text text-anchor="end" x="79" y="4.199999999999999" transform="translate(0,334)" style="font-family: 'Open Sans', verdana, arial, sans-serif; font-size: 12px; fill: rgb(42, 63, 95); fill-opacity: 1; white-space: pre;">40</text></g><g class="ytick"><text text-anchor="end" x="79" y="4.199999999999999" transform="translate(0,256)" style="font-family: 'Open Sans', verdana, arial, sans-serif; font-size: 12px; fill: rgb(42, 63, 95); fill-opacity: 1; white-space: pre;">60</text></g><g class="ytick"><text text-anchor="end" x="79" y="4.199999999999999" transform="translate(0,178)" style="font-family: 'Open Sans', verdana, arial, sans-serif; font-size: 12px; fill: rgb(42, 63, 95); fill-opacity: 1; white-space: pre;">80</text></g><g class="ytick"><text text-anchor="end" x="79" y="4.199999999999999" transform="translate(0,100)" style="font-family: 'Open Sans', verdana, arial, sans-serif; font-size: 12px; fill: rgb(42, 63, 95); fill-opacity: 1; white-space: pre;">100</text></g></g><g class="overaxes-above"/></g></g><g class="polarlayer"/><g class="ternarylayer"/><g class="geolayer"/><g class="funnelarealayer"/><g class="pielayer"/><g class="treemaplayer"/><g class="sunburstlayer"/><g class="glimages"/><defs id="topdefs-7e4636"><g class="clips"/></defs><g class="layer-above"><g class="imagelayer"/><g class="shapelayer"/></g><g class="infolayer"><g class="g-gtitle"><text class="gtitle" x="40" y="50" text-anchor="start" dy="0em" style="font-family: 'Open Sans', verdana, arial, sans-serif; font-size: 17px; fill: rgb(42, 63, 95); opacity: 1; font-weight: normal; white-space: pre;">Eficiência por Tecnologia do Processador (Listas 2020.06 e 2020.11)</text></g><g class="g-xtitle"><text class="xtitle" x="400" y="587.9689453125" text-anchor="middle" style="font-family: 'Open Sans', verdana, arial, sans-serif; font-size: 14px; fill: rgb(42, 63, 95); opacity: 1; font-weight: normal; white-space: pre;">Tecnologia do Processador</text></g><g class="g-ytitle"><text class="ytitle" transform="rotate(-90,31.309375000000003,295)" x="31.309375000000003" y="295" text-anchor="middle" style="font-family: 'Open Sans', verdana, arial, sans-serif; font-size: 14px; fill: rgb(42, 63, 95); opacity: 1; font-weight: normal; white-space: pre;">Eficiência (%)</text></g></g></svg>