<svg class="main-svg" xmlns="http://www.w3.org/2000/svg" xmlns:xlink="http://www.w3.org/1999/xlink" width="800" height="600" style="" viewBox="0 0 800 600"><rect x="0" y="0" width="800" height="600" style="fill: rgb(255, 255, 255); fill-opacity: 1;"/><defs id="defs-b4c90c"><g class="clips"><clipPath id="clipb4c90cxyplot" class="plotclip"><rect width="640" height="339"/></clipPath><clipPath class="axesclip" id="clipb4c90cx"><rect x="80" y="0" width="640" height="600"/></clipPath><clipPath class="axesclip" id="clipb4c90cy"><rect x="0" y="100" width="800" height="339"/></clipPath><clipPath class="axesclip" id="clipb4c90cxy"><rect x="80" y="100" width="640" height="339"/></clipPath></g><g class="gradients"/></defs><g class="bglayer"><rect class="bg" x="80" y="100" width="640" height="339" style="fill: rgb(229, 236, 246); fill-opacity: 1; stroke-width: 0;"/></g><g class="layer-below"><g class="imagelayer"/><g class="shapelayer"/></g><g class="cartesianlayer"><g class="subplot xy"><g class="layer-subplot"><g class="shapelayer"/><g class="imagelayer"/></g><g class="gridlayer"><g class="x"/><g class="y"><path class="ygrid crisp" transform="translate(0,371.2)" d="M80,0h640" style="stroke: rgb(255, 255, 255); stroke-opacity: 1; stroke-width: 1px;"/><path class="ygrid crisp" transform="translate(0,303.4)" d="M80,0h640" style="stroke: rgb(255, 255, 255); stroke-opacity: 1; stroke-width: 1px;"/><path class="ygrid crisp" transform="translate(0,235.6)" d="M80,0h640" style="stroke: rgb(255, 255, 255); stroke-opacity: 1; stroke-width: 1px;"/><path class="ygrid crisp" transform="translate(0,167.8)" d="M80,0h640" style="stroke: rgb(255, 255, 255); stroke-opacity: 1; stroke-width: 1px;"/></g></g><g class="zerolinelayer"><path class="yzl zl crisp" transform="translate(0,439)" d="M80,0h640" style="stroke: rgb(255, 255, 255); stroke-opacity: 1; stroke-width: 2px;"/></g><path class="xlines-below"/><path class="ylines-below"/><g class="overlines-below"/><g class="xaxislayer-below"/><g class="yaxislayer-below"/><g class="overaxes-below"/><g class="plot" transform="translate(80,100)" clip-path="url('#clipb4c90cxyplot')"><g class="boxlayer mlayer"><g class="trace boxes" style="opacity: 1;"><path class="box" d="M6.8,105.87H19.87M6.8,127.57H19.87V71.16H6.8ZM13.33,127.57V203.4M13.33,71.16V0.68M10.07,203.4H16.6M10.07,0.68H16.6" style="vector-effect: non-scaling-stroke; stroke-width: 2px; stroke: rgb(99, 110, 250); stroke-opacity: 1; fill: rgb(99, 110, 250); fill-opacity: 0.5;"/><path class="box" d="M33.47,80.07H46.53M33.47,119.06H46.53V71.16H33.47ZM40,119.06V166.65M40,71.16V55.32M36.73,166.65H43.27M36.73,55.32H43.27" style="vector-effect: non-scaling-stroke; stroke-width: 2px; stroke: rgb(99, 110, 250); stroke-opacity: 1; fill: rgb(99, 110, 250); fill-opacity: 0.5;"/><path class="box" d="M60.13,49.83H73.2M60.13,49.83H73.2V49.83H60.13ZM66.67,49.83V49.83M66.67,49.83V33.53M63.4,49.83H69.93M63.4,33.53H69.93" style="vector-effect: non-scaling-stroke; stroke-width: 2px; stroke: rgb(99, 110, 250); stroke-opacity: 1; fill: rgb(99, 110, 250); fill-opacity: 0.5;"/><path class="box" d="M86.8,30.83H99.87M86.8,31.83H99.87V28.81H86.8ZM93.33,31.83V34.92M93.33,28.81V23.15M90.07,34.92H96.6M90.07,23.15H96.6" style="vector-effect: non-scaling-stroke; stroke-width: 2px; stroke: rgb(99, 110, 250); stroke-opacity: 1; fill: rgb(99, 110, 250); fill-opacity: 0.5;"/><path class="box" d="M113.47,84.95H126.53M113.47,116.85H126.53V44.88H113.47ZM120,116.85V181.53M120,44.88V18.61M116.73,181.53H123.27M116.73,18.61H123.27" style="vector-effect: non-scaling-stroke; stroke-width: 2px; stroke: rgb(99, 110, 250); stroke-opacity: 1; fill: rgb(99, 110, 250); fill-opacity: 0.5;"/><path class="box" d="M140.13,99.06H153.2M140.13,138.38H153.2V81.12H140.13ZM146.67,138.38V203.4M146.67,81.12V46.48M143.4,203.4H149.93M143.4,46.48H149.93" style="vector-effect: non-scaling-stroke; stroke-width: 2px; stroke: rgb(99, 110, 250); stroke-opacity: 1; fill: rgb(99, 110, 250); fill-opacity: 0.5;"/><path class="box" d="M166.8,153.97H179.87M166.8,174.38H179.87V59.77H166.8ZM173.33,174.38V201.84M173.33,59.77V14.71M170.07,201.84H176.6M170.07,14.71H176.6" style="vector-effect: non-scaling-stroke; stroke-width: 2px; stroke: rgb(99, 110, 250); stroke-opacity: 1; fill: rgb(99, 110, 250); fill-opacity: 0.5;"/><path class="box" d="M193.47,68.51H206.53M193.47,83.8H206.53V53.53H193.47ZM200,83.8V135.33M200,53.53V48.58M196.73,135.33H203.27M196.73,48.58H203.27" style="vector-effect: non-scaling-stroke; stroke-width: 2px; stroke: rgb(99, 110, 250); stroke-opacity: 1; fill: rgb(99, 110, 250); fill-opacity: 0.5;"/><path class="box" d="M220.13,86.89H233.2M220.13,87.63H233.2V86.89H220.13ZM226.67,87.63V87.63M226.67,86.89V86.89M223.4,87.63H229.93M223.4,86.89H229.93" style="vector-effect: non-scaling-stroke; stroke-width: 2px; stroke: rgb(99, 110, 250); stroke-opacity: 1; fill: rgb(99, 110, 250); fill-opacity: 0.5;"/><path class="box" d="M246.8,39.07H259.87M246.8,78.9H259.87V38.07H246.8ZM253.33,78.9V92.51M253.33,38.07V38.07M250.07,92.51H256.6M250.07,38.07H256.6" style="vector-effect: non-scaling-stroke; stroke-width: 2px; stroke: rgb(99, 110, 250); stroke-opacity: 1; fill: rgb(99, 110, 250); fill-opacity: 0.5;"/><path class="box" d="M273.47,133.21H286.53M273.47,150.96H286.53V115.46H273.47ZM280,150.96V150.96M280,115.46V115.46M276.73,150.96H283.27M276.73,115.46H283.27" style="vector-effect: non-scaling-stroke; stroke-width: 2px; stroke: rgb(99, 110, 250); stroke-opacity: 1; fill: rgb(99, 110, 250); fill-opacity: 0.5;"/><path class="box" d="M300.13,155.7H313.2M300.13,155.7H313.2V155.7H300.13ZM306.67,155.7V155.7M306.67,155.7V155.7M303.4,155.7H309.93M303.4,155.7H309.93" style="vector-effect: non-scaling-stroke; stroke-width: 2px; stroke: rgb(99, 110, 250); stroke-opacity: 1; fill: rgb(99, 110, 250); fill-opacity: 0.5;"/><path class="box" d="M326.8,76.26H339.87M326.8,165.84H339.87V75.26H326.8ZM333.33,165.84V194.55M333.33,75.26V4.14M330.07,194.55H336.6M330.07,4.14H336.6" style="vector-effect: non-scaling-stroke; stroke-width: 2px; stroke: rgb(99, 110, 250); stroke-opacity: 1; fill: rgb(99, 110, 250); fill-opacity: 0.5;"/><path class="box" d="M353.47,149.97H366.53M353.47,158.75H366.53V139.01H353.47ZM360,158.75V195.74M360,139.01V129.13M356.73,195.74H363.27M356.73,129.13H363.27" style="vector-effect: non-scaling-stroke; stroke-width: 2px; stroke: rgb(99, 110, 250); stroke-opacity: 1; fill: rgb(99, 110, 250); fill-opacity: 0.5;"/><path class="box" d="M380.13,152.48H393.2M380.13,164.79H393.2V126.11H380.13ZM386.67,164.79V197.47M386.67,126.11V52.55M383.4,197.47H389.93M383.4,52.55H389.93" style="vector-effect: non-scaling-stroke; stroke-width: 2px; stroke: rgb(99, 110, 250); stroke-opacity: 1; fill: rgb(99, 110, 250); fill-opacity: 0.5;"/><path class="box" d="M406.8,87.63H419.87M406.8,87.63H419.87V87.45H406.8ZM413.33,87.63V87.63M413.33,87.45V86.89M410.07,87.63H416.6M410.07,86.89H416.6" style="vector-effect: non-scaling-stroke; stroke-width: 2px; stroke: rgb(99, 110, 250); stroke-opacity: 1; fill: rgb(99, 110, 250); fill-opacity: 0.5;"/><path class="box" d="M433.47,74.9H446.53M433.47,80.51H446.53V69.29H433.47ZM440,80.51V80.51M440,69.29V69.29M436.73,80.51H443.27M436.73,69.29H443.27" style="vector-effect: non-scaling-stroke; stroke-width: 2px; stroke: rgb(99, 110, 250); stroke-opacity: 1; fill: rgb(99, 110, 250); fill-opacity: 0.5;"/><path class="box" d="M460.13,133.26H473.2M460.13,160.21H473.2V118.63H460.13ZM466.67,160.21V201.98M466.67,118.63V88.41M463.4,201.98H469.93M463.4,88.41H469.93" style="vector-effect: non-scaling-stroke; stroke-width: 2px; stroke: rgb(99, 110, 250); stroke-opacity: 1; fill: rgb(99, 110, 250); fill-opacity: 0.5;"/><path class="box" d="M486.8,90.21H499.87M486.8,116.73H499.87V75.77H486.8ZM493.33,116.73V174.92M493.33,75.77V41.73M490.07,174.92H496.6M490.07,41.73H496.6" style="vector-effect: non-scaling-stroke; stroke-width: 2px; stroke: rgb(99, 110, 250); stroke-opacity: 1; fill: rgb(99, 110, 250); fill-opacity: 0.5;"/><path class="box" d="M513.47,51.85H526.53M513.47,55.88H526.53V50.85H513.47ZM520,55.88V64.85M520,50.85V50.04M516.73,64.85H523.27M516.73,50.04H523.27" style="vector-effect: non-scaling-stroke; stroke-width: 2px; stroke: rgb(99, 110, 250); stroke-opacity: 1; fill: rgb(99, 110, 250); fill-opacity: 0.5;"/><path class="box" d="M540.13,68.61H553.2M540.13,68.61H553.2V68.61H540.13ZM546.67,68.61V68.61M546.67,68.61V68.61M543.4,68.61H549.93M543.4,68.61H549.93" style="vector-effect: non-scaling-stroke; stroke-width: 2px; stroke: rgb(99, 110, 250); stroke-opacity: 1; fill: rgb(99, 110, 250); fill-opacity: 0.5;"/><path class="box" d="M566.8,108.9H579.87M566.8,109.9H579.87V108.51H566.8ZM573.33,109.9V111.29M573.33,108.51V108.51M570.07,111.29H576.6M570.07,108.51H576.6" style="vector-effect: non-scaling-stroke; stroke-width: 2px; stroke: rgb(99, 110, 250); stroke-opacity: 1; fill: rgb(99, 110, 250); fill-opacity: 0.5;"/><path class="box" d="M593.47,110.82H606.53M593.47,137.19H606.53V84.44H593.47ZM600,137.19V137.19M600,84.44V84.44M596.73,137.19H603.27M596.73,84.44H603.27" style="vector-effect: non-scaling-stroke; stroke-width: 2px; stroke: rgb(99, 110, 250); stroke-opacity: 1; fill: rgb(99, 110, 250); fill-opacity: 0.5;"/><path class="box" d="M620.13,99.97H633.2M620.13,99.97H633.2V99.97H620.13ZM626.67,99.97V99.97M626.67,99.97V99.97M623.4,99.97H629.93M623.4,99.97H629.93" style="vector-effect: non-scaling-stroke; stroke-width: 2px; stroke: rgb(99, 110, 250); stroke-opacity: 1; fill: rgb(99, 110, 250); fill-opacity: 0.5;"/></g></g></g><g class="overplot"/><path class="xlines-above crisp" d="M0,0" style="fill: none;"/><path class="ylines-above crisp" d="M0,0" style="fill: none;"/><g class="overlines-above"/><g class="xaxislayer-above"><g class="xtick"><text text-anchor="start" x="0" y="452" transform="translate(93.33,0) rotate(90,0,446)" style="font-family: 'Open Sans', verdana, arial, sans-serif; font-size: 12px; fill: rgb(42, 63, 95); fill-opacity: 1; white-space: pre;">Intel IvyBridge</text></g><g class="xtick"><text text-anchor="start" x="0" y="452" transform="translate(120,0) rotate(90,0,446)" style="font-family: 'Open Sans', verdana, arial, sans-serif; font-size: 12px; fill: rgb(42, 63, 95); fill-opacity: 1; white-space: pre;">AMD x86_64</text></g><g class="xtick"><text text-anchor="start" x="0" y="452" transform="translate(146.67000000000002,0) rotate(90,0,446)" style="font-family: 'Open Sans', verdana, arial, sans-serif; font-size: 12px; fill: rgb(42, 63, 95); fill-opacity: 1; white-space: pre;">PowerPC</text></g><g class="xtick"><text text-anchor="start" x="0" y="452" transform="translate(173.32999999999998,0) rotate(90,0,446)" style="font-family: 'Open Sans', verdana, arial, sans-serif; font-size: 12px; fill: rgb(42, 63, 95); fill-opacity: 1; white-space: pre;">Sparc</text></g><g class="xtick"><text text-anchor="start" x="0" y="452" transform="translate(200,0) rotate(90,0,446)" style="font-family: 'Open Sans', verdana, arial, sans-serif; font-size: 12px; fill: rgb(42, 63, 95); fill-opacity: 1; white-space: pre;">Intel SandyBridge</text></g><g class="xtick"><text text-anchor="start" x="0" y="452" transform="translate(226.67,0) rotate(90,0,446)" style="font-family: 'Open Sans', verdana, arial, sans-serif; font-size: 12px; fill: rgb(42, 63, 95); fill-opacity: 1; white-space: pre;">Intel Haswell</text></g><g class="xtick"><text text-anchor="start" x="0" y="452" transform="translate(253.33,0) rotate(90,0,446)" style="font-family: 'Open Sans', verdana, arial, sans-serif; font-size: 12px; fill: rgb(42, 63, 95); fill-opacity: 1; white-space: pre;">Intel Nehalem</text></g><g class="xtick"><text text-anchor="start" x="0" y="452" transform="translate(280,0) rotate(90,0,446)" style="font-family: 'Open Sans', verdana, arial, sans-serif; font-size: 12px; fill: rgb(42, 63, 95); fill-opacity: 1; white-space: pre;">Power</text></g><g class="xtick"><text text-anchor="start" x="0" y="452" transform="translate(306.66999999999996,0) rotate(90,0,446)" style="font-family: 'Open Sans', verdana, arial, sans-serif; font-size: 12px; fill: rgb(42, 63, 95); fill-opacity: 1; white-space: pre;">Others</text></g><g class="xtick"><text text-anchor="start" x="0" y="452" transform="translate(333.33000000000004,0) rotate(90,0,446)" style="font-family: 'Open Sans', verdana, arial, sans-serif; font-size: 12px; fill: rgb(42, 63, 95); fill-opacity: 1; white-space: pre;">Intel Core</text></g><g class="xtick"><text text-anchor="start" x="0" y="452" transform="translate(360,0) rotate(90,0,446)" style="font-family: 'Open Sans', verdana, arial, sans-serif; font-size: 12px; fill: rgb(42, 63, 95); fill-opacity: 1; white-space: pre;">Intel MIC</text></g><g class="xtick"><text text-anchor="start" x="0" y="452" transform="translate(386.67,0) rotate(90,0,446)" style="font-family: 'Open Sans', verdana, arial, sans-serif; font-size: 12px; fill: rgb(42, 63, 95); fill-opacity: 1; white-space: pre;">Intel Westmere</text></g><g class="xtick"><text text-anchor="start" x="0" y="452" transform="translate(413.33,0) rotate(90,0,446)" style="font-family: 'Open Sans', verdana, arial, sans-serif; font-size: 12px; fill: rgb(42, 63, 95); fill-opacity: 1; white-space: pre;">Intel Broadwell</text></g><g class="xtick"><text text-anchor="start" x="0" y="452" transform="translate(440,0) rotate(90,0,446)" style="font-family: 'Open Sans', verdana, arial, sans-serif; font-size: 12px; fill: rgb(42, 63, 95); fill-opacity: 1; white-space: pre;">Intel Xeon Phi</text></g><g class="xtick"><text text-anchor="start" x="0" y="452" transform="translate(466.67,0) rotate(90,0,446)" style="font-family: 'Open Sans', verdana, arial, sans-serif; font-size: 12px; fill: rgb(42, 63, 95); fill-opacity: 1; white-space: pre;">Intel Skylake</text></g><g class="xtick"><text text-anchor="start" x="0" y="452" transform="translate(493.33,0) rotate(90,0,446)" style="font-family: 'Open Sans', verdana, arial, sans-serif; font-size: 12px; fill: rgb(42, 63, 95); fill-opacity: 1; white-space: pre;">ShenWei</text></g><g class="xtick"><text text-anchor="start" x="0" y="452" transform="translate(520,0) rotate(90,0,446)" style="font-family: 'Open Sans', verdana, arial, sans-serif; font-size: 12px; fill: rgb(42, 63, 95); fill-opacity: 1; white-space: pre;">Cavium</text></g><g class="xtick"><text text-anchor="start" x="0" y="452" transform="translate(546.6700000000001,0) rotate(90,0,446)" style="font-family: 'Open Sans', verdana, arial, sans-serif; font-size: 12px; fill: rgb(42, 63, 95); fill-opacity: 1; white-space: pre;">Intel Cascade lake</text></g><g class="xtick"><text text-anchor="start" x="0" y="452" transform="translate(573.3299999999999,0) rotate(90,0,446)" style="font-family: 'Open Sans', verdana, arial, sans-serif; font-size: 12px; fill: rgb(42, 63, 95); fill-opacity: 1; white-space: pre;">AMD Zen-2 (Rome)</text></g><g class="xtick"><text text-anchor="start" x="0" y="452" transform="translate(600,0) rotate(90,0,446)" style="font-family: 'Open Sans', verdana, arial, sans-serif; font-size: 12px; fill: rgb(42, 63, 95); fill-opacity: 1; white-space: pre;">Fujitsu ARM</text></g><g class="xtick"><text text-anchor="start" x="0" y="452" transform="translate(626.67,0) rotate(90,0,446)" style="font-family: 'Open Sans', verdana, arial, sans-serif; font-size: 12px; fill: rgb(42, 63, 95); fill-opacity: 1; white-space: pre;">ThunderX2</text></g><g class="xtick"><text text-anchor="start" x="0" y="452" transform="translate(653.33,0) rotate(90,0,446)" style="font-family: 'Open Sans', verdana, arial, sans-serif; font-size: 12px; fill: rgb(42, 63, 95); fill-opacity: 1; white-space: pre;">AMD Zen (Naples)</text></g><g class="xtick"><text text-anchor="start" x="0" y="452" transform="translate(680,0) rotate(90,0,446)" style="font-family: 'Open Sans', verdana, arial, sans-serif; font-size: 12px; fill: rgb(42, 63, 95); fill-opacity: 1; white-space: pre;">NEC Vector Engine</text></g><g class="xtick"><text text-anchor="start" x="0" y="452" transform="translate(706.67,0) rotate(90,0,446)" style="font-family: 'Open Sans', verdana, arial, sans-serif; font-size: 12px; fill: rgb(42, 63, 95); fill-opacity: 1; white-space: pre;">X86_64</text></g></g><g class="yaxislayer-above"><g class="ytick"><text text-anchor="end" x="79" y="4.199999999999999" transform="translate(0,439)" style="font-family: 'Open Sans', verdana, arial, sans-serif; font-size: 12px; fill: rgb(42, 63, 95); fill-opacity: 1; white-space: pre;">0</text></g><g class="ytick"><text text-anchor="end" x="79" y="4.199999999999999" transform="translate(0,371.2)" style="font-family: 'Open Sans', verdana, arial, sans-serif; font-size: 12px; fill: rgb(42, 63, 95); fill-opacity: 1; white-space: pre;">20</text></g><g class="ytick"><text text-anchor="end" x="79" y="4.199999999999999" transform="translate(0,303.4)" style="font-family: 'Open Sans', verdana, arial, sans-serif; font-size: 12px; fill: rgb(42, 63, 95); fill-opacity: 1; white-space: pre;">40</text></g><g class="ytick"><text text-anchor="end" x="79" y="4.199999999999999" transform="translate(0,235.6)" style="font-family: 'Open Sans', verdana, arial, sans-serif; font-size: 12px; fill: rgb(42, 63, 95); fill-opacity: 1; white-space: pre;">60</text></g><g class="ytick"><text text-anchor="end" x="79" y="4.199999999999999" transform="translate(0,167.8)" style="font-family: 'Open Sans', verdana, arial, sans-serif; font-size: 12px; fill: rgb(42, 63, 95); fill-opacity: 1; white-space: pre;">80</text></g><g class="ytick"><text text-anchor="end" x="79" y="4.199999999999999" transform="translate(0,100)" style="font-family: 'Open Sans', verdana, arial, sans-serif; font-size: 12px; fill: rgb(42, 63, 95); fill-opacity: 1; white-space: pre;">100</text></g></g><g class="overaxes-above"/></g></g><g class="polarlayer"/><g class="ternarylayer"/><g class="geolayer"/><g class="funnelarealayer"/><g class="pielayer"/><g class="treemaplayer"/><g class="sunburstlayer"/><g class="glimages"/><defs id="topdefs-b4c90c"><g class="clips"/></defs><g class="layer-above"><g class="imagelayer"/><g class="shapelayer"/></g><g class="infolayer"><g class="g-gtitle"><text class="gtitle" x="40" y="50" text-anchor="start" dy="0em" style="font-family: 'Open Sans', verdana, arial, sans-serif; font-size: 17px; fill: rgb(42, 63, 95); opacity: 1; font-weight: normal; white-space: pre;">Eficiência por Tecnologia do Processador</text></g><g class="g-xtitle"><text class="xtitle" x="400" y="587.55" text-anchor="middle" style="font-family: 'Open Sans', verdana, arial, sans-serif; font-size: 14px; fill: rgb(42, 63, 95); opacity: 1; font-weight: normal; white-space: pre;">Tecnologia do Processador</text></g><g class="g-ytitle"><text class="ytitle" transform="rotate(-90,31.309375000000003,269.5)" x="31.309375000000003" y="269.5" text-anchor="middle" style="font-family: 'Open Sans', verdana, arial, sans-serif; font-size: 14px; fill: rgb(42, 63, 95); opacity: 1; font-weight: normal; white-space: pre;">Eficiência (%)</text></g></g></svg>