<svg class="main-svg" xmlns="http://www.w3.org/2000/svg" xmlns:xlink="http://www.w3.org/1999/xlink" width="800" height="600" style="" viewBox="0 0 800 600"><rect x="0" y="0" width="800" height="600" style="fill: rgb(255, 255, 255); fill-opacity: 1;"/><defs id="defs-5fafc7"><g class="clips"><clipPath id="clip5fafc7xyplot" class="plotclip"><rect width="640" height="406"/></clipPath><clipPath class="axesclip" id="clip5fafc7x"><rect x="80" y="0" width="640" height="600"/></clipPath><clipPath class="axesclip" id="clip5fafc7y"><rect x="0" y="100" width="800" height="406"/></clipPath><clipPath class="axesclip" id="clip5fafc7xy"><rect x="80" y="100" width="640" height="406"/></clipPath></g><g class="gradients"/></defs><g class="bglayer"><rect class="bg" x="80" y="100" width="640" height="406" style="fill: rgb(229, 236, 246); fill-opacity: 1; stroke-width: 0;"/></g><g class="layer-below"><g class="imagelayer"/><g class="shapelayer"/></g><g class="cartesianlayer"><g class="subplot xy"><g class="layer-subplot"><g class="shapelayer"/><g class="imagelayer"/></g><g class="gridlayer"><g class="x"><path class="xgrid crisp" transform="translate(103.27,0)" d="M0,100v406" style="stroke: rgb(255, 255, 255); stroke-opacity: 1; stroke-width: 1px;"/><path class="xgrid crisp" transform="translate(126.55,0)" d="M0,100v406" style="stroke: rgb(255, 255, 255); stroke-opacity: 1; stroke-width: 1px;"/><path class="xgrid crisp" transform="translate(149.82,0)" d="M0,100v406" style="stroke: rgb(255, 255, 255); stroke-opacity: 1; stroke-width: 1px;"/><path class="xgrid crisp" transform="translate(173.09,0)" d="M0,100v406" style="stroke: rgb(255, 255, 255); stroke-opacity: 1; stroke-width: 1px;"/><path class="xgrid crisp" transform="translate(196.36,0)" d="M0,100v406" style="stroke: rgb(255, 255, 255); stroke-opacity: 1; stroke-width: 1px;"/><path class="xgrid crisp" transform="translate(219.64,0)" d="M0,100v406" style="stroke: rgb(255, 255, 255); stroke-opacity: 1; stroke-width: 1px;"/><path class="xgrid crisp" transform="translate(242.91,0)" d="M0,100v406" style="stroke: rgb(255, 255, 255); stroke-opacity: 1; stroke-width: 1px;"/><path class="xgrid crisp" transform="translate(266.18,0)" d="M0,100v406" style="stroke: rgb(255, 255, 255); stroke-opacity: 1; stroke-width: 1px;"/><path class="xgrid crisp" transform="translate(289.45,0)" d="M0,100v406" style="stroke: rgb(255, 255, 255); stroke-opacity: 1; stroke-width: 1px;"/><path class="xgrid crisp" transform="translate(312.73,0)" d="M0,100v406" style="stroke: rgb(255, 255, 255); stroke-opacity: 1; stroke-width: 1px;"/><path class="xgrid crisp" transform="translate(336,0)" d="M0,100v406" style="stroke: rgb(255, 255, 255); stroke-opacity: 1; stroke-width: 1px;"/><path class="xgrid crisp" transform="translate(359.27,0)" d="M0,100v406" style="stroke: rgb(255, 255, 255); stroke-opacity: 1; stroke-width: 1px;"/><path class="xgrid crisp" transform="translate(382.55,0)" d="M0,100v406" style="stroke: rgb(255, 255, 255); stroke-opacity: 1; stroke-width: 1px;"/><path class="xgrid crisp" transform="translate(405.82,0)" d="M0,100v406" style="stroke: rgb(255, 255, 255); stroke-opacity: 1; stroke-width: 1px;"/><path class="xgrid crisp" transform="translate(429.09,0)" d="M0,100v406" style="stroke: rgb(255, 255, 255); stroke-opacity: 1; stroke-width: 1px;"/><path class="xgrid crisp" transform="translate(452.36,0)" d="M0,100v406" style="stroke: rgb(255, 255, 255); stroke-opacity: 1; stroke-width: 1px;"/><path class="xgrid crisp" transform="translate(475.64,0)" d="M0,100v406" style="stroke: rgb(255, 255, 255); stroke-opacity: 1; stroke-width: 1px;"/><path class="xgrid crisp" transform="translate(498.91,0)" d="M0,100v406" style="stroke: rgb(255, 255, 255); stroke-opacity: 1; stroke-width: 1px;"/><path class="xgrid crisp" transform="translate(522.1800000000001,0)" d="M0,100v406" style="stroke: rgb(255, 255, 255); stroke-opacity: 1; stroke-width: 1px;"/><path class="xgrid crisp" transform="translate(545.45,0)" d="M0,100v406" style="stroke: rgb(255, 255, 255); stroke-opacity: 1; stroke-width: 1px;"/><path class="xgrid crisp" transform="translate(568.73,0)" d="M0,100v406" style="stroke: rgb(255, 255, 255); stroke-opacity: 1; stroke-width: 1px;"/><path class="xgrid crisp" transform="translate(592,0)" d="M0,100v406" style="stroke: rgb(255, 255, 255); stroke-opacity: 1; stroke-width: 1px;"/><path class="xgrid crisp" transform="translate(615.27,0)" d="M0,100v406" style="stroke: rgb(255, 255, 255); stroke-opacity: 1; stroke-width: 1px;"/><path class="xgrid crisp" transform="translate(638.55,0)" d="M0,100v406" style="stroke: rgb(255, 255, 255); stroke-opacity: 1; stroke-width: 1px;"/><path class="xgrid crisp" transform="translate(661.82,0)" d="M0,100v406" style="stroke: rgb(255, 255, 255); stroke-opacity: 1; stroke-width: 1px;"/><path class="xgrid crisp" transform="translate(685.09,0)" d="M0,100v406" style="stroke: rgb(255, 255, 255); stroke-opacity: 1; stroke-width: 1px;"/><path class="xgrid crisp" transform="translate(708.36,0)" d="M0,100v406" style="stroke: rgb(255, 255, 255); stroke-opacity: 1; stroke-width: 1px;"/></g><g class="y"><path class="ygrid crisp" transform="translate(0,424.8)" d="M80,0h640" style="stroke: rgb(255, 255, 255); stroke-opacity: 1; stroke-width: 1px;"/><path class="ygrid crisp" transform="translate(0,343.6)" d="M80,0h640" style="stroke: rgb(255, 255, 255); stroke-opacity: 1; stroke-width: 1px;"/><path class="ygrid crisp" transform="translate(0,262.4)" d="M80,0h640" style="stroke: rgb(255, 255, 255); stroke-opacity: 1; stroke-width: 1px;"/><path class="ygrid crisp" transform="translate(0,181.2)" d="M80,0h640" style="stroke: rgb(255, 255, 255); stroke-opacity: 1; stroke-width: 1px;"/></g></g><g class="zerolinelayer"><path class="yzl zl crisp" transform="translate(0,506)" d="M80,0h640" style="stroke: rgb(255, 255, 255); stroke-opacity: 1; stroke-width: 2px;"/></g><path class="xlines-below"/><path class="ylines-below"/><g class="overlines-below"/><g class="xaxislayer-below"/><g class="yaxislayer-below"/><g class="overaxes-below"/><g class="plot" transform="translate(80,100)" clip-path="url('#clip5fafc7xyplot')"><g class="scatterlayer mlayer"><g class="trace scatter trace40138f" style="stroke-miterlimit: 2; opacity: 1;"><g class="fills"/><g class="errorbars"/><g class="lines"><path class="js-line" d="M0,104.67Q7.73,112.47 11.64,116.24C15.49,119.96 19.05,125.76 23.27,127.14C26.89,128.32 31.37,127.64 34.91,125.72C39.31,123.33 42.21,113.06 46.55,111.83C50.12,110.82 54.25,115.05 58.18,115.68C62.01,116.29 66.16,116.96 69.82,115.64C73.98,114.13 77.34,108.27 81.45,106.02C85.14,104 89.39,104.3 93.09,102.28C97.19,100.04 100.57,94.34 104.73,92.73C108.39,91.31 112.71,90.87 116.36,92.11C120.54,93.54 124.16,98.66 128,102.11C131.92,105.62 135.59,109.93 139.64,112.99C143.38,115.82 147.25,119.29 151.27,120.02C155.02,120.7 159.1,119.06 162.91,117.86C166.87,116.61 170.67,112.56 174.55,112.57C178.43,112.58 182.22,116.73 186.18,117.96C189.98,119.14 194.4,117.56 197.82,119.92C202.59,123.21 204.86,138.42 209.45,139.73C212.92,140.72 217.57,132.73 221.09,133.63C225.54,134.76 228.25,147.19 232.73,151.01C236.24,154 240.39,155.52 244.36,156.34C248.15,157.12 252.13,156.35 256,156.08C259.89,155.81 263.86,155.84 267.64,154.71C271.62,153.52 275.28,149.6 279.27,148.88C283.05,148.2 287.03,149.76 290.91,150.16C294.79,150.56 298.85,152.25 302.55,151.26C306.64,150.16 310.36,145.95 314.18,142.99C318.12,139.94 322.18,132.73 325.82,133.2C330.02,133.75 332.88,147.75 337.45,149.74C340.93,151.26 345.24,147.85 349.09,148.16C353,148.47 356.81,151.02 360.73,151.69C364.57,152.35 368.7,153.43 372.36,152.2C376.53,150.8 380.1,145.68 384,142.53C387.86,139.42 391.62,135.92 395.64,133.4C399.4,131.05 403.33,128.07 407.27,127.73C411.09,127.4 415.1,129.6 418.91,131.12C422.87,132.7 426.55,136.35 430.55,137.12C434.32,137.84 438.35,136.8 442.18,135.99C446.11,135.16 449.89,132.82 453.82,132.13C457.65,131.45 461.68,132.77 465.45,131.79C469.45,130.75 473.11,126.26 477.09,125.71C480.88,125.18 484.85,128.14 488.73,128.13C492.61,128.12 496.76,127.64 500.36,125.66C504.62,123.32 508.23,113.6 512,113.8C516,114.01 519.3,125.2 523.64,128.51C527.2,131.22 531.31,132.6 535.27,133.43C539.07,134.23 543.06,133.05 546.91,133.57C550.82,134.1 554.87,134.75 558.55,136.65C562.68,138.78 566.01,144.73 570.18,146.32C573.84,147.72 577.94,146.56 581.82,146.75C585.7,146.94 589.57,147.17 593.45,147.45C597.33,147.74 601.26,147.63 605.09,148.46C609.03,149.31 612.79,151.82 616.73,152.58C620.55,153.32 624.48,153.11 628.36,153.06Q632.24,153.01 640,152.3" style="vector-effect: non-scaling-stroke; fill: none; stroke: rgb(99, 110, 250); stroke-opacity: 1; stroke-width: 2px; opacity: 1;"/></g><g class="points"/><g class="text"/></g></g></g><g class="overplot"/><path class="xlines-above crisp" d="M0,0" style="fill: none;"/><path class="ylines-above crisp" d="M0,0" style="fill: none;"/><g class="overlines-above"/><g class="xaxislayer-above"><g class="xtick"><text text-anchor="start" x="0" y="519" transform="translate(80,0) rotate(90,0,513)" style="font-family: 'Open Sans', verdana, arial, sans-serif; font-size: 12px; fill: rgb(42, 63, 95); fill-opacity: 1; white-space: pre;">1993.06</text></g><g class="xtick"><text text-anchor="start" x="0" y="519" transform="translate(103.27,0) rotate(90,0,513)" style="font-family: 'Open Sans', verdana, arial, sans-serif; font-size: 12px; fill: rgb(42, 63, 95); fill-opacity: 1; white-space: pre;">1994.06</text></g><g class="xtick"><text text-anchor="start" x="0" y="519" transform="translate(126.55,0) rotate(90,0,513)" style="font-family: 'Open Sans', verdana, arial, sans-serif; font-size: 12px; fill: rgb(42, 63, 95); fill-opacity: 1; white-space: pre;">1995.06</text></g><g class="xtick"><text text-anchor="start" x="0" y="519" transform="translate(149.82,0) rotate(90,0,513)" style="font-family: 'Open Sans', verdana, arial, sans-serif; font-size: 12px; fill: rgb(42, 63, 95); fill-opacity: 1; white-space: pre;">1996.06</text></g><g class="xtick"><text text-anchor="start" x="0" y="519" transform="translate(173.09,0) rotate(90,0,513)" style="font-family: 'Open Sans', verdana, arial, sans-serif; font-size: 12px; fill: rgb(42, 63, 95); fill-opacity: 1; white-space: pre;">1997.06</text></g><g class="xtick"><text text-anchor="start" x="0" y="519" transform="translate(196.36,0) rotate(90,0,513)" style="font-family: 'Open Sans', verdana, arial, sans-serif; font-size: 12px; fill: rgb(42, 63, 95); fill-opacity: 1; white-space: pre;">1998.06</text></g><g class="xtick"><text text-anchor="start" x="0" y="519" transform="translate(219.64,0) rotate(90,0,513)" style="font-family: 'Open Sans', verdana, arial, sans-serif; font-size: 12px; fill: rgb(42, 63, 95); fill-opacity: 1; white-space: pre;">1999.06</text></g><g class="xtick"><text text-anchor="start" x="0" y="519" transform="translate(242.91,0) rotate(90,0,513)" style="font-family: 'Open Sans', verdana, arial, sans-serif; font-size: 12px; fill: rgb(42, 63, 95); fill-opacity: 1; white-space: pre;">2000.06</text></g><g class="xtick"><text text-anchor="start" x="0" y="519" transform="translate(266.18,0) rotate(90,0,513)" style="font-family: 'Open Sans', verdana, arial, sans-serif; font-size: 12px; fill: rgb(42, 63, 95); fill-opacity: 1; white-space: pre;">2001.06</text></g><g class="xtick"><text text-anchor="start" x="0" y="519" transform="translate(289.45,0) rotate(90,0,513)" style="font-family: 'Open Sans', verdana, arial, sans-serif; font-size: 12px; fill: rgb(42, 63, 95); fill-opacity: 1; white-space: pre;">2002.06</text></g><g class="xtick"><text text-anchor="start" x="0" y="519" transform="translate(312.73,0) rotate(90,0,513)" style="font-family: 'Open Sans', verdana, arial, sans-serif; font-size: 12px; fill: rgb(42, 63, 95); fill-opacity: 1; white-space: pre;">2003.06</text></g><g class="xtick"><text text-anchor="start" x="0" y="519" transform="translate(336,0) rotate(90,0,513)" style="font-family: 'Open Sans', verdana, arial, sans-serif; font-size: 12px; fill: rgb(42, 63, 95); fill-opacity: 1; white-space: pre;">2004.06</text></g><g class="xtick"><text text-anchor="start" x="0" y="519" transform="translate(359.27,0) rotate(90,0,513)" style="font-family: 'Open Sans', verdana, arial, sans-serif; font-size: 12px; fill: rgb(42, 63, 95); fill-opacity: 1; white-space: pre;">2005.06</text></g><g class="xtick"><text text-anchor="start" x="0" y="519" transform="translate(382.55,0) rotate(90,0,513)" style="font-family: 'Open Sans', verdana, arial, sans-serif; font-size: 12px; fill: rgb(42, 63, 95); fill-opacity: 1; white-space: pre;">2006.06</text></g><g class="xtick"><text text-anchor="start" x="0" y="519" transform="translate(405.82,0) rotate(90,0,513)" style="font-family: 'Open Sans', verdana, arial, sans-serif; font-size: 12px; fill: rgb(42, 63, 95); fill-opacity: 1; white-space: pre;">2007.06</text></g><g class="xtick"><text text-anchor="start" x="0" y="519" transform="translate(429.09,0) rotate(90,0,513)" style="font-family: 'Open Sans', verdana, arial, sans-serif; font-size: 12px; fill: rgb(42, 63, 95); fill-opacity: 1; white-space: pre;">2008.06</text></g><g class="xtick"><text text-anchor="start" x="0" y="519" transform="translate(452.36,0) rotate(90,0,513)" style="font-family: 'Open Sans', verdana, arial, sans-serif; font-size: 12px; fill: rgb(42, 63, 95); fill-opacity: 1; white-space: pre;">2009.06</text></g><g class="xtick"><text text-anchor="start" x="0" y="519" transform="translate(475.64,0) rotate(90,0,513)" style="font-family: 'Open Sans', verdana, arial, sans-serif; font-size: 12px; fill: rgb(42, 63, 95); fill-opacity: 1; white-space: pre;">2010.06</text></g><g class="xtick"><text text-anchor="start" x="0" y="519" transform="translate(498.91,0) rotate(90,0,513)" style="font-family: 'Open Sans', verdana, arial, sans-serif; font-size: 12px; fill: rgb(42, 63, 95); fill-opacity: 1; white-space: pre;">2011.06</text></g><g class="xtick"><text text-anchor="start" x="0" y="519" transform="translate(522.1800000000001,0) rotate(90,0,513)" style="font-family: 'Open Sans', verdana, arial, sans-serif; font-size: 12px; fill: rgb(42, 63, 95); fill-opacity: 1; white-space: pre;">2012.06</text></g><g class="xtick"><text text-anchor="start" x="0" y="519" transform="translate(545.45,0) rotate(90,0,513)" style="font-family: 'Open Sans', verdana, arial, sans-serif; font-size: 12px; fill: rgb(42, 63, 95); fill-opacity: 1; white-space: pre;">2013.06</text></g><g class="xtick"><text text-anchor="start" x="0" y="519" transform="translate(568.73,0) rotate(90,0,513)" style="font-family: 'Open Sans', verdana, arial, sans-serif; font-size: 12px; fill: rgb(42, 63, 95); fill-opacity: 1; white-space: pre;">2014.06</text></g><g class="xtick"><text text-anchor="start" x="0" y="519" transform="translate(592,0) rotate(90,0,513)" style="font-family: 'Open Sans', verdana, arial, sans-serif; font-size: 12px; fill: rgb(42, 63, 95); fill-opacity: 1; white-space: pre;">2015.06</text></g><g class="xtick"><text text-anchor="start" x="0" y="519" transform="translate(615.27,0) rotate(90,0,513)" style="font-family: 'Open Sans', verdana, arial, sans-serif; font-size: 12px; fill: rgb(42, 63, 95); fill-opacity: 1; white-space: pre;">2016.06</text></g><g class="xtick"><text text-anchor="start" x="0" y="519" transform="translate(638.55,0) rotate(90,0,513)" style="font-family: 'Open Sans', verdana, arial, sans-serif; font-size: 12px; fill: rgb(42, 63, 95); fill-opacity: 1; white-space: pre;">2017.06</text></g><g class="xtick"><text text-anchor="start" x="0" y="519" transform="translate(661.82,0) rotate(90,0,513)" style="font-family: 'Open Sans', verdana, arial, sans-serif; font-size: 12px; fill: rgb(42, 63, 95); fill-opacity: 1; white-space: pre;">2018.06</text></g><g class="xtick"><text text-anchor="start" x="0" y="519" transform="translate(685.09,0) rotate(90,0,513)" style="font-family: 'Open Sans', verdana, arial, sans-serif; font-size: 12px; fill: rgb(42, 63, 95); fill-opacity: 1; white-space: pre;">2019.06</text></g><g class="xtick"><text text-anchor="start" x="0" y="519" transform="translate(708.36,0) rotate(90,0,513)" style="font-family: 'Open Sans', verdana, arial, sans-serif; font-size: 12px; fill: rgb(42, 63, 95); fill-opacity: 1; white-space: pre;">2020.06</text></g></g><g class="yaxislayer-above"><g class="ytick"><text text-anchor="end" x="79" y="4.199999999999999" transform="translate(0,506)" style="font-family: 'Open Sans', verdana, arial, sans-serif; font-size: 12px; fill: rgb(42, 63, 95); fill-opacity: 1; white-space: pre;">0</text></g><g class="ytick"><text text-anchor="end" x="79" y="4.199999999999999" transform="translate(0,424.8)" style="font-family: 'Open Sans', verdana, arial, sans-serif; font-size: 12px; fill: rgb(42, 63, 95); fill-opacity: 1; white-space: pre;">20</text></g><g class="ytick"><text text-anchor="end" x="79" y="4.199999999999999" transform="translate(0,343.6)" style="font-family: 'Open Sans', verdana, arial, sans-serif; font-size: 12px; fill: rgb(42, 63, 95); fill-opacity: 1; white-space: pre;">40</text></g><g class="ytick"><text text-anchor="end" x="79" y="4.199999999999999" transform="translate(0,262.4)" style="font-family: 'Open Sans', verdana, arial, sans-serif; font-size: 12px; fill: rgb(42, 63, 95); fill-opacity: 1; white-space: pre;">60</text></g><g class="ytick"><text text-anchor="end" x="79" y="4.199999999999999" transform="translate(0,181.2)" style="font-family: 'Open Sans', verdana, arial, sans-serif; font-size: 12px; fill: rgb(42, 63, 95); fill-opacity: 1; white-space: pre;">80</text></g><g class="ytick"><text text-anchor="end" x="79" y="4.199999999999999" transform="translate(0,100)" style="font-family: 'Open Sans', verdana, arial, sans-serif; font-size: 12px; fill: rgb(42, 63, 95); fill-opacity: 1; white-space: pre;">100</text></g></g><g class="overaxes-above"/></g></g><g class="polarlayer"/><g class="ternarylayer"/><g class="geolayer"/><g class="funnelarealayer"/><g class="pielayer"/><g class="treemaplayer"/><g class="sunburstlayer"/><g class="glimages"/><defs id="topdefs-5fafc7"><g class="clips"/></defs><g class="layer-above"><g class="imagelayer"/><g class="shapelayer"/></g><g class="infolayer"><g class="g-gtitle"><text class="gtitle" x="40" y="50" text-anchor="start" dy="0em" style="font-family: 'Open Sans', verdana, arial, sans-serif; font-size: 17px; fill: rgb(42, 63, 95); opacity: 1; font-weight: normal; white-space: pre;">Eficiência Média dos Supercomputadores no Top500</text></g><g class="g-xtitle"><text class="xtitle" x="400" y="587.940625" text-anchor="middle" style="font-family: 'Open Sans', verdana, arial, sans-serif; font-size: 14px; fill: rgb(42, 63, 95); opacity: 1; font-weight: normal; white-space: pre;">Listas</text></g><g class="g-ytitle"><text class="ytitle" transform="rotate(-90,31.309375000000003,303)" x="31.309375000000003" y="303" text-anchor="middle" style="font-family: 'Open Sans', verdana, arial, sans-serif; font-size: 14px; fill: rgb(42, 63, 95); opacity: 1; font-weight: normal; white-space: pre;">Eficiência média (%)</text></g></g></svg>