<svg class="main-svg" xmlns="http://www.w3.org/2000/svg" xmlns:xlink="http://www.w3.org/1999/xlink" width="800" height="600" style="" viewBox="0 0 800 600"><rect x="0" y="0" width="800" height="600" style="fill: rgb(255, 255, 255); fill-opacity: 1;"/><defs id="defs-2f59c3"><g class="clips"><clipPath id="clip2f59c3xyplot" class="plotclip"><rect width="570" height="406"/></clipPath><clipPath class="axesclip" id="clip2f59c3x"><rect x="80" y="0" width="570" height="600"/></clipPath><clipPath class="axesclip" id="clip2f59c3y"><rect x="0" y="100" width="800" height="406"/></clipPath><clipPath class="axesclip" id="clip2f59c3xy"><rect x="80" y="100" width="570" height="406"/></clipPath></g><g class="gradients"/></defs><g class="bglayer"><rect class="bg" x="80" y="100" width="570" height="406" style="fill: rgb(229, 236, 246); fill-opacity: 1; stroke-width: 0;"/></g><g class="layer-below"><g class="imagelayer"/><g class="shapelayer"/></g><g class="cartesianlayer"><g class="subplot xy"><g class="layer-subplot"><g class="shapelayer"/><g class="imagelayer"/></g><g class="gridlayer"><g class="x"><path class="xgrid crisp" transform="translate(100.73,0)" d="M0,100v406" style="stroke: rgb(255, 255, 255); stroke-opacity: 1; stroke-width: 1px;"/><path class="xgrid crisp" transform="translate(121.45,0)" d="M0,100v406" style="stroke: rgb(255, 255, 255); stroke-opacity: 1; stroke-width: 1px;"/><path class="xgrid crisp" transform="translate(142.18,0)" d="M0,100v406" style="stroke: rgb(255, 255, 255); stroke-opacity: 1; stroke-width: 1px;"/><path class="xgrid crisp" transform="translate(162.91,0)" d="M0,100v406" style="stroke: rgb(255, 255, 255); stroke-opacity: 1; stroke-width: 1px;"/><path class="xgrid crisp" transform="translate(183.64,0)" d="M0,100v406" style="stroke: rgb(255, 255, 255); stroke-opacity: 1; stroke-width: 1px;"/><path class="xgrid crisp" transform="translate(204.36,0)" d="M0,100v406" style="stroke: rgb(255, 255, 255); stroke-opacity: 1; stroke-width: 1px;"/><path class="xgrid crisp" transform="translate(225.09,0)" d="M0,100v406" style="stroke: rgb(255, 255, 255); stroke-opacity: 1; stroke-width: 1px;"/><path class="xgrid crisp" transform="translate(245.82,0)" d="M0,100v406" style="stroke: rgb(255, 255, 255); stroke-opacity: 1; stroke-width: 1px;"/><path class="xgrid crisp" transform="translate(266.55,0)" d="M0,100v406" style="stroke: rgb(255, 255, 255); stroke-opacity: 1; stroke-width: 1px;"/><path class="xgrid crisp" transform="translate(287.27,0)" d="M0,100v406" style="stroke: rgb(255, 255, 255); stroke-opacity: 1; stroke-width: 1px;"/><path class="xgrid crisp" transform="translate(308,0)" d="M0,100v406" style="stroke: rgb(255, 255, 255); stroke-opacity: 1; stroke-width: 1px;"/><path class="xgrid crisp" transform="translate(328.73,0)" d="M0,100v406" style="stroke: rgb(255, 255, 255); stroke-opacity: 1; stroke-width: 1px;"/><path class="xgrid crisp" transform="translate(349.45,0)" d="M0,100v406" style="stroke: rgb(255, 255, 255); stroke-opacity: 1; stroke-width: 1px;"/><path class="xgrid crisp" transform="translate(370.18,0)" d="M0,100v406" style="stroke: rgb(255, 255, 255); stroke-opacity: 1; stroke-width: 1px;"/><path class="xgrid crisp" transform="translate(390.91,0)" d="M0,100v406" style="stroke: rgb(255, 255, 255); stroke-opacity: 1; stroke-width: 1px;"/><path class="xgrid crisp" transform="translate(411.64,0)" d="M0,100v406" style="stroke: rgb(255, 255, 255); stroke-opacity: 1; stroke-width: 1px;"/><path class="xgrid crisp" transform="translate(432.36,0)" d="M0,100v406" style="stroke: rgb(255, 255, 255); stroke-opacity: 1; stroke-width: 1px;"/><path class="xgrid crisp" transform="translate(453.09,0)" d="M0,100v406" style="stroke: rgb(255, 255, 255); stroke-opacity: 1; stroke-width: 1px;"/><path class="xgrid crisp" transform="translate(473.82,0)" d="M0,100v406" style="stroke: rgb(255, 255, 255); stroke-opacity: 1; stroke-width: 1px;"/><path class="xgrid crisp" transform="translate(494.55,0)" d="M0,100v406" style="stroke: rgb(255, 255, 255); stroke-opacity: 1; stroke-width: 1px;"/><path class="xgrid crisp" transform="translate(515.27,0)" d="M0,100v406" style="stroke: rgb(255, 255, 255); stroke-opacity: 1; stroke-width: 1px;"/><path class="xgrid crisp" transform="translate(536,0)" d="M0,100v406" style="stroke: rgb(255, 255, 255); stroke-opacity: 1; stroke-width: 1px;"/><path class="xgrid crisp" transform="translate(556.73,0)" d="M0,100v406" style="stroke: rgb(255, 255, 255); stroke-opacity: 1; stroke-width: 1px;"/><path class="xgrid crisp" transform="translate(577.45,0)" d="M0,100v406" style="stroke: rgb(255, 255, 255); stroke-opacity: 1; stroke-width: 1px;"/><path class="xgrid crisp" transform="translate(598.18,0)" d="M0,100v406" style="stroke: rgb(255, 255, 255); stroke-opacity: 1; stroke-width: 1px;"/><path class="xgrid crisp" transform="translate(618.91,0)" d="M0,100v406" style="stroke: rgb(255, 255, 255); stroke-opacity: 1; stroke-width: 1px;"/><path class="xgrid crisp" transform="translate(639.64,0)" d="M0,100v406" style="stroke: rgb(255, 255, 255); stroke-opacity: 1; stroke-width: 1px;"/></g><g class="y"><path class="ygrid crisp" transform="translate(0,424.8)" d="M80,0h570" style="stroke: rgb(255, 255, 255); stroke-opacity: 1; stroke-width: 1px;"/><path class="ygrid crisp" transform="translate(0,343.6)" d="M80,0h570" style="stroke: rgb(255, 255, 255); stroke-opacity: 1; stroke-width: 1px;"/><path class="ygrid crisp" transform="translate(0,262.4)" d="M80,0h570" style="stroke: rgb(255, 255, 255); stroke-opacity: 1; stroke-width: 1px;"/><path class="ygrid crisp" transform="translate(0,181.2)" d="M80,0h570" style="stroke: rgb(255, 255, 255); stroke-opacity: 1; stroke-width: 1px;"/></g></g><g class="zerolinelayer"><path class="yzl zl crisp" transform="translate(0,506)" d="M80,0h570" style="stroke: rgb(255, 255, 255); stroke-opacity: 1; stroke-width: 2px;"/></g><path class="xlines-below"/><path class="ylines-below"/><g class="overlines-below"/><g class="xaxislayer-below"/><g class="yaxislayer-below"/><g class="overaxes-below"/><g class="plot" transform="translate(80,100)" clip-path="url('#clip2f59c3xyplot')"><g class="scatterlayer mlayer"><g class="trace scatter tracecb7966" style="stroke-miterlimit: 2; opacity: 1;"><g class="fills"/><g class="errorbars"/><g class="lines"><path class="js-line" d="M0,223.3Q6.87,217.24 10.36,214.37C13.78,211.56 17.09,206.91 20.73,206.25C24.03,205.65 28.14,210.9 31.09,209.5C35.83,207.25 37.24,184.36 41.45,183.51C44.51,182.89 48.05,191.76 51.82,194.07C55.05,196.04 58.88,197.92 62.18,197.32C65.82,196.66 68.87,190.16 72.55,189.2C75.83,188.35 79.45,190.55 82.91,190.82C86.35,191.09 90.21,192.5 93.27,190.82C97.45,188.53 99.57,177.93 103.64,174.58C106.74,172.03 110.51,171.61 114,170.52C117.42,169.45 121.35,166.69 124.36,168.08C128.77,170.12 130.6,183.62 134.73,188.38C137.81,191.93 142.01,192.14 145.09,195.69C149.22,200.45 151.8,215.77 155.45,215.99C158.75,216.19 162.48,200.42 165.82,200.56C169.4,200.71 171.91,215.76 176.18,219.24C179.22,221.72 183.06,222.23 186.55,222.49C189.97,222.74 193.83,222.83 196.91,220.86C201.02,218.24 203.15,207.43 207.27,205.44C210.35,203.95 214.42,207.39 217.64,206.25C221.41,204.92 224.41,199.27 228,196.5C231.33,193.93 235,192.49 238.36,190.01C241.92,187.39 245.66,185.18 248.73,181.08C252.88,175.54 254.65,159.97 259.09,158.34C262.09,157.24 266.11,163.59 269.45,163.21C273.03,162.81 276.76,154.34 279.82,155.09C284.03,156.12 285.59,175.36 290.18,177.83C293.16,179.43 297.55,174.64 300.55,176.2C305.04,178.53 307.61,197.46 310.91,197.32C314.55,197.16 316.39,174.16 321.27,170.52C324.21,168.33 328.46,168.45 331.64,169.71C335.51,171.24 338.22,180.2 342,181.08C345.22,181.83 348.98,176.71 352.36,177.02C355.9,177.35 359.57,180.45 362.73,183.51C366.63,187.29 369.19,198.11 373.09,198.94C376.25,199.61 380.09,192.19 383.45,192.44C387.01,192.71 390.09,199.83 393.82,201.38C397.07,202.73 400.73,202.19 404.18,202.19C407.64,202.19 411.33,202.81 414.55,201.38C418.32,199.71 421.87,190.96 424.91,191.63C429.17,192.58 430.44,214.06 435.27,217.62C438.21,219.79 442.19,218.56 445.64,218.43C449.1,218.29 453.07,215.09 456,216.8C460.92,219.67 462.91,235.21 466.36,244.41C469.82,253.61 471.99,270.09 476.73,272.02C479.68,273.22 483.57,267.52 487.09,267.15C490.48,266.79 494.44,267.22 497.45,269.58C501.86,273.03 504.17,283.68 507.82,289.88C511.12,295.48 514.59,300.56 518.18,305.31C521.51,309.71 524.79,316.8 528.55,317.49C531.78,318.08 535.34,312.87 538.91,311.81C542.26,310.81 545.85,310.61 549.27,311C552.76,311.39 556.14,313.71 559.64,314.24Q563.05,314.76 570,314.24" style="vector-effect: non-scaling-stroke; fill: none; stroke: rgb(99, 110, 250); stroke-opacity: 1; stroke-width: 2px; opacity: 1;"/></g><g class="points"/><g class="text"/></g><g class="trace scatter trace320e27" style="stroke-miterlimit: 2; opacity: 1;"><g class="fills"/><g class="errorbars"/><g class="lines"><path class="js-line" d="M0,315.87Q6.88,318.86 10.36,319.12C13.79,319.37 17.74,315.91 20.73,317.49C25.27,319.89 27.24,333.25 31.09,339.42C34.27,344.53 37.65,351.65 41.45,352.41C44.66,353.05 48.69,349.65 51.82,346.72C55.81,342.98 58.47,330.87 62.18,330.48C65.44,330.14 68.88,340.5 72.55,341.04C75.83,341.52 79.38,336.86 82.91,335.36C86.29,333.92 89.91,331.68 93.27,332.11C96.83,332.57 100.36,335.86 103.64,338.6C107.32,341.67 110.51,346.28 114,349.97C117.42,353.59 120.54,359.1 124.36,360.53C127.56,361.73 131.31,360.38 134.73,359.72C138.22,359.04 141.61,357.29 145.09,356.47C148.51,355.67 152.14,354.07 155.45,354.84C159.09,355.69 162.2,361.45 165.82,362.15C169.14,362.79 172.74,359.6 176.18,359.72C179.65,359.85 183.14,361.63 186.55,362.96C190.05,364.32 193.51,365.98 196.91,367.84C200.42,369.76 203.79,372.29 207.27,374.33C210.7,376.34 214.07,379.4 217.64,380.02C221,380.61 224.58,378.14 228,378.39C231.48,378.65 234.98,380.2 238.36,381.64C241.89,383.14 245.18,385.96 248.73,387.32C252.1,388.61 255.78,390.4 259.09,389.76C262.71,389.06 265.81,383.76 269.45,382.45C272.75,381.26 276.47,380.92 279.82,381.64C283.39,382.41 286.63,385.96 290.18,387.32C293.55,388.61 297.08,389.63 300.55,389.76C303.99,389.89 307.51,387.77 310.91,388.14C314.42,388.52 317.76,391.25 321.27,392.2C324.68,393.12 328.18,393.69 331.64,393.82C335.09,393.95 338.55,393.42 342,393.01C345.46,392.6 349.03,392.63 352.36,391.38C355.96,390.04 359.12,385.93 362.73,384.89C366.05,383.94 369.68,385.41 373.09,384.89C376.58,384.35 380.02,382.85 383.45,381.64C386.93,380.42 390.33,377.83 393.82,377.58C397.24,377.34 400.71,379.34 404.18,380.02C407.62,380.69 411.09,381.1 414.55,381.64C418,382.18 421.46,383.26 424.91,383.26C428.36,383.26 431.82,382.18 435.27,381.64C438.73,381.1 442.31,381.27 445.64,380.02C449.24,378.68 452.42,374.11 456,373.52C459.34,372.97 463.02,374.57 466.36,375.96C469.94,377.46 473.13,381.11 476.73,382.45C480.06,383.7 483.71,384.56 487.09,384.08C490.62,383.57 493.92,380.28 497.45,379.2C500.83,378.16 504.36,377.99 507.82,377.58C511.27,377.18 514.78,376.27 518.18,376.77C521.7,377.29 525.05,379.74 528.55,380.83C531.97,381.89 535.44,382.99 538.91,383.26C542.34,383.52 545.81,382.58 549.27,382.45C552.72,382.32 556.24,383.09 559.64,382.45Q563.16,381.79 570,378.39" style="vector-effect: non-scaling-stroke; fill: none; stroke: rgb(239, 85, 59); stroke-opacity: 1; stroke-width: 2px; opacity: 1;"/></g><g class="points"/><g class="text"/></g><g class="trace scatter trace46f968" style="stroke-miterlimit: 2; opacity: 1;"><g class="fills"/><g class="errorbars"/><g class="lines"><path class="js-line" d="M41.45,405.19Q48.36,405.19 51.82,405.19C55.27,405.19 58.73,405.19 62.18,405.19C65.64,405.19 67.64,405.19 72.55,405.19C84.57,405.19 122.72,405.66 134.73,405.19C139.64,405 140.71,404.61 145.09,404.38C152.67,403.98 168.59,403.66 176.18,403.56C180.56,403.5 183.1,403.83 186.55,403.56C190.01,403.29 193.45,402.35 196.91,401.94C200.36,401.54 203.85,401.79 207.27,401.13C210.76,400.45 214.18,398.96 217.64,397.88C221.09,396.8 224.53,395.58 228,394.63C231.44,393.69 234.89,392.88 238.36,392.2C241.8,391.53 245.27,390.57 248.73,390.57C252.18,390.57 255.84,393.13 259.09,392.2C262.81,391.14 265.96,383.34 269.45,383.26C272.87,383.18 276.21,389.32 279.82,391.38C283.14,393.28 286.69,394.35 290.18,395.44C293.6,396.51 297.08,397.75 300.55,397.88C303.99,398.01 307.47,396.93 310.91,396.26C314.38,395.58 317.88,395 321.27,393.82C324.79,392.59 328.09,389.74 331.64,388.95C335.01,388.2 338.57,389.35 342,388.95C345.48,388.55 349.23,388.55 352.36,386.51C356.34,383.91 359.36,377.57 362.73,372.71C366.29,367.58 369.38,361.14 373.09,356.47C376.34,352.38 379.74,346.58 383.45,345.91C386.71,345.32 390.32,350.54 393.82,350.78C397.23,351.01 400.77,347.31 404.18,347.54C407.68,347.78 411.03,351.19 414.55,352.41C417.94,353.59 421.7,355.77 424.91,354.84C428.7,353.74 431.88,344.17 435.27,344.29C438.8,344.42 442.42,351.73 445.64,356.47C449.42,362.03 453.06,376.42 456,375.96C460.83,375.2 462.72,335.98 466.36,317.49C469.66,300.69 470.58,275.84 476.73,269.58C479.6,266.66 483.83,266.35 487.09,267.15C490.79,268.06 494.5,276.94 497.45,276.08C502.21,274.7 502.56,247.29 507.82,241.98C510.72,239.05 515.11,241.13 518.18,238.73C522.34,235.47 524.51,222.76 528.55,221.68C531.66,220.85 535.49,227.46 538.91,227.36C542.39,227.26 545.67,221.6 549.27,220.86C552.6,220.18 556.41,220.91 559.64,222.49Q563.4,224.33 570,232.23" style="vector-effect: non-scaling-stroke; fill: none; stroke: rgb(0, 204, 150); stroke-opacity: 1; stroke-width: 2px; opacity: 1;"/></g><g class="points"/><g class="text"/></g></g></g><g class="overplot"/><path class="xlines-above crisp" d="M0,0" style="fill: none;"/><path class="ylines-above crisp" d="M0,0" style="fill: none;"/><g class="overlines-above"/><g class="xaxislayer-above"><g class="xtick"><text text-anchor="start" x="0" y="519" transform="translate(80,0) rotate(90,0,513)" style="font-family: 'Open Sans', verdana, arial, sans-serif; font-size: 12px; fill: rgb(42, 63, 95); fill-opacity: 1; white-space: pre;">1993.06</text></g><g class="xtick"><text text-anchor="start" x="0" y="519" transform="translate(100.73,0) rotate(90,0,513)" style="font-family: 'Open Sans', verdana, arial, sans-serif; font-size: 12px; fill: rgb(42, 63, 95); fill-opacity: 1; white-space: pre;">1994.06</text></g><g class="xtick"><text text-anchor="start" x="0" y="519" transform="translate(121.45,0) rotate(90,0,513)" style="font-family: 'Open Sans', verdana, arial, sans-serif; font-size: 12px; fill: rgb(42, 63, 95); fill-opacity: 1; white-space: pre;">1995.06</text></g><g class="xtick"><text text-anchor="start" x="0" y="519" transform="translate(142.18,0) rotate(90,0,513)" style="font-family: 'Open Sans', verdana, arial, sans-serif; font-size: 12px; fill: rgb(42, 63, 95); fill-opacity: 1; white-space: pre;">1996.06</text></g><g class="xtick"><text text-anchor="start" x="0" y="519" transform="translate(162.91,0) rotate(90,0,513)" style="font-family: 'Open Sans', verdana, arial, sans-serif; font-size: 12px; fill: rgb(42, 63, 95); fill-opacity: 1; white-space: pre;">1997.06</text></g><g class="xtick"><text text-anchor="start" x="0" y="519" transform="translate(183.64,0) rotate(90,0,513)" style="font-family: 'Open Sans', verdana, arial, sans-serif; font-size: 12px; fill: rgb(42, 63, 95); fill-opacity: 1; white-space: pre;">1998.06</text></g><g class="xtick"><text text-anchor="start" x="0" y="519" transform="translate(204.36,0) rotate(90,0,513)" style="font-family: 'Open Sans', verdana, arial, sans-serif; font-size: 12px; fill: rgb(42, 63, 95); fill-opacity: 1; white-space: pre;">1999.06</text></g><g class="xtick"><text text-anchor="start" x="0" y="519" transform="translate(225.09,0) rotate(90,0,513)" style="font-family: 'Open Sans', verdana, arial, sans-serif; font-size: 12px; fill: rgb(42, 63, 95); fill-opacity: 1; white-space: pre;">2000.06</text></g><g class="xtick"><text text-anchor="start" x="0" y="519" transform="translate(245.82,0) rotate(90,0,513)" style="font-family: 'Open Sans', verdana, arial, sans-serif; font-size: 12px; fill: rgb(42, 63, 95); fill-opacity: 1; white-space: pre;">2001.06</text></g><g class="xtick"><text text-anchor="start" x="0" y="519" transform="translate(266.55,0) rotate(90,0,513)" style="font-family: 'Open Sans', verdana, arial, sans-serif; font-size: 12px; fill: rgb(42, 63, 95); fill-opacity: 1; white-space: pre;">2002.06</text></g><g class="xtick"><text text-anchor="start" x="0" y="519" transform="translate(287.27,0) rotate(90,0,513)" style="font-family: 'Open Sans', verdana, arial, sans-serif; font-size: 12px; fill: rgb(42, 63, 95); fill-opacity: 1; white-space: pre;">2003.06</text></g><g class="xtick"><text text-anchor="start" x="0" y="519" transform="translate(308,0) rotate(90,0,513)" style="font-family: 'Open Sans', verdana, arial, sans-serif; font-size: 12px; fill: rgb(42, 63, 95); fill-opacity: 1; white-space: pre;">2004.06</text></g><g class="xtick"><text text-anchor="start" x="0" y="519" transform="translate(328.73,0) rotate(90,0,513)" style="font-family: 'Open Sans', verdana, arial, sans-serif; font-size: 12px; fill: rgb(42, 63, 95); fill-opacity: 1; white-space: pre;">2005.06</text></g><g class="xtick"><text text-anchor="start" x="0" y="519" transform="translate(349.45,0) rotate(90,0,513)" style="font-family: 'Open Sans', verdana, arial, sans-serif; font-size: 12px; fill: rgb(42, 63, 95); fill-opacity: 1; white-space: pre;">2006.06</text></g><g class="xtick"><text text-anchor="start" x="0" y="519" transform="translate(370.18,0) rotate(90,0,513)" style="font-family: 'Open Sans', verdana, arial, sans-serif; font-size: 12px; fill: rgb(42, 63, 95); fill-opacity: 1; white-space: pre;">2007.06</text></g><g class="xtick"><text text-anchor="start" x="0" y="519" transform="translate(390.91,0) rotate(90,0,513)" style="font-family: 'Open Sans', verdana, arial, sans-serif; font-size: 12px; fill: rgb(42, 63, 95); fill-opacity: 1; white-space: pre;">2008.06</text></g><g class="xtick"><text text-anchor="start" x="0" y="519" transform="translate(411.64,0) rotate(90,0,513)" style="font-family: 'Open Sans', verdana, arial, sans-serif; font-size: 12px; fill: rgb(42, 63, 95); fill-opacity: 1; white-space: pre;">2009.06</text></g><g class="xtick"><text text-anchor="start" x="0" y="519" transform="translate(432.36,0) rotate(90,0,513)" style="font-family: 'Open Sans', verdana, arial, sans-serif; font-size: 12px; fill: rgb(42, 63, 95); fill-opacity: 1; white-space: pre;">2010.06</text></g><g class="xtick"><text text-anchor="start" x="0" y="519" transform="translate(453.09,0) rotate(90,0,513)" style="font-family: 'Open Sans', verdana, arial, sans-serif; font-size: 12px; fill: rgb(42, 63, 95); fill-opacity: 1; white-space: pre;">2011.06</text></g><g class="xtick"><text text-anchor="start" x="0" y="519" transform="translate(473.82,0) rotate(90,0,513)" style="font-family: 'Open Sans', verdana, arial, sans-serif; font-size: 12px; fill: rgb(42, 63, 95); fill-opacity: 1; white-space: pre;">2012.06</text></g><g class="xtick"><text text-anchor="start" x="0" y="519" transform="translate(494.55,0) rotate(90,0,513)" style="font-family: 'Open Sans', verdana, arial, sans-serif; font-size: 12px; fill: rgb(42, 63, 95); fill-opacity: 1; white-space: pre;">2013.06</text></g><g class="xtick"><text text-anchor="start" x="0" y="519" transform="translate(515.27,0) rotate(90,0,513)" style="font-family: 'Open Sans', verdana, arial, sans-serif; font-size: 12px; fill: rgb(42, 63, 95); fill-opacity: 1; white-space: pre;">2014.06</text></g><g class="xtick"><text text-anchor="start" x="0" y="519" transform="translate(536,0) rotate(90,0,513)" style="font-family: 'Open Sans', verdana, arial, sans-serif; font-size: 12px; fill: rgb(42, 63, 95); fill-opacity: 1; white-space: pre;">2015.06</text></g><g class="xtick"><text text-anchor="start" x="0" y="519" transform="translate(556.73,0) rotate(90,0,513)" style="font-family: 'Open Sans', verdana, arial, sans-serif; font-size: 12px; fill: rgb(42, 63, 95); fill-opacity: 1; white-space: pre;">2016.06</text></g><g class="xtick"><text text-anchor="start" x="0" y="519" transform="translate(577.45,0) rotate(90,0,513)" style="font-family: 'Open Sans', verdana, arial, sans-serif; font-size: 12px; fill: rgb(42, 63, 95); fill-opacity: 1; white-space: pre;">2017.06</text></g><g class="xtick"><text text-anchor="start" x="0" y="519" transform="translate(598.18,0) rotate(90,0,513)" style="font-family: 'Open Sans', verdana, arial, sans-serif; font-size: 12px; fill: rgb(42, 63, 95); fill-opacity: 1; white-space: pre;">2018.06</text></g><g class="xtick"><text text-anchor="start" x="0" y="519" transform="translate(618.91,0) rotate(90,0,513)" style="font-family: 'Open Sans', verdana, arial, sans-serif; font-size: 12px; fill: rgb(42, 63, 95); fill-opacity: 1; white-space: pre;">2019.06</text></g><g class="xtick"><text text-anchor="start" x="0" y="519" transform="translate(639.64,0) rotate(90,0,513)" style="font-family: 'Open Sans', verdana, arial, sans-serif; font-size: 12px; fill: rgb(42, 63, 95); fill-opacity: 1; white-space: pre;">2020.06</text></g></g><g class="yaxislayer-above"><g class="ytick"><text text-anchor="end" x="79" y="4.199999999999999" transform="translate(0,506)" style="font-family: 'Open Sans', verdana, arial, sans-serif; font-size: 12px; fill: rgb(42, 63, 95); fill-opacity: 1; white-space: pre;">0</text></g><g class="ytick"><text text-anchor="end" x="79" y="4.199999999999999" transform="translate(0,424.8)" style="font-family: 'Open Sans', verdana, arial, sans-serif; font-size: 12px; fill: rgb(42, 63, 95); fill-opacity: 1; white-space: pre;">100</text></g><g class="ytick"><text text-anchor="end" x="79" y="4.199999999999999" transform="translate(0,343.6)" style="font-family: 'Open Sans', verdana, arial, sans-serif; font-size: 12px; fill: rgb(42, 63, 95); fill-opacity: 1; white-space: pre;">200</text></g><g class="ytick"><text text-anchor="end" x="79" y="4.199999999999999" transform="translate(0,262.4)" style="font-family: 'Open Sans', verdana, arial, sans-serif; font-size: 12px; fill: rgb(42, 63, 95); fill-opacity: 1; white-space: pre;">300</text></g><g class="ytick"><text text-anchor="end" x="79" y="4.199999999999999" transform="translate(0,181.2)" style="font-family: 'Open Sans', verdana, arial, sans-serif; font-size: 12px; fill: rgb(42, 63, 95); fill-opacity: 1; white-space: pre;">400</text></g><g class="ytick"><text text-anchor="end" x="79" y="4.199999999999999" transform="translate(0,100)" style="font-family: 'Open Sans', verdana, arial, sans-serif; font-size: 12px; fill: rgb(42, 63, 95); fill-opacity: 1; white-space: pre;">500</text></g></g><g class="overaxes-above"/></g></g><g class="polarlayer"/><g class="ternarylayer"/><g class="geolayer"/><g class="funnelarealayer"/><g class="pielayer"/><g class="treemaplayer"/><g class="sunburstlayer"/><g class="glimages"/><defs id="topdefs-2f59c3"><g class="clips"/><clipPath id="legend2f59c3"><rect width="127" height="83" x="0" y="0"/></clipPath></defs><g class="layer-above"><g class="imagelayer"/><g class="shapelayer"/></g><g class="infolayer"><g class="legend" pointer-events="all" transform="translate(661.4,100)"><rect class="bg" shape-rendering="crispEdges" style="stroke: rgb(68, 68, 68); stroke-opacity: 1; fill: rgb(255, 255, 255); fill-opacity: 1; stroke-width: 0px;" width="127" height="83" x="0" y="0"/><g class="scrollbox" transform="" clip-path="url('#legend2f59c3')"><text class="legendtitletext" text-anchor="start" x="2" y="15.600000000000001" style="font-family: 'Open Sans', verdana, arial, sans-serif; font-size: 12px; fill: rgb(42, 63, 95); fill-opacity: 1; white-space: pre;">Países</text><g class="groups" transform=""><g class="traces" transform="translate(0,30.1)" style="opacity: 1;"><text class="legendtext" text-anchor="start" x="40" y="4.680000000000001" style="font-family: 'Open Sans', verdana, arial, sans-serif; font-size: 12px; fill: rgb(42, 63, 95); fill-opacity: 1; white-space: pre;">United States</text><g class="layers" style="opacity: 1;"><g class="legendfill"/><g class="legendlines"><path class="js-line" d="M5,0h30" style="fill: none; stroke: rgb(99, 110, 250); stroke-opacity: 1; stroke-width: 2px;"/></g><g class="legendsymbols"><g class="legendpoints"/></g></g><rect class="legendtoggle" x="0" y="-9.5" width="121.515625" height="19" style="fill: rgb(0, 0, 0); fill-opacity: 0;"/></g></g><g class="groups" transform=""><g class="traces" transform="translate(0,49.1)" style="opacity: 1;"><text class="legendtext" text-anchor="start" x="40" y="4.680000000000001" style="font-family: 'Open Sans', verdana, arial, sans-serif; font-size: 12px; fill: rgb(42, 63, 95); fill-opacity: 1; white-space: pre;">Japan</text><g class="layers" style="opacity: 1;"><g class="legendfill"/><g class="legendlines"><path class="js-line" d="M5,0h30" style="fill: none; stroke: rgb(239, 85, 59); stroke-opacity: 1; stroke-width: 2px;"/></g><g class="legendsymbols"><g class="legendpoints"/></g></g><rect class="legendtoggle" x="0" y="-9.5" width="121.515625" height="19" style="fill: rgb(0, 0, 0); fill-opacity: 0;"/></g></g><g class="groups" transform=""><g class="traces" transform="translate(0,68.1)" style="opacity: 1;"><text class="legendtext" text-anchor="start" x="40" y="4.680000000000001" style="font-family: 'Open Sans', verdana, arial, sans-serif; font-size: 12px; fill: rgb(42, 63, 95); fill-opacity: 1; white-space: pre;">China</text><g class="layers" style="opacity: 1;"><g class="legendfill"/><g class="legendlines"><path class="js-line" d="M5,0h30" style="fill: none; stroke: rgb(0, 204, 150); stroke-opacity: 1; stroke-width: 2px;"/></g><g class="legendsymbols"><g class="legendpoints"/></g></g><rect class="legendtoggle" x="0" y="-9.5" width="121.515625" height="19" style="fill: rgb(0, 0, 0); fill-opacity: 0;"/></g></g></g><rect class="scrollbar" rx="20" ry="3" width="0" height="0" style="fill: rgb(128, 139, 164); fill-opacity: 1;" x="0" y="0"/></g><g class="g-gtitle"><text class="gtitle" x="40" y="50" text-anchor="start" dy="0em" style="font-family: 'Open Sans', verdana, arial, sans-serif; font-size: 17px; fill: rgb(42, 63, 95); opacity: 1; font-weight: normal; white-space: pre;">Evolução da participação no Top500</text></g><g class="g-xtitle"><text class="xtitle" x="365" y="587.940625" text-anchor="middle" style="font-family: 'Open Sans', verdana, arial, sans-serif; font-size: 14px; fill: rgb(42, 63, 95); opacity: 1; font-weight: normal; white-space: pre;">Lista publicada</text></g><g class="g-ytitle"><text class="ytitle" transform="rotate(-90,31.309375000000003,303)" x="31.309375000000003" y="303" text-anchor="middle" style="font-family: 'Open Sans', verdana, arial, sans-serif; font-size: 14px; fill: rgb(42, 63, 95); opacity: 1; font-weight: normal; white-space: pre;">Ocorrências</text></g></g></svg>