<svg class="main-svg" xmlns="http://www.w3.org/2000/svg" xmlns:xlink="http://www.w3.org/1999/xlink" width="800" height="600" style="" viewBox="0 0 800 600"><rect x="0" y="0" width="800" height="600" style="fill: rgb(255, 255, 255); fill-opacity: 1;"/><defs id="defs-53fc2b"><g class="clips"><clipPath id="clip53fc2bxyplot" class="plotclip"><rect width="640" height="328"/></clipPath><clipPath class="axesclip" id="clip53fc2bx"><rect x="80" y="0" width="640" height="600"/></clipPath><clipPath class="axesclip" id="clip53fc2by"><rect x="0" y="100" width="800" height="328"/></clipPath><clipPath class="axesclip" id="clip53fc2bxy"><rect x="80" y="100" width="640" height="328"/></clipPath></g><g class="gradients"/></defs><g class="bglayer"><rect class="bg" x="80" y="100" width="640" height="328" style="fill: rgb(229, 236, 246); fill-opacity: 1; stroke-width: 0;"/></g><g class="layer-below"><g class="imagelayer"/><g class="shapelayer"/></g><g class="cartesianlayer"><g class="subplot xy"><g class="layer-subplot"><g class="shapelayer"/><g class="imagelayer"/></g><g class="gridlayer"><g class="x"/><g class="y"><path class="ygrid crisp" transform="translate(0,362.4)" d="M80,0h640" style="stroke: rgb(255, 255, 255); stroke-opacity: 1; stroke-width: 1px;"/><path class="ygrid crisp" transform="translate(0,296.8)" d="M80,0h640" style="stroke: rgb(255, 255, 255); stroke-opacity: 1; stroke-width: 1px;"/><path class="ygrid crisp" transform="translate(0,231.2)" d="M80,0h640" style="stroke: rgb(255, 255, 255); stroke-opacity: 1; stroke-width: 1px;"/><path class="ygrid crisp" transform="translate(0,165.6)" d="M80,0h640" style="stroke: rgb(255, 255, 255); stroke-opacity: 1; stroke-width: 1px;"/></g></g><g class="zerolinelayer"><path class="yzl zl crisp" transform="translate(0,428)" d="M80,0h640" style="stroke: rgb(255, 255, 255); stroke-opacity: 1; stroke-width: 2px;"/></g><path class="xlines-below"/><path class="ylines-below"/><g class="overlines-below"/><g class="xaxislayer-below"/><g class="yaxislayer-below"/><g class="overaxes-below"/><g class="plot" transform="translate(80,100)" clip-path="url('#clip53fc2bxyplot')"><g class="boxlayer mlayer"><g class="trace boxes" style="opacity: 1;"><path class="box" d="M5.63,161.38H16.44M5.63,177.78H16.44V148.26H5.63ZM11.03,177.78V256.5M11.03,148.26V125.3M8.33,256.5H13.74M8.33,125.3H13.74" style="vector-effect: non-scaling-stroke; stroke-width: 2px; stroke: rgb(99, 110, 250); stroke-opacity: 1; fill: rgb(99, 110, 250); fill-opacity: 0.5;"/><path class="box" d="M27.7,306.02H38.51M27.7,309.3H38.51V289.3H27.7ZM33.1,309.3V318.16M33.1,289.3V255.18M30.4,318.16H35.81M30.4,255.18H35.81" style="vector-effect: non-scaling-stroke; stroke-width: 2px; stroke: rgb(99, 110, 250); stroke-opacity: 1; fill: rgb(99, 110, 250); fill-opacity: 0.5;"/><path class="box" d="M49.77,307.01H60.58M49.77,313.9H60.58V296.18H49.77ZM55.17,313.9V319.47M55.17,296.18V281.42M52.47,319.47H57.88M52.47,281.42H57.88" style="vector-effect: non-scaling-stroke; stroke-width: 2px; stroke: rgb(99, 110, 250); stroke-opacity: 1; fill: rgb(99, 110, 250); fill-opacity: 0.5;"/><path class="box" d="M71.83,314.88H82.65M71.83,316.19H82.65V311.93H71.83ZM77.24,316.19V322.75M77.24,311.93V305.7M74.54,322.75H79.94M74.54,305.7H79.94" style="vector-effect: non-scaling-stroke; stroke-width: 2px; stroke: rgb(99, 110, 250); stroke-opacity: 1; fill: rgb(99, 110, 250); fill-opacity: 0.5;"/><path class="box" d="M93.9,310.29H104.72M93.9,314.55H104.72V305.37H93.9ZM99.31,314.55V321.44M99.31,305.37V293.23M96.61,321.44H102.01M96.61,293.23H102.01" style="vector-effect: non-scaling-stroke; stroke-width: 2px; stroke: rgb(99, 110, 250); stroke-opacity: 1; fill: rgb(99, 110, 250); fill-opacity: 0.5;"/><path class="box" d="M115.97,325.06H126.79M115.97,326.03H126.79V324.06H115.97ZM121.38,326.03V327.34M121.38,324.06V320.78M118.68,327.34H124.08M118.68,320.78H124.08" style="vector-effect: non-scaling-stroke; stroke-width: 2px; stroke: rgb(99, 110, 250); stroke-opacity: 1; fill: rgb(99, 110, 250); fill-opacity: 0.5;"/><path class="box" d="M138.04,324.06H148.86M138.04,324.72H148.86V323.08H138.04ZM143.45,324.72V327.34M143.45,323.08V316.19M140.74,327.34H146.15M140.74,316.19H146.15" style="vector-effect: non-scaling-stroke; stroke-width: 2px; stroke: rgb(99, 110, 250); stroke-opacity: 1; fill: rgb(99, 110, 250); fill-opacity: 0.5;"/><path class="box" d="M160.11,324.24H170.92M160.11,326.03H170.92V323.24H160.11ZM165.52,326.03V327.34M165.52,323.24V318.16M162.81,327.34H168.22M162.81,318.16H168.22" style="vector-effect: non-scaling-stroke; stroke-width: 2px; stroke: rgb(99, 110, 250); stroke-opacity: 1; fill: rgb(99, 110, 250); fill-opacity: 0.5;"/><path class="box" d="M182.18,325.06H192.99M182.18,326.03H192.99V324.06H182.18ZM187.59,326.03V327.34M187.59,324.06V320.13M184.88,327.34H190.29M184.88,320.13H190.29" style="vector-effect: non-scaling-stroke; stroke-width: 2px; stroke: rgb(99, 110, 250); stroke-opacity: 1; fill: rgb(99, 110, 250); fill-opacity: 0.5;"/><path class="box" d="M204.25,323.1H215.06M204.25,324.72H215.06V322.1H204.25ZM209.66,324.72V327.34M209.66,322.1V319.47M206.95,327.34H212.36M206.95,319.47H212.36" style="vector-effect: non-scaling-stroke; stroke-width: 2px; stroke: rgb(99, 110, 250); stroke-opacity: 1; fill: rgb(99, 110, 250); fill-opacity: 0.5;"/><path class="box" d="M226.32,326.69H237.13M226.32,327.34H237.13V326.52H226.32ZM231.72,327.34V327.34M231.72,326.52V324.72M229.02,327.34H234.43M229.02,324.72H234.43" style="vector-effect: non-scaling-stroke; stroke-width: 2px; stroke: rgb(99, 110, 250); stroke-opacity: 1; fill: rgb(99, 110, 250); fill-opacity: 0.5;"/><path class="box" d="M248.39,324.72H259.2M248.39,326.03H259.2V322.59H248.39ZM253.79,326.03V327.34M253.79,322.59V317.5M251.09,327.34H256.5M251.09,317.5H256.5" style="vector-effect: non-scaling-stroke; stroke-width: 2px; stroke: rgb(99, 110, 250); stroke-opacity: 1; fill: rgb(99, 110, 250); fill-opacity: 0.5;"/><path class="box" d="M270.46,326.69H281.27M270.46,326.69H281.27V326.03H270.46ZM275.86,326.69V327.34M275.86,326.03V324.72M273.16,327.34H278.57M273.16,324.72H278.57" style="vector-effect: non-scaling-stroke; stroke-width: 2px; stroke: rgb(99, 110, 250); stroke-opacity: 1; fill: rgb(99, 110, 250); fill-opacity: 0.5;"/><path class="box" d="M292.52,326.69H303.34M292.52,327.34H303.34V326.03H292.52ZM297.93,327.34V327.34M297.93,326.03V320.78M295.23,327.34H300.63M295.23,320.78H300.63" style="vector-effect: non-scaling-stroke; stroke-width: 2px; stroke: rgb(99, 110, 250); stroke-opacity: 1; fill: rgb(99, 110, 250); fill-opacity: 0.5;"/><path class="box" d="M314.59,326.38H325.41M314.59,326.85H325.41V325.38H314.59ZM320,326.85V327.34M320,325.38V322.75M317.3,327.34H322.7M317.3,322.75H322.7" style="vector-effect: non-scaling-stroke; stroke-width: 2px; stroke: rgb(99, 110, 250); stroke-opacity: 1; fill: rgb(99, 110, 250); fill-opacity: 0.5;"/><path class="box" d="M336.66,326.69H347.48M336.66,327.34H347.48V326.03H336.66ZM342.07,327.34V327.34M342.07,326.03V324.72M339.37,327.34H344.77M339.37,324.72H344.77" style="vector-effect: non-scaling-stroke; stroke-width: 2px; stroke: rgb(99, 110, 250); stroke-opacity: 1; fill: rgb(99, 110, 250); fill-opacity: 0.5;"/><path class="box" d="M358.73,326.36H369.54M358.73,326.69H369.54V325.38H358.73ZM364.14,326.69V327.34M364.14,325.38V322.1M361.43,327.34H366.84M361.43,322.1H366.84" style="vector-effect: non-scaling-stroke; stroke-width: 2px; stroke: rgb(99, 110, 250); stroke-opacity: 1; fill: rgb(99, 110, 250); fill-opacity: 0.5;"/><path class="box" d="M380.8,325.03H391.61M380.8,326.03H391.61V324.06H380.8ZM386.21,326.03V327.34M386.21,324.06V321.44M383.5,327.34H388.91M383.5,321.44H388.91" style="vector-effect: non-scaling-stroke; stroke-width: 2px; stroke: rgb(99, 110, 250); stroke-opacity: 1; fill: rgb(99, 110, 250); fill-opacity: 0.5;"/><path class="box" d="M402.87,326.03H413.68M402.87,326.69H413.68V325.38H402.87ZM408.28,326.69V327.34M408.28,325.38V322.1M405.57,327.34H410.98M405.57,322.1H410.98" style="vector-effect: non-scaling-stroke; stroke-width: 2px; stroke: rgb(99, 110, 250); stroke-opacity: 1; fill: rgb(99, 110, 250); fill-opacity: 0.5;"/><path class="box" d="M424.94,326.38H435.75M424.94,327.34H435.75V325.38H424.94ZM430.34,327.34V327.34M430.34,325.38V318.82M427.64,327.34H433.05M427.64,318.82H433.05" style="vector-effect: non-scaling-stroke; stroke-width: 2px; stroke: rgb(99, 110, 250); stroke-opacity: 1; fill: rgb(99, 110, 250); fill-opacity: 0.5;"/><path class="box" d="M447.01,312.26H457.82M447.01,321.44H457.82V272.73H447.01ZM452.41,321.44V327.34M452.41,272.73V178.43M449.71,327.34H455.12M449.71,178.43H455.12" style="vector-effect: non-scaling-stroke; stroke-width: 2px; stroke: rgb(99, 110, 250); stroke-opacity: 1; fill: rgb(99, 110, 250); fill-opacity: 0.5;"/><path class="box" d="M469.08,326.03H479.89M469.08,327.34H479.89V324.72H469.08ZM474.48,327.34V327.34M474.48,324.72V323.41M471.78,327.34H477.19M471.78,323.41H477.19" style="vector-effect: non-scaling-stroke; stroke-width: 2px; stroke: rgb(99, 110, 250); stroke-opacity: 1; fill: rgb(99, 110, 250); fill-opacity: 0.5;"/><path class="box" d="M491.14,326.69H501.96M491.14,327.34H501.96V326.69H491.14ZM496.55,327.34V327.34M496.55,326.69V322.1M493.85,327.34H499.26M493.85,322.1H499.26" style="vector-effect: non-scaling-stroke; stroke-width: 2px; stroke: rgb(99, 110, 250); stroke-opacity: 1; fill: rgb(99, 110, 250); fill-opacity: 0.5;"/><path class="box" d="M513.21,325.69H524.03M513.21,326.69H524.03V323.41H513.21ZM518.62,326.69V327.34M518.62,323.41V320.13M515.92,327.34H521.32M515.92,320.13H521.32" style="vector-effect: non-scaling-stroke; stroke-width: 2px; stroke: rgb(99, 110, 250); stroke-opacity: 1; fill: rgb(99, 110, 250); fill-opacity: 0.5;"/><path class="box" d="M535.28,326.69H546.1M535.28,327.34H546.1V326.03H535.28ZM540.69,327.34V327.34M540.69,326.03V326.03M537.99,327.34H543.39M537.99,326.03H543.39" style="vector-effect: non-scaling-stroke; stroke-width: 2px; stroke: rgb(99, 110, 250); stroke-opacity: 1; fill: rgb(99, 110, 250); fill-opacity: 0.5;"/><path class="box" d="M557.35,324.39H568.17M557.35,325.7H568.17V322.1H557.35ZM562.76,325.7V326.69M562.76,322.1V320.13M560.06,326.69H565.46M560.06,320.13H565.46" style="vector-effect: non-scaling-stroke; stroke-width: 2px; stroke: rgb(99, 110, 250); stroke-opacity: 1; fill: rgb(99, 110, 250); fill-opacity: 0.5;"/><path class="box" d="M579.42,327.02H590.23M579.42,327.34H590.23V326.69H579.42ZM584.83,327.34V327.34M584.83,326.69V326.69M582.12,327.34H587.53M582.12,326.69H587.53" style="vector-effect: non-scaling-stroke; stroke-width: 2px; stroke: rgb(99, 110, 250); stroke-opacity: 1; fill: rgb(99, 110, 250); fill-opacity: 0.5;"/><path class="box" d="M601.49,325.38H612.3M601.49,326.03H612.3V324.72H601.49ZM606.9,326.03V326.03M606.9,324.72V323.41M604.19,326.03H609.6M604.19,323.41H609.6" style="vector-effect: non-scaling-stroke; stroke-width: 2px; stroke: rgb(99, 110, 250); stroke-opacity: 1; fill: rgb(99, 110, 250); fill-opacity: 0.5;"/><path class="box" d="M623.56,326.03H634.37M623.56,326.03H634.37V326.03H623.56ZM628.97,326.03V326.03M628.97,326.03V326.03M626.26,326.03H631.67M626.26,326.03H631.67" style="vector-effect: non-scaling-stroke; stroke-width: 2px; stroke: rgb(99, 110, 250); stroke-opacity: 1; fill: rgb(99, 110, 250); fill-opacity: 0.5;"/></g></g></g><g class="overplot"/><path class="xlines-above crisp" d="M0,0" style="fill: none;"/><path class="ylines-above crisp" d="M0,0" style="fill: none;"/><g class="overlines-above"/><g class="xaxislayer-above"><g class="xtick"><text text-anchor="start" x="0" y="441" transform="translate(91.03,0) rotate(90,0,435)" style="font-family: 'Open Sans', verdana, arial, sans-serif; font-size: 12px; fill: rgb(42, 63, 95); fill-opacity: 1; white-space: pre;">United States</text></g><g class="xtick"><text text-anchor="start" x="0" y="441" transform="translate(113.1,0) rotate(90,0,435)" style="font-family: 'Open Sans', verdana, arial, sans-serif; font-size: 12px; fill: rgb(42, 63, 95); fill-opacity: 1; white-space: pre;">Japan</text></g><g class="xtick"><text text-anchor="start" x="0" y="441" transform="translate(135.17000000000002,0) rotate(90,0,435)" style="font-family: 'Open Sans', verdana, arial, sans-serif; font-size: 12px; fill: rgb(42, 63, 95); fill-opacity: 1; white-space: pre;">Germany</text></g><g class="xtick"><text text-anchor="start" x="0" y="441" transform="translate(157.24,0) rotate(90,0,435)" style="font-family: 'Open Sans', verdana, arial, sans-serif; font-size: 12px; fill: rgb(42, 63, 95); fill-opacity: 1; white-space: pre;">France</text></g><g class="xtick"><text text-anchor="start" x="0" y="441" transform="translate(179.31,0) rotate(90,0,435)" style="font-family: 'Open Sans', verdana, arial, sans-serif; font-size: 12px; fill: rgb(42, 63, 95); fill-opacity: 1; white-space: pre;">United Kingdom</text></g><g class="xtick"><text text-anchor="start" x="0" y="441" transform="translate(201.38,0) rotate(90,0,435)" style="font-family: 'Open Sans', verdana, arial, sans-serif; font-size: 12px; fill: rgb(42, 63, 95); fill-opacity: 1; white-space: pre;">Australia</text></g><g class="xtick"><text text-anchor="start" x="0" y="441" transform="translate(223.45,0) rotate(90,0,435)" style="font-family: 'Open Sans', verdana, arial, sans-serif; font-size: 12px; fill: rgb(42, 63, 95); fill-opacity: 1; white-space: pre;">Italy</text></g><g class="xtick"><text text-anchor="start" x="0" y="441" transform="translate(245.52,0) rotate(90,0,435)" style="font-family: 'Open Sans', verdana, arial, sans-serif; font-size: 12px; fill: rgb(42, 63, 95); fill-opacity: 1; white-space: pre;">Netherlands</text></g><g class="xtick"><text text-anchor="start" x="0" y="441" transform="translate(267.59000000000003,0) rotate(90,0,435)" style="font-family: 'Open Sans', verdana, arial, sans-serif; font-size: 12px; fill: rgb(42, 63, 95); fill-opacity: 1; white-space: pre;">Switzerland</text></g><g class="xtick"><text text-anchor="start" x="0" y="441" transform="translate(289.65999999999997,0) rotate(90,0,435)" style="font-family: 'Open Sans', verdana, arial, sans-serif; font-size: 12px; fill: rgb(42, 63, 95); fill-opacity: 1; white-space: pre;">Canada</text></g><g class="xtick"><text text-anchor="start" x="0" y="441" transform="translate(311.72,0) rotate(90,0,435)" style="font-family: 'Open Sans', verdana, arial, sans-serif; font-size: 12px; fill: rgb(42, 63, 95); fill-opacity: 1; white-space: pre;">Denmark</text></g><g class="xtick"><text text-anchor="start" x="0" y="441" transform="translate(333.78999999999996,0) rotate(90,0,435)" style="font-family: 'Open Sans', verdana, arial, sans-serif; font-size: 12px; fill: rgb(42, 63, 95); fill-opacity: 1; white-space: pre;">Korea, South</text></g><g class="xtick"><text text-anchor="start" x="0" y="441" transform="translate(355.86,0) rotate(90,0,435)" style="font-family: 'Open Sans', verdana, arial, sans-serif; font-size: 12px; fill: rgb(42, 63, 95); fill-opacity: 1; white-space: pre;">Norway</text></g><g class="xtick"><text text-anchor="start" x="0" y="441" transform="translate(377.93,0) rotate(90,0,435)" style="font-family: 'Open Sans', verdana, arial, sans-serif; font-size: 12px; fill: rgb(42, 63, 95); fill-opacity: 1; white-space: pre;">Taiwan</text></g><g class="xtick"><text text-anchor="start" x="0" y="441" transform="translate(400,0) rotate(90,0,435)" style="font-family: 'Open Sans', verdana, arial, sans-serif; font-size: 12px; fill: rgb(42, 63, 95); fill-opacity: 1; white-space: pre;">Brazil</text></g><g class="xtick"><text text-anchor="start" x="0" y="441" transform="translate(422.07,0) rotate(90,0,435)" style="font-family: 'Open Sans', verdana, arial, sans-serif; font-size: 12px; fill: rgb(42, 63, 95); fill-opacity: 1; white-space: pre;">Finland</text></g><g class="xtick"><text text-anchor="start" x="0" y="441" transform="translate(444.14,0) rotate(90,0,435)" style="font-family: 'Open Sans', verdana, arial, sans-serif; font-size: 12px; fill: rgb(42, 63, 95); fill-opacity: 1; white-space: pre;">Spain</text></g><g class="xtick"><text text-anchor="start" x="0" y="441" transform="translate(466.21,0) rotate(90,0,435)" style="font-family: 'Open Sans', verdana, arial, sans-serif; font-size: 12px; fill: rgb(42, 63, 95); fill-opacity: 1; white-space: pre;">Sweden</text></g><g class="xtick"><text text-anchor="start" x="0" y="441" transform="translate(488.28,0) rotate(90,0,435)" style="font-family: 'Open Sans', verdana, arial, sans-serif; font-size: 12px; fill: rgb(42, 63, 95); fill-opacity: 1; white-space: pre;">Saudia Arabia</text></g><g class="xtick"><text text-anchor="start" x="0" y="441" transform="translate(510.34,0) rotate(90,0,435)" style="font-family: 'Open Sans', verdana, arial, sans-serif; font-size: 12px; fill: rgb(42, 63, 95); fill-opacity: 1; white-space: pre;">Ireland</text></g><g class="xtick"><text text-anchor="start" x="0" y="441" transform="translate(532.4100000000001,0) rotate(90,0,435)" style="font-family: 'Open Sans', verdana, arial, sans-serif; font-size: 12px; fill: rgb(42, 63, 95); fill-opacity: 1; white-space: pre;">China</text></g><g class="xtick"><text text-anchor="start" x="0" y="441" transform="translate(554.48,0) rotate(90,0,435)" style="font-family: 'Open Sans', verdana, arial, sans-serif; font-size: 12px; fill: rgb(42, 63, 95); fill-opacity: 1; white-space: pre;">Poland</text></g><g class="xtick"><text text-anchor="start" x="0" y="441" transform="translate(576.55,0) rotate(90,0,435)" style="font-family: 'Open Sans', verdana, arial, sans-serif; font-size: 12px; fill: rgb(42, 63, 95); fill-opacity: 1; white-space: pre;">Israel</text></g><g class="xtick"><text text-anchor="start" x="0" y="441" transform="translate(598.62,0) rotate(90,0,435)" style="font-family: 'Open Sans', verdana, arial, sans-serif; font-size: 12px; fill: rgb(42, 63, 95); fill-opacity: 1; white-space: pre;">Russia</text></g><g class="xtick"><text text-anchor="start" x="0" y="441" transform="translate(620.69,0) rotate(90,0,435)" style="font-family: 'Open Sans', verdana, arial, sans-serif; font-size: 12px; fill: rgb(42, 63, 95); fill-opacity: 1; white-space: pre;">Thailand</text></g><g class="xtick"><text text-anchor="start" x="0" y="441" transform="translate(642.76,0) rotate(90,0,435)" style="font-family: 'Open Sans', verdana, arial, sans-serif; font-size: 12px; fill: rgb(42, 63, 95); fill-opacity: 1; white-space: pre;">India</text></g><g class="xtick"><text text-anchor="start" x="0" y="441" transform="translate(664.83,0) rotate(90,0,435)" style="font-family: 'Open Sans', verdana, arial, sans-serif; font-size: 12px; fill: rgb(42, 63, 95); fill-opacity: 1; white-space: pre;">United Arab Emirates</text></g><g class="xtick"><text text-anchor="start" x="0" y="441" transform="translate(686.9,0) rotate(90,0,435)" style="font-family: 'Open Sans', verdana, arial, sans-serif; font-size: 12px; fill: rgb(42, 63, 95); fill-opacity: 1; white-space: pre;">Saudi Arabia</text></g><g class="xtick"><text text-anchor="start" x="0" y="441" transform="translate(708.97,0) rotate(90,0,435)" style="font-family: 'Open Sans', verdana, arial, sans-serif; font-size: 12px; fill: rgb(42, 63, 95); fill-opacity: 1; white-space: pre;">South Korea</text></g></g><g class="yaxislayer-above"><g class="ytick"><text text-anchor="end" x="79" y="4.199999999999999" transform="translate(0,428)" style="font-family: 'Open Sans', verdana, arial, sans-serif; font-size: 12px; fill: rgb(42, 63, 95); fill-opacity: 1; white-space: pre;">0</text></g><g class="ytick"><text text-anchor="end" x="79" y="4.199999999999999" transform="translate(0,362.4)" style="font-family: 'Open Sans', verdana, arial, sans-serif; font-size: 12px; fill: rgb(42, 63, 95); fill-opacity: 1; white-space: pre;">100</text></g><g class="ytick"><text text-anchor="end" x="79" y="4.199999999999999" transform="translate(0,296.8)" style="font-family: 'Open Sans', verdana, arial, sans-serif; font-size: 12px; fill: rgb(42, 63, 95); fill-opacity: 1; white-space: pre;">200</text></g><g class="ytick"><text text-anchor="end" x="79" y="4.199999999999999" transform="translate(0,231.2)" style="font-family: 'Open Sans', verdana, arial, sans-serif; font-size: 12px; fill: rgb(42, 63, 95); fill-opacity: 1; white-space: pre;">300</text></g><g class="ytick"><text text-anchor="end" x="79" y="4.199999999999999" transform="translate(0,165.6)" style="font-family: 'Open Sans', verdana, arial, sans-serif; font-size: 12px; fill: rgb(42, 63, 95); fill-opacity: 1; white-space: pre;">400</text></g><g class="ytick"><text text-anchor="end" x="79" y="4.199999999999999" transform="translate(0,100)" style="font-family: 'Open Sans', verdana, arial, sans-serif; font-size: 12px; fill: rgb(42, 63, 95); fill-opacity: 1; white-space: pre;">500</text></g></g><g class="overaxes-above"/></g></g><g class="polarlayer"/><g class="ternarylayer"/><g class="geolayer"/><g class="funnelarealayer"/><g class="pielayer"/><g class="treemaplayer"/><g class="sunburstlayer"/><g class="glimages"/><defs id="topdefs-53fc2b"><g class="clips"/></defs><g class="layer-above"><g class="imagelayer"/><g class="shapelayer"/></g><g class="infolayer"><g class="g-gtitle"><text class="gtitle" x="40" y="50" text-anchor="start" dy="0em" style="font-family: 'Open Sans', verdana, arial, sans-serif; font-size: 17px; fill: rgb(42, 63, 95); opacity: 1; font-weight: normal; white-space: pre;">Ocorrências no Top500</text></g><g class="g-xtitle"><text class="xtitle" x="400" y="587.8625" text-anchor="middle" style="font-family: 'Open Sans', verdana, arial, sans-serif; font-size: 14px; fill: rgb(42, 63, 95); opacity: 1; font-weight: normal; white-space: pre;">Países</text></g><g class="g-ytitle"><text class="ytitle" transform="rotate(-90,31.309375000000003,264)" x="31.309375000000003" y="264" text-anchor="middle" style="font-family: 'Open Sans', verdana, arial, sans-serif; font-size: 14px; fill: rgb(42, 63, 95); opacity: 1; font-weight: normal; white-space: pre;">Ocorrências</text></g></g></svg>