<svg class="main-svg" xmlns="http://www.w3.org/2000/svg" xmlns:xlink="http://www.w3.org/1999/xlink" width="700" height="500" style="" viewBox="0 0 700 500"><rect x="0" y="0" width="700" height="500" style="fill: rgb(255, 255, 255); fill-opacity: 1;"/><defs id="defs-3e4f32"><g class="clips"><clipPath id="clip3e4f32xyplot" class="plotclip"><rect width="540" height="268"/></clipPath><clipPath class="axesclip" id="clip3e4f32x"><rect x="80" y="0" width="540" height="500"/></clipPath><clipPath class="axesclip" id="clip3e4f32y"><rect x="0" y="60" width="700" height="268"/></clipPath><clipPath class="axesclip" id="clip3e4f32xy"><rect x="80" y="60" width="540" height="268"/></clipPath></g><g class="gradients"/></defs><g class="bglayer"><rect class="bg" x="80" y="60" width="540" height="268" style="fill: rgb(229, 236, 246); fill-opacity: 1; stroke-width: 0;"/></g><g class="layer-below"><g class="imagelayer"/><g class="shapelayer"/></g><g class="cartesianlayer"><g class="subplot xy"><g class="layer-subplot"><g class="shapelayer"/><g class="imagelayer"/></g><g class="gridlayer"><g class="x"/><g class="y"><path class="ygrid crisp" transform="translate(0,276.23)" d="M80,0h540" style="stroke: rgb(255, 255, 255); stroke-opacity: 1; stroke-width: 1px;"/><path class="ygrid crisp" transform="translate(0,237.07)" d="M80,0h540" style="stroke: rgb(255, 255, 255); stroke-opacity: 1; stroke-width: 1px;"/><path class="ygrid crisp" transform="translate(0,197.92)" d="M80,0h540" style="stroke: rgb(255, 255, 255); stroke-opacity: 1; stroke-width: 1px;"/><path class="ygrid crisp" transform="translate(0,158.76)" d="M80,0h540" style="stroke: rgb(255, 255, 255); stroke-opacity: 1; stroke-width: 1px;"/><path class="ygrid crisp" transform="translate(0,119.6)" d="M80,0h540" style="stroke: rgb(255, 255, 255); stroke-opacity: 1; stroke-width: 1px;"/><path class="ygrid crisp" transform="translate(0,80.45)" d="M80,0h540" style="stroke: rgb(255, 255, 255); stroke-opacity: 1; stroke-width: 1px;"/></g></g><g class="zerolinelayer"><path class="yzl zl crisp" transform="translate(0,315.38)" d="M80,0h540" style="stroke: rgb(255, 255, 255); stroke-opacity: 1; stroke-width: 2px;"/></g><path class="xlines-below"/><path class="ylines-below"/><g class="overlines-below"/><g class="xaxislayer-below"/><g class="yaxislayer-below"/><g class="overaxes-below"/><g class="plot" transform="translate(80,60)" clip-path="url('#clip3e4f32xyplot')"><g class="boxlayer mlayer"><g class="trace boxes" style="opacity: 1;"><path class="box" d="M4.75,56.47H13.87M4.75,76.05H13.87V40.81H4.75ZM9.31,76.05V170.02M9.31,40.81V13.4M7.03,170.02H11.59M7.03,13.4H11.59" style="vector-effect: non-scaling-stroke; stroke-width: 2px; stroke: rgb(99, 110, 250); stroke-opacity: 1; fill: rgb(99, 110, 250); fill-opacity: 0.5;"/><path class="box" d="M23.37,229.15H32.49M23.37,233.06H32.49V209.18H23.37ZM27.93,233.06V243.64M27.93,209.18V168.46M25.65,243.64H30.21M25.65,168.46H30.21" style="vector-effect: non-scaling-stroke; stroke-width: 2px; stroke: rgb(99, 110, 250); stroke-opacity: 1; fill: rgb(99, 110, 250); fill-opacity: 0.5;"/><path class="box" d="M41.99,230.32H51.11M41.99,238.55H51.11V217.4H41.99ZM46.55,238.55V245.2M46.55,217.4V199.78M44.27,245.2H48.83M44.27,199.78H48.83" style="vector-effect: non-scaling-stroke; stroke-width: 2px; stroke: rgb(99, 110, 250); stroke-opacity: 1; fill: rgb(99, 110, 250); fill-opacity: 0.5;"/><path class="box" d="M60.61,239.72H69.73M60.61,241.29H69.73V236.2H60.61ZM65.17,241.29V249.12M65.17,236.2V228.76M62.89,249.12H67.45M62.89,228.76H67.45" style="vector-effect: non-scaling-stroke; stroke-width: 2px; stroke: rgb(99, 110, 250); stroke-opacity: 1; fill: rgb(99, 110, 250); fill-opacity: 0.5;"/><path class="box" d="M79.23,234.24H88.36M79.23,239.33H88.36V228.37H79.23ZM83.79,239.33V247.55M83.79,228.37V213.88M81.51,247.55H86.07M81.51,213.88H86.07" style="vector-effect: non-scaling-stroke; stroke-width: 2px; stroke: rgb(99, 110, 250); stroke-opacity: 1; fill: rgb(99, 110, 250); fill-opacity: 0.5;"/><path class="box" d="M97.85,252.03H106.98M97.85,253.03H106.98V250.68H97.85ZM102.41,253.03V254.6M102.41,250.68V246.77M100.13,254.6H104.69M100.13,246.77H104.69" style="vector-effect: non-scaling-stroke; stroke-width: 2px; stroke: rgb(99, 110, 250); stroke-opacity: 1; fill: rgb(99, 110, 250); fill-opacity: 0.5;"/><path class="box" d="M116.47,250.51H125.6M116.47,251.47H125.6V249.51H116.47ZM121.03,251.47V254.6M121.03,249.51V241.29M118.75,254.6H123.32M118.75,241.29H123.32" style="vector-effect: non-scaling-stroke; stroke-width: 2px; stroke: rgb(99, 110, 250); stroke-opacity: 1; fill: rgb(99, 110, 250); fill-opacity: 0.5;"/><path class="box" d="M135.09,250.71H144.22M135.09,253.03H144.22V249.71H135.09ZM139.66,253.03V254.6M139.66,249.71V243.64M137.37,254.6H141.94M137.37,243.64H141.94" style="vector-effect: non-scaling-stroke; stroke-width: 2px; stroke: rgb(99, 110, 250); stroke-opacity: 1; fill: rgb(99, 110, 250); fill-opacity: 0.5;"/><path class="box" d="M153.71,252.03H162.84M153.71,253.03H162.84V250.68H153.71ZM158.28,253.03V254.6M158.28,250.68V245.99M155.99,254.6H160.56M155.99,245.99H160.56" style="vector-effect: non-scaling-stroke; stroke-width: 2px; stroke: rgb(99, 110, 250); stroke-opacity: 1; fill: rgb(99, 110, 250); fill-opacity: 0.5;"/><path class="box" d="M172.33,249.51H181.46M172.33,251.47H181.46V248.34H172.33ZM176.9,251.47V254.6M176.9,248.34V245.2M174.62,254.6H179.18M174.62,245.2H179.18" style="vector-effect: non-scaling-stroke; stroke-width: 2px; stroke: rgb(99, 110, 250); stroke-opacity: 1; fill: rgb(99, 110, 250); fill-opacity: 0.5;"/><path class="box" d="M190.96,253.82H200.08M190.96,254.6H200.08V253.62H190.96ZM195.52,254.6V254.6M195.52,253.62V251.47M193.24,254.6H197.8M193.24,251.47H197.8" style="vector-effect: non-scaling-stroke; stroke-width: 2px; stroke: rgb(99, 110, 250); stroke-opacity: 1; fill: rgb(99, 110, 250); fill-opacity: 0.5;"/><path class="box" d="M209.58,251.47H218.7M209.58,253.03H218.7V248.92H209.58ZM214.14,253.03V254.6M214.14,248.92V242.85M211.86,254.6H216.42M211.86,242.85H216.42" style="vector-effect: non-scaling-stroke; stroke-width: 2px; stroke: rgb(99, 110, 250); stroke-opacity: 1; fill: rgb(99, 110, 250); fill-opacity: 0.5;"/><path class="box" d="M228.2,253.82H237.32M228.2,253.82H237.32V253.03H228.2ZM232.76,253.82V254.6M232.76,253.03V251.47M230.48,254.6H235.04M230.48,251.47H235.04" style="vector-effect: non-scaling-stroke; stroke-width: 2px; stroke: rgb(99, 110, 250); stroke-opacity: 1; fill: rgb(99, 110, 250); fill-opacity: 0.5;"/><path class="box" d="M246.82,253.82H255.94M246.82,254.6H255.94V253.03H246.82ZM251.38,254.6V254.6M251.38,253.03V246.77M249.1,254.6H253.66M249.1,246.77H253.66" style="vector-effect: non-scaling-stroke; stroke-width: 2px; stroke: rgb(99, 110, 250); stroke-opacity: 1; fill: rgb(99, 110, 250); fill-opacity: 0.5;"/><path class="box" d="M265.44,253.25H274.56M265.44,254.01H274.56V252.25H265.44ZM270,254.01V254.6M270,252.25V249.12M267.72,254.6H272.28M267.72,249.12H272.28" style="vector-effect: non-scaling-stroke; stroke-width: 2px; stroke: rgb(99, 110, 250); stroke-opacity: 1; fill: rgb(99, 110, 250); fill-opacity: 0.5;"/><path class="box" d="M284.06,253.82H293.18M284.06,254.6H293.18V253.03H284.06ZM288.62,254.6V254.6M288.62,253.03V251.47M286.34,254.6H290.9M286.34,251.47H290.9" style="vector-effect: non-scaling-stroke; stroke-width: 2px; stroke: rgb(99, 110, 250); stroke-opacity: 1; fill: rgb(99, 110, 250); fill-opacity: 0.5;"/><path class="box" d="M302.68,253.25H311.8M302.68,253.82H311.8V252.25H302.68ZM307.24,253.82V254.6M307.24,252.25V248.34M304.96,254.6H309.52M304.96,248.34H309.52" style="vector-effect: non-scaling-stroke; stroke-width: 2px; stroke: rgb(99, 110, 250); stroke-opacity: 1; fill: rgb(99, 110, 250); fill-opacity: 0.5;"/><path class="box" d="M321.3,251.68H330.42M321.3,253.03H330.42V250.68H321.3ZM325.86,253.03V254.6M325.86,250.68V247.55M323.58,254.6H328.14M323.58,247.55H328.14" style="vector-effect: non-scaling-stroke; stroke-width: 2px; stroke: rgb(99, 110, 250); stroke-opacity: 1; fill: rgb(99, 110, 250); fill-opacity: 0.5;"/><path class="box" d="M339.92,253.03H349.04M339.92,253.82H349.04V252.25H339.92ZM344.48,253.82V254.6M344.48,252.25V248.34M342.2,254.6H346.76M342.2,248.34H346.76" style="vector-effect: non-scaling-stroke; stroke-width: 2px; stroke: rgb(99, 110, 250); stroke-opacity: 1; fill: rgb(99, 110, 250); fill-opacity: 0.5;"/><path class="box" d="M358.54,253.6H367.67M358.54,254.6H367.67V252.25H358.54ZM363.1,254.6V254.6M363.1,252.25V244.42M360.82,254.6H365.38M360.82,244.42H365.38" style="vector-effect: non-scaling-stroke; stroke-width: 2px; stroke: rgb(99, 110, 250); stroke-opacity: 1; fill: rgb(99, 110, 250); fill-opacity: 0.5;"/><path class="box" d="M377.16,236.59H386.29M377.16,247.55H386.29V189.41H377.16ZM381.72,247.55V254.6M381.72,189.41V76.83M379.44,254.6H384.01M379.44,76.83H384.01" style="vector-effect: non-scaling-stroke; stroke-width: 2px; stroke: rgb(99, 110, 250); stroke-opacity: 1; fill: rgb(99, 110, 250); fill-opacity: 0.5;"/><path class="box" d="M395.78,253.03H404.91M395.78,254.6H404.91V251.47H395.78ZM400.34,254.6V254.6M400.34,251.47V249.9M398.06,254.6H402.63M398.06,249.9H402.63" style="vector-effect: non-scaling-stroke; stroke-width: 2px; stroke: rgb(99, 110, 250); stroke-opacity: 1; fill: rgb(99, 110, 250); fill-opacity: 0.5;"/><path class="box" d="M414.4,253.82H423.53M414.4,254.6H423.53V253.82H414.4ZM418.97,254.6V254.6M418.97,253.82V248.34M416.68,254.6H421.25M416.68,248.34H421.25" style="vector-effect: non-scaling-stroke; stroke-width: 2px; stroke: rgb(99, 110, 250); stroke-opacity: 1; fill: rgb(99, 110, 250); fill-opacity: 0.5;"/><path class="box" d="M433.02,252.82H442.15M433.02,253.82H442.15V249.9H433.02ZM437.59,253.82V254.6M437.59,249.9V245.99M435.31,254.6H439.87M435.31,245.99H439.87" style="vector-effect: non-scaling-stroke; stroke-width: 2px; stroke: rgb(99, 110, 250); stroke-opacity: 1; fill: rgb(99, 110, 250); fill-opacity: 0.5;"/><path class="box" d="M451.64,253.82H460.77M451.64,254.6H460.77V253.03H451.64ZM456.21,254.6V254.6M456.21,253.03V253.03M453.93,254.6H458.49M453.93,253.03H458.49" style="vector-effect: non-scaling-stroke; stroke-width: 2px; stroke: rgb(99, 110, 250); stroke-opacity: 1; fill: rgb(99, 110, 250); fill-opacity: 0.5;"/><path class="box" d="M470.27,251.08H479.39M470.27,252.64H479.39V248.34H470.27ZM474.83,252.64V253.82M474.83,248.34V245.99M472.55,253.82H477.11M472.55,245.99H477.11" style="vector-effect: non-scaling-stroke; stroke-width: 2px; stroke: rgb(99, 110, 250); stroke-opacity: 1; fill: rgb(99, 110, 250); fill-opacity: 0.5;"/><path class="box" d="M488.89,254.21H498.01M488.89,254.6H498.01V253.82H488.89ZM493.45,254.6V254.6M493.45,253.82V253.82M491.17,254.6H495.73M491.17,253.82H495.73" style="vector-effect: non-scaling-stroke; stroke-width: 2px; stroke: rgb(99, 110, 250); stroke-opacity: 1; fill: rgb(99, 110, 250); fill-opacity: 0.5;"/><path class="box" d="M507.51,252.25H516.63M507.51,253.03H516.63V251.47H507.51ZM512.07,253.03V253.03M512.07,251.47V249.9M509.79,253.03H514.35M509.79,249.9H514.35" style="vector-effect: non-scaling-stroke; stroke-width: 2px; stroke: rgb(99, 110, 250); stroke-opacity: 1; fill: rgb(99, 110, 250); fill-opacity: 0.5;"/><path class="box" d="M526.13,253.03H535.25M526.13,253.03H535.25V253.03H526.13ZM530.69,253.03V253.03M530.69,253.03V253.03M528.41,253.03H532.97M528.41,253.03H532.97" style="vector-effect: non-scaling-stroke; stroke-width: 2px; stroke: rgb(99, 110, 250); stroke-opacity: 1; fill: rgb(99, 110, 250); fill-opacity: 0.5;"/></g></g></g><g class="overplot"/><path class="xlines-above crisp" d="M0,0" style="fill: none;"/><path class="ylines-above crisp" d="M0,0" style="fill: none;"/><g class="overlines-above"/><g class="xaxislayer-above"><g class="xtick"><text text-anchor="start" x="0" y="341" transform="translate(89.31,0) rotate(90,0,335)" style="font-family: 'Open Sans', verdana, arial, sans-serif; font-size: 12px; fill: rgb(42, 63, 95); fill-opacity: 1; white-space: pre;">United States</text></g><g class="xtick"><text text-anchor="start" x="0" y="341" transform="translate(107.93,0) rotate(90,0,335)" style="font-family: 'Open Sans', verdana, arial, sans-serif; font-size: 12px; fill: rgb(42, 63, 95); fill-opacity: 1; white-space: pre;">Japan</text></g><g class="xtick"><text text-anchor="start" x="0" y="341" transform="translate(126.55,0) rotate(90,0,335)" style="font-family: 'Open Sans', verdana, arial, sans-serif; font-size: 12px; fill: rgb(42, 63, 95); fill-opacity: 1; white-space: pre;">Germany</text></g><g class="xtick"><text text-anchor="start" x="0" y="341" transform="translate(145.17000000000002,0) rotate(90,0,335)" style="font-family: 'Open Sans', verdana, arial, sans-serif; font-size: 12px; fill: rgb(42, 63, 95); fill-opacity: 1; white-space: pre;">France</text></g><g class="xtick"><text text-anchor="start" x="0" y="341" transform="translate(163.79000000000002,0) rotate(90,0,335)" style="font-family: 'Open Sans', verdana, arial, sans-serif; font-size: 12px; fill: rgb(42, 63, 95); fill-opacity: 1; white-space: pre;">United Kingdom</text></g><g class="xtick"><text text-anchor="start" x="0" y="341" transform="translate(182.41,0) rotate(90,0,335)" style="font-family: 'Open Sans', verdana, arial, sans-serif; font-size: 12px; fill: rgb(42, 63, 95); fill-opacity: 1; white-space: pre;">Australia</text></g><g class="xtick"><text text-anchor="start" x="0" y="341" transform="translate(201.03,0) rotate(90,0,335)" style="font-family: 'Open Sans', verdana, arial, sans-serif; font-size: 12px; fill: rgb(42, 63, 95); fill-opacity: 1; white-space: pre;">Italy</text></g><g class="xtick"><text text-anchor="start" x="0" y="341" transform="translate(219.66,0) rotate(90,0,335)" style="font-family: 'Open Sans', verdana, arial, sans-serif; font-size: 12px; fill: rgb(42, 63, 95); fill-opacity: 1; white-space: pre;">Netherlands</text></g><g class="xtick"><text text-anchor="start" x="0" y="341" transform="translate(238.28,0) rotate(90,0,335)" style="font-family: 'Open Sans', verdana, arial, sans-serif; font-size: 12px; fill: rgb(42, 63, 95); fill-opacity: 1; white-space: pre;">Switzerland</text></g><g class="xtick"><text text-anchor="start" x="0" y="341" transform="translate(256.9,0) rotate(90,0,335)" style="font-family: 'Open Sans', verdana, arial, sans-serif; font-size: 12px; fill: rgb(42, 63, 95); fill-opacity: 1; white-space: pre;">Canada</text></g><g class="xtick"><text text-anchor="start" x="0" y="341" transform="translate(275.52,0) rotate(90,0,335)" style="font-family: 'Open Sans', verdana, arial, sans-serif; font-size: 12px; fill: rgb(42, 63, 95); fill-opacity: 1; white-space: pre;">Denmark</text></g><g class="xtick"><text text-anchor="start" x="0" y="341" transform="translate(294.14,0) rotate(90,0,335)" style="font-family: 'Open Sans', verdana, arial, sans-serif; font-size: 12px; fill: rgb(42, 63, 95); fill-opacity: 1; white-space: pre;">Korea, South</text></g><g class="xtick"><text text-anchor="start" x="0" y="341" transform="translate(312.76,0) rotate(90,0,335)" style="font-family: 'Open Sans', verdana, arial, sans-serif; font-size: 12px; fill: rgb(42, 63, 95); fill-opacity: 1; white-space: pre;">Norway</text></g><g class="xtick"><text text-anchor="start" x="0" y="341" transform="translate(331.38,0) rotate(90,0,335)" style="font-family: 'Open Sans', verdana, arial, sans-serif; font-size: 12px; fill: rgb(42, 63, 95); fill-opacity: 1; white-space: pre;">Taiwan</text></g><g class="xtick"><text text-anchor="start" x="0" y="341" transform="translate(350,0) rotate(90,0,335)" style="font-family: 'Open Sans', verdana, arial, sans-serif; font-size: 12px; fill: rgb(42, 63, 95); fill-opacity: 1; white-space: pre;">Brazil</text></g><g class="xtick"><text text-anchor="start" x="0" y="341" transform="translate(368.62,0) rotate(90,0,335)" style="font-family: 'Open Sans', verdana, arial, sans-serif; font-size: 12px; fill: rgb(42, 63, 95); fill-opacity: 1; white-space: pre;">Finland</text></g><g class="xtick"><text text-anchor="start" x="0" y="341" transform="translate(387.24,0) rotate(90,0,335)" style="font-family: 'Open Sans', verdana, arial, sans-serif; font-size: 12px; fill: rgb(42, 63, 95); fill-opacity: 1; white-space: pre;">Spain</text></g><g class="xtick"><text text-anchor="start" x="0" y="341" transform="translate(405.86,0) rotate(90,0,335)" style="font-family: 'Open Sans', verdana, arial, sans-serif; font-size: 12px; fill: rgb(42, 63, 95); fill-opacity: 1; white-space: pre;">Sweden</text></g><g class="xtick"><text text-anchor="start" x="0" y="341" transform="translate(424.48,0) rotate(90,0,335)" style="font-family: 'Open Sans', verdana, arial, sans-serif; font-size: 12px; fill: rgb(42, 63, 95); fill-opacity: 1; white-space: pre;">Saudia Arabia</text></g><g class="xtick"><text text-anchor="start" x="0" y="341" transform="translate(443.1,0) rotate(90,0,335)" style="font-family: 'Open Sans', verdana, arial, sans-serif; font-size: 12px; fill: rgb(42, 63, 95); fill-opacity: 1; white-space: pre;">Ireland</text></g><g class="xtick"><text text-anchor="start" x="0" y="341" transform="translate(461.72,0) rotate(90,0,335)" style="font-family: 'Open Sans', verdana, arial, sans-serif; font-size: 12px; fill: rgb(42, 63, 95); fill-opacity: 1; white-space: pre;">China</text></g><g class="xtick"><text text-anchor="start" x="0" y="341" transform="translate(480.34,0) rotate(90,0,335)" style="font-family: 'Open Sans', verdana, arial, sans-serif; font-size: 12px; fill: rgb(42, 63, 95); fill-opacity: 1; white-space: pre;">Poland</text></g><g class="xtick"><text text-anchor="start" x="0" y="341" transform="translate(498.97,0) rotate(90,0,335)" style="font-family: 'Open Sans', verdana, arial, sans-serif; font-size: 12px; fill: rgb(42, 63, 95); fill-opacity: 1; white-space: pre;">Israel</text></g><g class="xtick"><text text-anchor="start" x="0" y="341" transform="translate(517.5899999999999,0) rotate(90,0,335)" style="font-family: 'Open Sans', verdana, arial, sans-serif; font-size: 12px; fill: rgb(42, 63, 95); fill-opacity: 1; white-space: pre;">Russia</text></g><g class="xtick"><text text-anchor="start" x="0" y="341" transform="translate(536.21,0) rotate(90,0,335)" style="font-family: 'Open Sans', verdana, arial, sans-serif; font-size: 12px; fill: rgb(42, 63, 95); fill-opacity: 1; white-space: pre;">Thailand</text></g><g class="xtick"><text text-anchor="start" x="0" y="341" transform="translate(554.8299999999999,0) rotate(90,0,335)" style="font-family: 'Open Sans', verdana, arial, sans-serif; font-size: 12px; fill: rgb(42, 63, 95); fill-opacity: 1; white-space: pre;">India</text></g><g class="xtick"><text text-anchor="start" x="0" y="341" transform="translate(573.45,0) rotate(90,0,335)" style="font-family: 'Open Sans', verdana, arial, sans-serif; font-size: 12px; fill: rgb(42, 63, 95); fill-opacity: 1; white-space: pre;">United Arab Emirates</text></g><g class="xtick"><text text-anchor="start" x="0" y="341" transform="translate(592.07,0) rotate(90,0,335)" style="font-family: 'Open Sans', verdana, arial, sans-serif; font-size: 12px; fill: rgb(42, 63, 95); fill-opacity: 1; white-space: pre;">Saudi Arabia</text></g><g class="xtick"><text text-anchor="start" x="0" y="341" transform="translate(610.69,0) rotate(90,0,335)" style="font-family: 'Open Sans', verdana, arial, sans-serif; font-size: 12px; fill: rgb(42, 63, 95); fill-opacity: 1; white-space: pre;">South Korea</text></g></g><g class="yaxislayer-above"><g class="ytick"><text text-anchor="end" x="79" y="4.199999999999999" transform="translate(0,315.38)" style="font-family: 'Open Sans', verdana, arial, sans-serif; font-size: 12px; fill: rgb(42, 63, 95); fill-opacity: 1; white-space: pre;">0</text></g><g class="ytick"><text text-anchor="end" x="79" y="4.199999999999999" transform="translate(0,276.23)" style="font-family: 'Open Sans', verdana, arial, sans-serif; font-size: 12px; fill: rgb(42, 63, 95); fill-opacity: 1; white-space: pre;">50</text></g><g class="ytick"><text text-anchor="end" x="79" y="4.199999999999999" transform="translate(0,237.07)" style="font-family: 'Open Sans', verdana, arial, sans-serif; font-size: 12px; fill: rgb(42, 63, 95); fill-opacity: 1; white-space: pre;">100</text></g><g class="ytick"><text text-anchor="end" x="79" y="4.199999999999999" transform="translate(0,197.92)" style="font-family: 'Open Sans', verdana, arial, sans-serif; font-size: 12px; fill: rgb(42, 63, 95); fill-opacity: 1; white-space: pre;">150</text></g><g class="ytick"><text text-anchor="end" x="79" y="4.199999999999999" transform="translate(0,158.76)" style="font-family: 'Open Sans', verdana, arial, sans-serif; font-size: 12px; fill: rgb(42, 63, 95); fill-opacity: 1; white-space: pre;">200</text></g><g class="ytick"><text text-anchor="end" x="79" y="4.199999999999999" transform="translate(0,119.6)" style="font-family: 'Open Sans', verdana, arial, sans-serif; font-size: 12px; fill: rgb(42, 63, 95); fill-opacity: 1; white-space: pre;">250</text></g><g class="ytick"><text text-anchor="end" x="79" y="4.199999999999999" transform="translate(0,80.45)" style="font-family: 'Open Sans', verdana, arial, sans-serif; font-size: 12px; fill: rgb(42, 63, 95); fill-opacity: 1; white-space: pre;">300</text></g></g><g class="overaxes-above"/></g></g><g class="polarlayer"/><g class="ternarylayer"/><g class="geolayer"/><g class="funnelarealayer"/><g class="pielayer"/><g class="treemaplayer"/><g class="sunburstlayer"/><g class="glimages"/><defs id="topdefs-3e4f32"><g class="clips"/></defs><g class="layer-above"><g class="imagelayer"/><g class="shapelayer"/></g><g class="infolayer"><g class="g-gtitle"/><g class="g-xtitle"><text class="xtitle" x="350" y="487.8625" text-anchor="middle" style="font-family: 'Open Sans', verdana, arial, sans-serif; font-size: 14px; fill: rgb(42, 63, 95); opacity: 1; font-weight: normal; white-space: pre;">Country</text></g><g class="g-ytitle"><text class="ytitle" transform="rotate(-90,31.309375000000003,194)" x="31.309375000000003" y="194" text-anchor="middle" style="font-family: 'Open Sans', verdana, arial, sans-serif; font-size: 14px; fill: rgb(42, 63, 95); opacity: 1; font-weight: normal; white-space: pre;">Occurrences</text></g></g></svg>