<svg class="main-svg" xmlns="http://www.w3.org/2000/svg" xmlns:xlink="http://www.w3.org/1999/xlink" width="1200" height="1000" style="" viewBox="0 0 1200 1000"><rect x="0" y="0" width="1200" height="1000" style="fill: rgb(255, 255, 255); fill-opacity: 1;"/><defs id="defs-76fff1"><g class="clips"><clipPath id="clip76fff1xyplot" class="plotclip"><rect width="1040" height="784"/></clipPath><clipPath class="axesclip" id="clip76fff1x"><rect x="80" y="0" width="1040" height="1000"/></clipPath><clipPath class="axesclip" id="clip76fff1y"><rect x="0" y="100" width="1200" height="784"/></clipPath><clipPath class="axesclip" id="clip76fff1xy"><rect x="80" y="100" width="1040" height="784"/></clipPath></g><g class="gradients"/></defs><g class="bglayer"><rect class="bg" x="80" y="100" width="1040" height="784" style="fill: rgb(229, 236, 246); fill-opacity: 1; stroke-width: 0;"/></g><g class="layer-below"><g class="imagelayer"/><g class="shapelayer"/></g><g class="cartesianlayer"><g class="subplot xy"><g class="layer-subplot"><g class="shapelayer"/><g class="imagelayer"/></g><g class="gridlayer"><g class="x"/><g class="y"><path class="ygrid crisp" transform="translate(0,732.55)" d="M80,0h1040" style="stroke: rgb(255, 255, 255); stroke-opacity: 1; stroke-width: 1px;"/><path class="ygrid crisp" transform="translate(0,618)" d="M80,0h1040" style="stroke: rgb(255, 255, 255); stroke-opacity: 1; stroke-width: 1px;"/><path class="ygrid crisp" transform="translate(0,503.45)" d="M80,0h1040" style="stroke: rgb(255, 255, 255); stroke-opacity: 1; stroke-width: 1px;"/><path class="ygrid crisp" transform="translate(0,388.91)" d="M80,0h1040" style="stroke: rgb(255, 255, 255); stroke-opacity: 1; stroke-width: 1px;"/><path class="ygrid crisp" transform="translate(0,274.36)" d="M80,0h1040" style="stroke: rgb(255, 255, 255); stroke-opacity: 1; stroke-width: 1px;"/><path class="ygrid crisp" transform="translate(0,159.82)" d="M80,0h1040" style="stroke: rgb(255, 255, 255); stroke-opacity: 1; stroke-width: 1px;"/></g></g><g class="zerolinelayer"><path class="yzl zl crisp" transform="translate(0,847.09)" d="M80,0h1040" style="stroke: rgb(255, 255, 255); stroke-opacity: 1; stroke-width: 2px;"/></g><path class="xlines-below"/><path class="ylines-below"/><g class="overlines-below"/><g class="xaxislayer-below"/><g class="yaxislayer-below"/><g class="overaxes-below"/><g class="plot" transform="translate(80,100)" clip-path="url('#clip76fff1xyplot')"><g class="boxlayer mlayer"><g class="trace boxes" style="opacity: 1;"><path class="box" d="M9.14,165.2H26.72M9.14,222.47H26.72V119.38H9.14ZM17.93,222.47V497.38M17.93,119.38V39.2M13.54,497.38H22.32M13.54,39.2H22.32" style="vector-effect: non-scaling-stroke; stroke-width: 2px; stroke: rgb(99, 110, 250); stroke-opacity: 1; fill: rgb(99, 110, 250); fill-opacity: 0.5;"/><path class="box" d="M45.01,670.35H62.58M45.01,681.8H62.58V611.93H45.01ZM53.79,681.8V712.73M53.79,611.93V492.8M49.4,712.73H58.19M49.4,492.8H58.19" style="vector-effect: non-scaling-stroke; stroke-width: 2px; stroke: rgb(99, 110, 250); stroke-opacity: 1; fill: rgb(99, 110, 250); fill-opacity: 0.5;"/><path class="box" d="M80.87,673.78H98.44M80.87,697.84H98.44V635.98H80.87ZM89.66,697.84V717.31M89.66,635.98V584.44M85.26,717.31H94.05M85.26,584.44H94.05" style="vector-effect: non-scaling-stroke; stroke-width: 2px; stroke: rgb(99, 110, 250); stroke-opacity: 1; fill: rgb(99, 110, 250); fill-opacity: 0.5;"/><path class="box" d="M116.73,701.27H134.3M116.73,705.85H134.3V690.96H116.73ZM125.52,705.85V728.76M125.52,690.96V669.2M121.12,728.76H129.91M121.12,669.2H129.91" style="vector-effect: non-scaling-stroke; stroke-width: 2px; stroke: rgb(99, 110, 250); stroke-opacity: 1; fill: rgb(99, 110, 250); fill-opacity: 0.5;"/><path class="box" d="M152.59,685.24H170.17M152.59,700.13H170.17V668.05H152.59ZM161.38,700.13V724.18M161.38,668.05V625.67M156.99,724.18H165.77M156.99,625.67H165.77" style="vector-effect: non-scaling-stroke; stroke-width: 2px; stroke: rgb(99, 110, 250); stroke-opacity: 1; fill: rgb(99, 110, 250); fill-opacity: 0.5;"/><path class="box" d="M188.46,737.93H206.03M188.46,740.22H206.03V733.35H188.46ZM197.24,740.22V744.8M197.24,733.35V721.89M192.85,744.8H201.63M192.85,721.89H201.63" style="vector-effect: non-scaling-stroke; stroke-width: 2px; stroke: rgb(99, 110, 250); stroke-opacity: 1; fill: rgb(99, 110, 250); fill-opacity: 0.5;"/><path class="box" d="M224.32,733.35H241.89M224.32,735.64H241.89V729.91H224.32ZM233.1,735.64V744.8M233.1,729.91V705.85M228.71,744.8H237.5M228.71,705.85H237.5" style="vector-effect: non-scaling-stroke; stroke-width: 2px; stroke: rgb(99, 110, 250); stroke-opacity: 1; fill: rgb(99, 110, 250); fill-opacity: 0.5;"/><path class="box" d="M260.18,733.35H277.75M260.18,740.22H277.75V730.48H260.18ZM268.97,740.22V744.8M268.97,730.48V712.73M264.57,744.8H273.36M264.57,712.73H273.36" style="vector-effect: non-scaling-stroke; stroke-width: 2px; stroke: rgb(99, 110, 250); stroke-opacity: 1; fill: rgb(99, 110, 250); fill-opacity: 0.5;"/><path class="box" d="M296.04,737.93H313.61M296.04,740.22H313.61V733.35H296.04ZM304.83,740.22V744.8M304.83,733.35V719.6M300.43,744.8H309.22M300.43,719.6H309.22" style="vector-effect: non-scaling-stroke; stroke-width: 2px; stroke: rgb(99, 110, 250); stroke-opacity: 1; fill: rgb(99, 110, 250); fill-opacity: 0.5;"/><path class="box" d="M331.9,729.91H349.48M331.9,735.64H349.48V726.47H331.9ZM340.69,735.64V744.8M340.69,726.47V717.31M336.3,744.8H345.08M336.3,717.31H345.08" style="vector-effect: non-scaling-stroke; stroke-width: 2px; stroke: rgb(99, 110, 250); stroke-opacity: 1; fill: rgb(99, 110, 250); fill-opacity: 0.5;"/><path class="box" d="M367.77,742.94H385.34M367.77,744.8H385.34V741.94H367.77ZM376.55,744.8V744.8M376.55,741.94V735.64M372.16,744.8H380.94M372.16,735.64H380.94" style="vector-effect: non-scaling-stroke; stroke-width: 2px; stroke: rgb(99, 110, 250); stroke-opacity: 1; fill: rgb(99, 110, 250); fill-opacity: 0.5;"/><path class="box" d="M403.63,735.64H421.2M403.63,740.22H421.2V728.19H403.63ZM412.41,740.22V744.8M412.41,728.19V710.44M408.02,744.8H416.81M408.02,710.44H416.81" style="vector-effect: non-scaling-stroke; stroke-width: 2px; stroke: rgb(99, 110, 250); stroke-opacity: 1; fill: rgb(99, 110, 250); fill-opacity: 0.5;"/><path class="box" d="M439.49,741.51H457.06M439.49,742.51H457.06V740.22H439.49ZM448.28,742.51V744.8M448.28,740.22V735.64M443.88,744.8H452.67M443.88,735.64H452.67" style="vector-effect: non-scaling-stroke; stroke-width: 2px; stroke: rgb(99, 110, 250); stroke-opacity: 1; fill: rgb(99, 110, 250); fill-opacity: 0.5;"/><path class="box" d="M475.35,742.51H492.92M475.35,744.8H492.92V740.22H475.35ZM484.14,744.8V744.8M484.14,740.22V721.89M479.74,744.8H488.53M479.74,721.89H488.53" style="vector-effect: non-scaling-stroke; stroke-width: 2px; stroke: rgb(99, 110, 250); stroke-opacity: 1; fill: rgb(99, 110, 250); fill-opacity: 0.5;"/><path class="box" d="M511.21,742.08H528.79M511.21,743.08H528.79V737.93H511.21ZM520,743.08V744.8M520,737.93V728.76M515.61,744.8H524.39M515.61,728.76H524.39" style="vector-effect: non-scaling-stroke; stroke-width: 2px; stroke: rgb(99, 110, 250); stroke-opacity: 1; fill: rgb(99, 110, 250); fill-opacity: 0.5;"/><path class="box" d="M547.08,742.51H564.65M547.08,744.8H564.65V740.22H547.08ZM555.86,744.8V744.8M555.86,740.22V735.64M551.47,744.8H560.26M551.47,735.64H560.26" style="vector-effect: non-scaling-stroke; stroke-width: 2px; stroke: rgb(99, 110, 250); stroke-opacity: 1; fill: rgb(99, 110, 250); fill-opacity: 0.5;"/><path class="box" d="M582.94,741.36H600.51M582.94,742.51H600.51V737.93H582.94ZM591.72,742.51V744.8M591.72,737.93V726.47M587.33,744.8H596.12M587.33,726.47H596.12" style="vector-effect: non-scaling-stroke; stroke-width: 2px; stroke: rgb(99, 110, 250); stroke-opacity: 1; fill: rgb(99, 110, 250); fill-opacity: 0.5;"/><path class="box" d="M618.8,735.64H636.37M618.8,740.22H636.37V733.35H618.8ZM627.59,740.22V744.8M627.59,733.35V724.18M623.19,744.8H631.98M623.19,724.18H631.98" style="vector-effect: non-scaling-stroke; stroke-width: 2px; stroke: rgb(99, 110, 250); stroke-opacity: 1; fill: rgb(99, 110, 250); fill-opacity: 0.5;"/><path class="box" d="M654.66,740.22H672.23M654.66,742.51H672.23V737.93H654.66ZM663.45,742.51V744.8M663.45,737.93V726.47M659.06,744.8H667.84M659.06,726.47H667.84" style="vector-effect: non-scaling-stroke; stroke-width: 2px; stroke: rgb(99, 110, 250); stroke-opacity: 1; fill: rgb(99, 110, 250); fill-opacity: 0.5;"/><path class="box" d="M690.52,742.51H708.1M690.52,744.8H708.1V737.93H690.52ZM699.31,744.8V744.8M699.31,737.93V715.02M694.92,744.8H703.7M694.92,715.02H703.7" style="vector-effect: non-scaling-stroke; stroke-width: 2px; stroke: rgb(99, 110, 250); stroke-opacity: 1; fill: rgb(99, 110, 250); fill-opacity: 0.5;"/><path class="box" d="M726.39,692.11H743.96M726.39,724.18H743.96V554.08H726.39ZM735.17,724.18V744.8M735.17,554.08V224.76M730.78,744.8H739.57M730.78,224.76H739.57" style="vector-effect: non-scaling-stroke; stroke-width: 2px; stroke: rgb(99, 110, 250); stroke-opacity: 1; fill: rgb(99, 110, 250); fill-opacity: 0.5;"/><path class="box" d="M762.25,740.22H779.82M762.25,744.8H779.82V735.64H762.25ZM771.03,744.8V744.8M771.03,735.64V731.05M766.64,744.8H775.43M766.64,731.05H775.43" style="vector-effect: non-scaling-stroke; stroke-width: 2px; stroke: rgb(99, 110, 250); stroke-opacity: 1; fill: rgb(99, 110, 250); fill-opacity: 0.5;"/><path class="box" d="M798.11,743.51H815.68M798.11,744.8H815.68V742.51H798.11ZM806.9,744.8V744.8M806.9,742.51V726.47M802.5,744.8H811.29M802.5,726.47H811.29" style="vector-effect: non-scaling-stroke; stroke-width: 2px; stroke: rgb(99, 110, 250); stroke-opacity: 1; fill: rgb(99, 110, 250); fill-opacity: 0.5;"/><path class="box" d="M833.97,740.22H851.54M833.97,742.51H851.54V731.05H833.97ZM842.76,742.51V744.8M842.76,731.05V719.6M838.37,744.8H847.15M838.37,719.6H847.15" style="vector-effect: non-scaling-stroke; stroke-width: 2px; stroke: rgb(99, 110, 250); stroke-opacity: 1; fill: rgb(99, 110, 250); fill-opacity: 0.5;"/><path class="box" d="M869.83,742.51H887.41M869.83,744.8H887.41V740.22H869.83ZM878.62,744.8V744.8M878.62,740.22V740.22M874.23,744.8H883.01M874.23,740.22H883.01" style="vector-effect: non-scaling-stroke; stroke-width: 2px; stroke: rgb(99, 110, 250); stroke-opacity: 1; fill: rgb(99, 110, 250); fill-opacity: 0.5;"/><path class="box" d="M905.7,734.49H923.27M905.7,739.07H923.27V726.47H905.7ZM914.48,739.07V742.51M914.48,726.47V719.6M910.09,742.51H918.88M910.09,719.6H918.88" style="vector-effect: non-scaling-stroke; stroke-width: 2px; stroke: rgb(99, 110, 250); stroke-opacity: 1; fill: rgb(99, 110, 250); fill-opacity: 0.5;"/><path class="box" d="M941.56,743.65H959.13M941.56,744.8H959.13V742.51H941.56ZM950.34,744.8V744.8M950.34,742.51V742.51M945.95,744.8H954.74M945.95,742.51H954.74" style="vector-effect: non-scaling-stroke; stroke-width: 2px; stroke: rgb(99, 110, 250); stroke-opacity: 1; fill: rgb(99, 110, 250); fill-opacity: 0.5;"/><path class="box" d="M977.42,737.93H994.99M977.42,740.22H994.99V735.64H977.42ZM986.21,740.22V740.22M986.21,735.64V731.05M981.81,740.22H990.6M981.81,731.05H990.6" style="vector-effect: non-scaling-stroke; stroke-width: 2px; stroke: rgb(99, 110, 250); stroke-opacity: 1; fill: rgb(99, 110, 250); fill-opacity: 0.5;"/><path class="box" d="M1013.28,740.22H1030.86M1013.28,740.22H1030.86V740.22H1013.28ZM1022.07,740.22V740.22M1022.07,740.22V740.22M1017.68,740.22H1026.46M1017.68,740.22H1026.46" style="vector-effect: non-scaling-stroke; stroke-width: 2px; stroke: rgb(99, 110, 250); stroke-opacity: 1; fill: rgb(99, 110, 250); fill-opacity: 0.5;"/></g></g></g><g class="overplot"/><path class="xlines-above crisp" d="M0,0" style="fill: none;"/><path class="ylines-above crisp" d="M0,0" style="fill: none;"/><g class="overlines-above"/><g class="xaxislayer-above"><g class="xtick"><text text-anchor="start" x="0" y="897" transform="translate(97.93,0) rotate(30,0,891)" style="font-family: 'Open Sans', verdana, arial, sans-serif; font-size: 12px; fill: rgb(42, 63, 95); fill-opacity: 1; white-space: pre;">United States</text></g><g class="xtick"><text text-anchor="start" x="0" y="897" transform="translate(133.79,0) rotate(30,0,891)" style="font-family: 'Open Sans', verdana, arial, sans-serif; font-size: 12px; fill: rgb(42, 63, 95); fill-opacity: 1; white-space: pre;">Japan</text></g><g class="xtick"><text text-anchor="start" x="0" y="897" transform="translate(169.66,0) rotate(30,0,891)" style="font-family: 'Open Sans', verdana, arial, sans-serif; font-size: 12px; fill: rgb(42, 63, 95); fill-opacity: 1; white-space: pre;">Germany</text></g><g class="xtick"><text text-anchor="start" x="0" y="897" transform="translate(205.51999999999998,0) rotate(30,0,891)" style="font-family: 'Open Sans', verdana, arial, sans-serif; font-size: 12px; fill: rgb(42, 63, 95); fill-opacity: 1; white-space: pre;">France</text></g><g class="xtick"><text text-anchor="start" x="0" y="897" transform="translate(241.38,0) rotate(30,0,891)" style="font-family: 'Open Sans', verdana, arial, sans-serif; font-size: 12px; fill: rgb(42, 63, 95); fill-opacity: 1; white-space: pre;">United Kingdom</text></g><g class="xtick"><text text-anchor="start" x="0" y="897" transform="translate(277.24,0) rotate(30,0,891)" style="font-family: 'Open Sans', verdana, arial, sans-serif; font-size: 12px; fill: rgb(42, 63, 95); fill-opacity: 1; white-space: pre;">Australia</text></g><g class="xtick"><text text-anchor="start" x="0" y="897" transform="translate(313.1,0) rotate(30,0,891)" style="font-family: 'Open Sans', verdana, arial, sans-serif; font-size: 12px; fill: rgb(42, 63, 95); fill-opacity: 1; white-space: pre;">Italy</text></g><g class="xtick"><text text-anchor="start" x="0" y="897" transform="translate(348.97,0) rotate(30,0,891)" style="font-family: 'Open Sans', verdana, arial, sans-serif; font-size: 12px; fill: rgb(42, 63, 95); fill-opacity: 1; white-space: pre;">Netherlands</text></g><g class="xtick"><text text-anchor="start" x="0" y="897" transform="translate(384.83,0) rotate(30,0,891)" style="font-family: 'Open Sans', verdana, arial, sans-serif; font-size: 12px; fill: rgb(42, 63, 95); fill-opacity: 1; white-space: pre;">Switzerland</text></g><g class="xtick"><text text-anchor="start" x="0" y="897" transform="translate(420.69,0) rotate(30,0,891)" style="font-family: 'Open Sans', verdana, arial, sans-serif; font-size: 12px; fill: rgb(42, 63, 95); fill-opacity: 1; white-space: pre;">Canada</text></g><g class="xtick"><text text-anchor="start" x="0" y="897" transform="translate(456.55,0) rotate(30,0,891)" style="font-family: 'Open Sans', verdana, arial, sans-serif; font-size: 12px; fill: rgb(42, 63, 95); fill-opacity: 1; white-space: pre;">Denmark</text></g><g class="xtick"><text text-anchor="start" x="0" y="897" transform="translate(492.41,0) rotate(30,0,891)" style="font-family: 'Open Sans', verdana, arial, sans-serif; font-size: 12px; fill: rgb(42, 63, 95); fill-opacity: 1; white-space: pre;">Korea, South</text></g><g class="xtick"><text text-anchor="start" x="0" y="897" transform="translate(528.28,0) rotate(30,0,891)" style="font-family: 'Open Sans', verdana, arial, sans-serif; font-size: 12px; fill: rgb(42, 63, 95); fill-opacity: 1; white-space: pre;">Norway</text></g><g class="xtick"><text text-anchor="start" x="0" y="897" transform="translate(564.14,0) rotate(30,0,891)" style="font-family: 'Open Sans', verdana, arial, sans-serif; font-size: 12px; fill: rgb(42, 63, 95); fill-opacity: 1; white-space: pre;">Taiwan</text></g><g class="xtick"><text text-anchor="start" x="0" y="897" transform="translate(600,0) rotate(30,0,891)" style="font-family: 'Open Sans', verdana, arial, sans-serif; font-size: 12px; fill: rgb(42, 63, 95); fill-opacity: 1; white-space: pre;">Brazil</text></g><g class="xtick"><text text-anchor="start" x="0" y="897" transform="translate(635.86,0) rotate(30,0,891)" style="font-family: 'Open Sans', verdana, arial, sans-serif; font-size: 12px; fill: rgb(42, 63, 95); fill-opacity: 1; white-space: pre;">Finland</text></g><g class="xtick"><text text-anchor="start" x="0" y="897" transform="translate(671.72,0) rotate(30,0,891)" style="font-family: 'Open Sans', verdana, arial, sans-serif; font-size: 12px; fill: rgb(42, 63, 95); fill-opacity: 1; white-space: pre;">Spain</text></g><g class="xtick"><text text-anchor="start" x="0" y="897" transform="translate(707.59,0) rotate(30,0,891)" style="font-family: 'Open Sans', verdana, arial, sans-serif; font-size: 12px; fill: rgb(42, 63, 95); fill-opacity: 1; white-space: pre;">Sweden</text></g><g class="xtick"><text text-anchor="start" x="0" y="897" transform="translate(743.45,0) rotate(30,0,891)" style="font-family: 'Open Sans', verdana, arial, sans-serif; font-size: 12px; fill: rgb(42, 63, 95); fill-opacity: 1; white-space: pre;">Saudia Arabia</text></g><g class="xtick"><text text-anchor="start" x="0" y="897" transform="translate(779.31,0) rotate(30,0,891)" style="font-family: 'Open Sans', verdana, arial, sans-serif; font-size: 12px; fill: rgb(42, 63, 95); fill-opacity: 1; white-space: pre;">Ireland</text></g><g class="xtick"><text text-anchor="start" x="0" y="897" transform="translate(815.17,0) rotate(30,0,891)" style="font-family: 'Open Sans', verdana, arial, sans-serif; font-size: 12px; fill: rgb(42, 63, 95); fill-opacity: 1; white-space: pre;">China</text></g><g class="xtick"><text text-anchor="start" x="0" y="897" transform="translate(851.03,0) rotate(30,0,891)" style="font-family: 'Open Sans', verdana, arial, sans-serif; font-size: 12px; fill: rgb(42, 63, 95); fill-opacity: 1; white-space: pre;">Poland</text></g><g class="xtick"><text text-anchor="start" x="0" y="897" transform="translate(886.9,0) rotate(30,0,891)" style="font-family: 'Open Sans', verdana, arial, sans-serif; font-size: 12px; fill: rgb(42, 63, 95); fill-opacity: 1; white-space: pre;">Israel</text></g><g class="xtick"><text text-anchor="start" x="0" y="897" transform="translate(922.76,0) rotate(30,0,891)" style="font-family: 'Open Sans', verdana, arial, sans-serif; font-size: 12px; fill: rgb(42, 63, 95); fill-opacity: 1; white-space: pre;">Russia</text></g><g class="xtick"><text text-anchor="start" x="0" y="897" transform="translate(958.62,0) rotate(30,0,891)" style="font-family: 'Open Sans', verdana, arial, sans-serif; font-size: 12px; fill: rgb(42, 63, 95); fill-opacity: 1; white-space: pre;">Thailand</text></g><g class="xtick"><text text-anchor="start" x="0" y="897" transform="translate(994.48,0) rotate(30,0,891)" style="font-family: 'Open Sans', verdana, arial, sans-serif; font-size: 12px; fill: rgb(42, 63, 95); fill-opacity: 1; white-space: pre;">India</text></g><g class="xtick"><text text-anchor="start" x="0" y="897" transform="translate(1030.3400000000001,0) rotate(30,0,891)" style="font-family: 'Open Sans', verdana, arial, sans-serif; font-size: 12px; fill: rgb(42, 63, 95); fill-opacity: 1; white-space: pre;">United Arab Emirates</text></g><g class="xtick"><text text-anchor="start" x="0" y="897" transform="translate(1066.21,0) rotate(30,0,891)" style="font-family: 'Open Sans', verdana, arial, sans-serif; font-size: 12px; fill: rgb(42, 63, 95); fill-opacity: 1; white-space: pre;">Saudi Arabia</text></g><g class="xtick"><text text-anchor="start" x="0" y="897" transform="translate(1102.0700000000002,0) rotate(30,0,891)" style="font-family: 'Open Sans', verdana, arial, sans-serif; font-size: 12px; fill: rgb(42, 63, 95); fill-opacity: 1; white-space: pre;">South Korea</text></g></g><g class="yaxislayer-above"><g class="ytick"><text text-anchor="end" x="79" y="4.199999999999999" transform="translate(0,847.09)" style="font-family: 'Open Sans', verdana, arial, sans-serif; font-size: 12px; fill: rgb(42, 63, 95); fill-opacity: 1; white-space: pre;">0</text></g><g class="ytick"><text text-anchor="end" x="79" y="4.199999999999999" transform="translate(0,732.55)" style="font-family: 'Open Sans', verdana, arial, sans-serif; font-size: 12px; fill: rgb(42, 63, 95); fill-opacity: 1; white-space: pre;">50</text></g><g class="ytick"><text text-anchor="end" x="79" y="4.199999999999999" transform="translate(0,618)" style="font-family: 'Open Sans', verdana, arial, sans-serif; font-size: 12px; fill: rgb(42, 63, 95); fill-opacity: 1; white-space: pre;">100</text></g><g class="ytick"><text text-anchor="end" x="79" y="4.199999999999999" transform="translate(0,503.45)" style="font-family: 'Open Sans', verdana, arial, sans-serif; font-size: 12px; fill: rgb(42, 63, 95); fill-opacity: 1; white-space: pre;">150</text></g><g class="ytick"><text text-anchor="end" x="79" y="4.199999999999999" transform="translate(0,388.91)" style="font-family: 'Open Sans', verdana, arial, sans-serif; font-size: 12px; fill: rgb(42, 63, 95); fill-opacity: 1; white-space: pre;">200</text></g><g class="ytick"><text text-anchor="end" x="79" y="4.199999999999999" transform="translate(0,274.36)" style="font-family: 'Open Sans', verdana, arial, sans-serif; font-size: 12px; fill: rgb(42, 63, 95); fill-opacity: 1; white-space: pre;">250</text></g><g class="ytick"><text text-anchor="end" x="79" y="4.199999999999999" transform="translate(0,159.82)" style="font-family: 'Open Sans', verdana, arial, sans-serif; font-size: 12px; fill: rgb(42, 63, 95); fill-opacity: 1; white-space: pre;">300</text></g></g><g class="overaxes-above"/></g></g><g class="polarlayer"/><g class="ternarylayer"/><g class="geolayer"/><g class="funnelarealayer"/><g class="pielayer"/><g class="treemaplayer"/><g class="sunburstlayer"/><g class="glimages"/><defs id="topdefs-76fff1"><g class="clips"/></defs><g class="layer-above"><g class="imagelayer"/><g class="shapelayer"/></g><g class="infolayer"><g class="g-gtitle"><text class="gtitle" x="60" y="50" text-anchor="start" dy="0em" style="font-family: 'Open Sans', verdana, arial, sans-serif; font-size: 17px; fill: rgb(42, 63, 95); opacity: 1; font-weight: normal; white-space: pre;">Ocorrências no Top500</text></g><g class="g-xtitle"><text class="xtitle" x="600" y="987.6251953125" text-anchor="middle" style="font-family: 'Open Sans', verdana, arial, sans-serif; font-size: 14px; fill: rgb(42, 63, 95); opacity: 1; font-weight: normal; white-space: pre;">Países</text></g><g class="g-ytitle"><text class="ytitle" transform="rotate(-90,31.309375000000003,492)" x="31.309375000000003" y="492" text-anchor="middle" style="font-family: 'Open Sans', verdana, arial, sans-serif; font-size: 14px; fill: rgb(42, 63, 95); opacity: 1; font-weight: normal; white-space: pre;">Ocorrências</text></g></g></svg>