<svg class="main-svg" xmlns="http://www.w3.org/2000/svg" xmlns:xlink="http://www.w3.org/1999/xlink" width="800" height="600" style="" viewBox="0 0 800 600"><rect x="0" y="0" width="800" height="600" style="fill: rgb(255, 255, 255); fill-opacity: 1;"/><defs id="defs-63cba7"><g class="clips"><clipPath id="clip63cba7xyplot" class="plotclip"><rect width="640" height="328"/></clipPath><clipPath class="axesclip" id="clip63cba7x"><rect x="80" y="0" width="640" height="600"/></clipPath><clipPath class="axesclip" id="clip63cba7y"><rect x="0" y="100" width="800" height="328"/></clipPath><clipPath class="axesclip" id="clip63cba7xy"><rect x="80" y="100" width="640" height="328"/></clipPath></g><g class="gradients"/></defs><g class="bglayer"><rect class="bg" x="80" y="100" width="640" height="328" style="fill: rgb(229, 236, 246); fill-opacity: 1; stroke-width: 0;"/></g><g class="layer-below"><g class="imagelayer"/><g class="shapelayer"/></g><g class="cartesianlayer"><g class="subplot xy"><g class="layer-subplot"><g class="shapelayer"/><g class="imagelayer"/></g><g class="gridlayer"><g class="x"/><g class="y"><path class="ygrid crisp" transform="translate(0,364.64)" d="M80,0h640" style="stroke: rgb(255, 255, 255); stroke-opacity: 1; stroke-width: 1px;"/><path class="ygrid crisp" transform="translate(0,316.71000000000004)" d="M80,0h640" style="stroke: rgb(255, 255, 255); stroke-opacity: 1; stroke-width: 1px;"/><path class="ygrid crisp" transform="translate(0,268.78999999999996)" d="M80,0h640" style="stroke: rgb(255, 255, 255); stroke-opacity: 1; stroke-width: 1px;"/><path class="ygrid crisp" transform="translate(0,220.87)" d="M80,0h640" style="stroke: rgb(255, 255, 255); stroke-opacity: 1; stroke-width: 1px;"/><path class="ygrid crisp" transform="translate(0,172.95)" d="M80,0h640" style="stroke: rgb(255, 255, 255); stroke-opacity: 1; stroke-width: 1px;"/><path class="ygrid crisp" transform="translate(0,125.03)" d="M80,0h640" style="stroke: rgb(255, 255, 255); stroke-opacity: 1; stroke-width: 1px;"/></g></g><g class="zerolinelayer"><path class="yzl zl crisp" transform="translate(0,412.56)" d="M80,0h640" style="stroke: rgb(255, 255, 255); stroke-opacity: 1; stroke-width: 2px;"/></g><path class="xlines-below"/><path class="ylines-below"/><g class="overlines-below"/><g class="xaxislayer-below"/><g class="yaxislayer-below"/><g class="overaxes-below"/><g class="plot" transform="translate(80,100)" clip-path="url('#clip63cba7xyplot')"><g class="boxlayer mlayer"><g class="trace boxes" style="opacity: 1;"><path class="box" d="M5.63,69.11H16.44M5.63,93.08H16.44V49.95H5.63ZM11.03,93.08V208.09M11.03,49.95V16.4M8.33,208.09H13.74M8.33,16.4H13.74" style="vector-effect: non-scaling-stroke; stroke-width: 2px; stroke: rgb(99, 110, 250); stroke-opacity: 1; fill: rgb(99, 110, 250); fill-opacity: 0.5;"/><path class="box" d="M27.7,280.45H38.51M27.7,285.24H38.51V256.01H27.7ZM33.1,285.24V298.18M33.1,256.01V206.17M30.4,298.18H35.81M30.4,206.17H35.81" style="vector-effect: non-scaling-stroke; stroke-width: 2px; stroke: rgb(99, 110, 250); stroke-opacity: 1; fill: rgb(99, 110, 250); fill-opacity: 0.5;"/><path class="box" d="M49.77,281.89H60.58M49.77,291.95H60.58V266.07H49.77ZM55.17,291.95V300.1M55.17,266.07V244.51M52.47,300.1H57.88M52.47,244.51H57.88" style="vector-effect: non-scaling-stroke; stroke-width: 2px; stroke: rgb(99, 110, 250); stroke-opacity: 1; fill: rgb(99, 110, 250); fill-opacity: 0.5;"/><path class="box" d="M71.83,293.39H82.65M71.83,295.31H82.65V289.08H71.83ZM77.24,295.31V304.89M77.24,289.08V279.97M74.54,304.89H79.94M74.54,279.97H79.94" style="vector-effect: non-scaling-stroke; stroke-width: 2px; stroke: rgb(99, 110, 250); stroke-opacity: 1; fill: rgb(99, 110, 250); fill-opacity: 0.5;"/><path class="box" d="M93.9,286.68H104.72M93.9,292.91H104.72V279.49H93.9ZM99.31,292.91V302.97M99.31,279.49V261.76M96.61,302.97H102.01M96.61,261.76H102.01" style="vector-effect: non-scaling-stroke; stroke-width: 2px; stroke: rgb(99, 110, 250); stroke-opacity: 1; fill: rgb(99, 110, 250); fill-opacity: 0.5;"/><path class="box" d="M115.97,308.68H126.79M115.97,309.68H126.79V306.81H115.97ZM121.38,309.68V311.6M121.38,306.81V302.02M118.68,311.6H124.08M118.68,302.02H124.08" style="vector-effect: non-scaling-stroke; stroke-width: 2px; stroke: rgb(99, 110, 250); stroke-opacity: 1; fill: rgb(99, 110, 250); fill-opacity: 0.5;"/><path class="box" d="M138.04,306.77H148.86M138.04,307.77H148.86V305.37H138.04ZM143.45,307.77V311.6M143.45,305.37V295.31M140.74,311.6H146.15M140.74,295.31H146.15" style="vector-effect: non-scaling-stroke; stroke-width: 2px; stroke: rgb(99, 110, 250); stroke-opacity: 1; fill: rgb(99, 110, 250); fill-opacity: 0.5;"/><path class="box" d="M160.11,306.81H170.92M160.11,309.68H170.92V305.61H160.11ZM165.52,309.68V311.6M165.52,305.61V298.18M162.81,311.6H168.22M162.81,298.18H168.22" style="vector-effect: non-scaling-stroke; stroke-width: 2px; stroke: rgb(99, 110, 250); stroke-opacity: 1; fill: rgb(99, 110, 250); fill-opacity: 0.5;"/><path class="box" d="M182.18,308.68H192.99M182.18,309.68H192.99V306.81H182.18ZM187.59,309.68V311.6M187.59,306.81V301.06M184.88,311.6H190.29M184.88,301.06H190.29" style="vector-effect: non-scaling-stroke; stroke-width: 2px; stroke: rgb(99, 110, 250); stroke-opacity: 1; fill: rgb(99, 110, 250); fill-opacity: 0.5;"/><path class="box" d="M204.25,305.37H215.06M204.25,307.77H215.06V303.93H204.25ZM209.66,307.77V311.6M209.66,303.93V300.1M206.95,311.6H212.36M206.95,300.1H212.36" style="vector-effect: non-scaling-stroke; stroke-width: 2px; stroke: rgb(99, 110, 250); stroke-opacity: 1; fill: rgb(99, 110, 250); fill-opacity: 0.5;"/><path class="box" d="M226.32,310.64H237.13M226.32,311.6H237.13V310.4H226.32ZM231.72,311.6V311.6M231.72,310.4V307.77M229.02,311.6H234.43M229.02,307.77H234.43" style="vector-effect: non-scaling-stroke; stroke-width: 2px; stroke: rgb(99, 110, 250); stroke-opacity: 1; fill: rgb(99, 110, 250); fill-opacity: 0.5;"/><path class="box" d="M248.39,307.77H259.2M248.39,309.68H259.2V304.65H248.39ZM253.79,309.68V311.6M253.79,304.65V297.22M251.09,311.6H256.5M251.09,297.22H256.5" style="vector-effect: non-scaling-stroke; stroke-width: 2px; stroke: rgb(99, 110, 250); stroke-opacity: 1; fill: rgb(99, 110, 250); fill-opacity: 0.5;"/><path class="box" d="M270.46,310.64H281.27M270.46,310.64H281.27V309.68H270.46ZM275.86,310.64V311.6M275.86,309.68V307.77M273.16,311.6H278.57M273.16,307.77H278.57" style="vector-effect: non-scaling-stroke; stroke-width: 2px; stroke: rgb(99, 110, 250); stroke-opacity: 1; fill: rgb(99, 110, 250); fill-opacity: 0.5;"/><path class="box" d="M292.52,310.64H303.34M292.52,311.6H303.34V309.68H292.52ZM297.93,311.6V311.6M297.93,309.68V302.02M295.23,311.6H300.63M295.23,302.02H300.63" style="vector-effect: non-scaling-stroke; stroke-width: 2px; stroke: rgb(99, 110, 250); stroke-opacity: 1; fill: rgb(99, 110, 250); fill-opacity: 0.5;"/><path class="box" d="M314.59,309.88H325.41M314.59,310.88H325.41V308.72H314.59ZM320,310.88V311.6M320,308.72V304.89M317.3,311.6H322.7M317.3,304.89H322.7" style="vector-effect: non-scaling-stroke; stroke-width: 2px; stroke: rgb(99, 110, 250); stroke-opacity: 1; fill: rgb(99, 110, 250); fill-opacity: 0.5;"/><path class="box" d="M336.66,310.64H347.48M336.66,311.6H347.48V309.68H336.66ZM342.07,311.6V311.6M342.07,309.68V307.77M339.37,311.6H344.77M339.37,307.77H344.77" style="vector-effect: non-scaling-stroke; stroke-width: 2px; stroke: rgb(99, 110, 250); stroke-opacity: 1; fill: rgb(99, 110, 250); fill-opacity: 0.5;"/><path class="box" d="M358.73,309.72H369.54M358.73,310.64H369.54V308.72H358.73ZM364.14,310.64V311.6M364.14,308.72V303.93M361.43,311.6H366.84M361.43,303.93H366.84" style="vector-effect: non-scaling-stroke; stroke-width: 2px; stroke: rgb(99, 110, 250); stroke-opacity: 1; fill: rgb(99, 110, 250); fill-opacity: 0.5;"/><path class="box" d="M380.8,307.81H391.61M380.8,309.68H391.61V306.81H380.8ZM386.21,309.68V311.6M386.21,306.81V302.97M383.5,311.6H388.91M383.5,302.97H388.91" style="vector-effect: non-scaling-stroke; stroke-width: 2px; stroke: rgb(99, 110, 250); stroke-opacity: 1; fill: rgb(99, 110, 250); fill-opacity: 0.5;"/><path class="box" d="M402.87,309.68H413.68M402.87,310.64H413.68V308.72H402.87ZM408.28,310.64V311.6M408.28,308.72V303.93M405.57,311.6H410.98M405.57,303.93H410.98" style="vector-effect: non-scaling-stroke; stroke-width: 2px; stroke: rgb(99, 110, 250); stroke-opacity: 1; fill: rgb(99, 110, 250); fill-opacity: 0.5;"/><path class="box" d="M424.94,310.6H435.75M424.94,311.6H435.75V308.72H424.94ZM430.34,311.6V311.6M430.34,308.72V299.14M427.64,311.6H433.05M427.64,299.14H433.05" style="vector-effect: non-scaling-stroke; stroke-width: 2px; stroke: rgb(99, 110, 250); stroke-opacity: 1; fill: rgb(99, 110, 250); fill-opacity: 0.5;"/><path class="box" d="M447.01,289.56H457.82M447.01,302.97H457.82V231.81H447.01ZM452.41,302.97V311.6M452.41,231.81V94.03M449.71,311.6H455.12M449.71,94.03H455.12" style="vector-effect: non-scaling-stroke; stroke-width: 2px; stroke: rgb(99, 110, 250); stroke-opacity: 1; fill: rgb(99, 110, 250); fill-opacity: 0.5;"/><path class="box" d="M469.08,309.68H479.89M469.08,311.6H479.89V307.77H469.08ZM474.48,311.6V311.6M474.48,307.77V305.85M471.78,311.6H477.19M471.78,305.85H477.19" style="vector-effect: non-scaling-stroke; stroke-width: 2px; stroke: rgb(99, 110, 250); stroke-opacity: 1; fill: rgb(99, 110, 250); fill-opacity: 0.5;"/><path class="box" d="M491.14,310.64H501.96M491.14,311.6H501.96V310.64H491.14ZM496.55,311.6V311.6M496.55,310.64V303.93M493.85,311.6H499.26M493.85,303.93H499.26" style="vector-effect: non-scaling-stroke; stroke-width: 2px; stroke: rgb(99, 110, 250); stroke-opacity: 1; fill: rgb(99, 110, 250); fill-opacity: 0.5;"/><path class="box" d="M513.21,309.64H524.03M513.21,310.64H524.03V305.85H513.21ZM518.62,310.64V311.6M518.62,305.85V301.06M515.92,311.6H521.32M515.92,301.06H521.32" style="vector-effect: non-scaling-stroke; stroke-width: 2px; stroke: rgb(99, 110, 250); stroke-opacity: 1; fill: rgb(99, 110, 250); fill-opacity: 0.5;"/><path class="box" d="M535.28,310.64H546.1M535.28,311.6H546.1V309.68H535.28ZM540.69,311.6V311.6M540.69,309.68V309.68M537.99,311.6H543.39M537.99,309.68H543.39" style="vector-effect: non-scaling-stroke; stroke-width: 2px; stroke: rgb(99, 110, 250); stroke-opacity: 1; fill: rgb(99, 110, 250); fill-opacity: 0.5;"/><path class="box" d="M557.35,307.29H568.17M557.35,309.2H568.17V303.93H557.35ZM562.76,309.2V310.64M562.76,303.93V301.06M560.06,310.64H565.46M560.06,301.06H565.46" style="vector-effect: non-scaling-stroke; stroke-width: 2px; stroke: rgb(99, 110, 250); stroke-opacity: 1; fill: rgb(99, 110, 250); fill-opacity: 0.5;"/><path class="box" d="M579.42,311.12H590.23M579.42,311.6H590.23V310.64H579.42ZM584.83,311.6V311.6M584.83,310.64V310.64M582.12,311.6H587.53M582.12,310.64H587.53" style="vector-effect: non-scaling-stroke; stroke-width: 2px; stroke: rgb(99, 110, 250); stroke-opacity: 1; fill: rgb(99, 110, 250); fill-opacity: 0.5;"/><path class="box" d="M601.49,308.72H612.3M601.49,309.68H612.3V307.77H601.49ZM606.9,309.68V309.68M606.9,307.77V305.85M604.19,309.68H609.6M604.19,305.85H609.6" style="vector-effect: non-scaling-stroke; stroke-width: 2px; stroke: rgb(99, 110, 250); stroke-opacity: 1; fill: rgb(99, 110, 250); fill-opacity: 0.5;"/><path class="box" d="M623.56,309.68H634.37M623.56,309.68H634.37V309.68H623.56ZM628.97,309.68V309.68M628.97,309.68V309.68M626.26,309.68H631.67M626.26,309.68H631.67" style="vector-effect: non-scaling-stroke; stroke-width: 2px; stroke: rgb(99, 110, 250); stroke-opacity: 1; fill: rgb(99, 110, 250); fill-opacity: 0.5;"/></g></g></g><g class="overplot"/><path class="xlines-above crisp" d="M0,0" style="fill: none;"/><path class="ylines-above crisp" d="M0,0" style="fill: none;"/><g class="overlines-above"/><g class="xaxislayer-above"><g class="xtick"><text text-anchor="start" x="0" y="441" transform="translate(91.03,0) rotate(90,0,435)" style="font-family: 'Open Sans', verdana, arial, sans-serif; font-size: 12px; fill: rgb(42, 63, 95); fill-opacity: 1; white-space: pre;">United States</text></g><g class="xtick"><text text-anchor="start" x="0" y="441" transform="translate(113.1,0) rotate(90,0,435)" style="font-family: 'Open Sans', verdana, arial, sans-serif; font-size: 12px; fill: rgb(42, 63, 95); fill-opacity: 1; white-space: pre;">Japan</text></g><g class="xtick"><text text-anchor="start" x="0" y="441" transform="translate(135.17000000000002,0) rotate(90,0,435)" style="font-family: 'Open Sans', verdana, arial, sans-serif; font-size: 12px; fill: rgb(42, 63, 95); fill-opacity: 1; white-space: pre;">Germany</text></g><g class="xtick"><text text-anchor="start" x="0" y="441" transform="translate(157.24,0) rotate(90,0,435)" style="font-family: 'Open Sans', verdana, arial, sans-serif; font-size: 12px; fill: rgb(42, 63, 95); fill-opacity: 1; white-space: pre;">France</text></g><g class="xtick"><text text-anchor="start" x="0" y="441" transform="translate(179.31,0) rotate(90,0,435)" style="font-family: 'Open Sans', verdana, arial, sans-serif; font-size: 12px; fill: rgb(42, 63, 95); fill-opacity: 1; white-space: pre;">United Kingdom</text></g><g class="xtick"><text text-anchor="start" x="0" y="441" transform="translate(201.38,0) rotate(90,0,435)" style="font-family: 'Open Sans', verdana, arial, sans-serif; font-size: 12px; fill: rgb(42, 63, 95); fill-opacity: 1; white-space: pre;">Australia</text></g><g class="xtick"><text text-anchor="start" x="0" y="441" transform="translate(223.45,0) rotate(90,0,435)" style="font-family: 'Open Sans', verdana, arial, sans-serif; font-size: 12px; fill: rgb(42, 63, 95); fill-opacity: 1; white-space: pre;">Italy</text></g><g class="xtick"><text text-anchor="start" x="0" y="441" transform="translate(245.52,0) rotate(90,0,435)" style="font-family: 'Open Sans', verdana, arial, sans-serif; font-size: 12px; fill: rgb(42, 63, 95); fill-opacity: 1; white-space: pre;">Netherlands</text></g><g class="xtick"><text text-anchor="start" x="0" y="441" transform="translate(267.59000000000003,0) rotate(90,0,435)" style="font-family: 'Open Sans', verdana, arial, sans-serif; font-size: 12px; fill: rgb(42, 63, 95); fill-opacity: 1; white-space: pre;">Switzerland</text></g><g class="xtick"><text text-anchor="start" x="0" y="441" transform="translate(289.65999999999997,0) rotate(90,0,435)" style="font-family: 'Open Sans', verdana, arial, sans-serif; font-size: 12px; fill: rgb(42, 63, 95); fill-opacity: 1; white-space: pre;">Canada</text></g><g class="xtick"><text text-anchor="start" x="0" y="441" transform="translate(311.72,0) rotate(90,0,435)" style="font-family: 'Open Sans', verdana, arial, sans-serif; font-size: 12px; fill: rgb(42, 63, 95); fill-opacity: 1; white-space: pre;">Denmark</text></g><g class="xtick"><text text-anchor="start" x="0" y="441" transform="translate(333.78999999999996,0) rotate(90,0,435)" style="font-family: 'Open Sans', verdana, arial, sans-serif; font-size: 12px; fill: rgb(42, 63, 95); fill-opacity: 1; white-space: pre;">Korea, South</text></g><g class="xtick"><text text-anchor="start" x="0" y="441" transform="translate(355.86,0) rotate(90,0,435)" style="font-family: 'Open Sans', verdana, arial, sans-serif; font-size: 12px; fill: rgb(42, 63, 95); fill-opacity: 1; white-space: pre;">Norway</text></g><g class="xtick"><text text-anchor="start" x="0" y="441" transform="translate(377.93,0) rotate(90,0,435)" style="font-family: 'Open Sans', verdana, arial, sans-serif; font-size: 12px; fill: rgb(42, 63, 95); fill-opacity: 1; white-space: pre;">Taiwan</text></g><g class="xtick"><text text-anchor="start" x="0" y="441" transform="translate(400,0) rotate(90,0,435)" style="font-family: 'Open Sans', verdana, arial, sans-serif; font-size: 12px; fill: rgb(42, 63, 95); fill-opacity: 1; white-space: pre;">Brazil</text></g><g class="xtick"><text text-anchor="start" x="0" y="441" transform="translate(422.07,0) rotate(90,0,435)" style="font-family: 'Open Sans', verdana, arial, sans-serif; font-size: 12px; fill: rgb(42, 63, 95); fill-opacity: 1; white-space: pre;">Finland</text></g><g class="xtick"><text text-anchor="start" x="0" y="441" transform="translate(444.14,0) rotate(90,0,435)" style="font-family: 'Open Sans', verdana, arial, sans-serif; font-size: 12px; fill: rgb(42, 63, 95); fill-opacity: 1; white-space: pre;">Spain</text></g><g class="xtick"><text text-anchor="start" x="0" y="441" transform="translate(466.21,0) rotate(90,0,435)" style="font-family: 'Open Sans', verdana, arial, sans-serif; font-size: 12px; fill: rgb(42, 63, 95); fill-opacity: 1; white-space: pre;">Sweden</text></g><g class="xtick"><text text-anchor="start" x="0" y="441" transform="translate(488.28,0) rotate(90,0,435)" style="font-family: 'Open Sans', verdana, arial, sans-serif; font-size: 12px; fill: rgb(42, 63, 95); fill-opacity: 1; white-space: pre;">Saudia Arabia</text></g><g class="xtick"><text text-anchor="start" x="0" y="441" transform="translate(510.34,0) rotate(90,0,435)" style="font-family: 'Open Sans', verdana, arial, sans-serif; font-size: 12px; fill: rgb(42, 63, 95); fill-opacity: 1; white-space: pre;">Ireland</text></g><g class="xtick"><text text-anchor="start" x="0" y="441" transform="translate(532.4100000000001,0) rotate(90,0,435)" style="font-family: 'Open Sans', verdana, arial, sans-serif; font-size: 12px; fill: rgb(42, 63, 95); fill-opacity: 1; white-space: pre;">China</text></g><g class="xtick"><text text-anchor="start" x="0" y="441" transform="translate(554.48,0) rotate(90,0,435)" style="font-family: 'Open Sans', verdana, arial, sans-serif; font-size: 12px; fill: rgb(42, 63, 95); fill-opacity: 1; white-space: pre;">Poland</text></g><g class="xtick"><text text-anchor="start" x="0" y="441" transform="translate(576.55,0) rotate(90,0,435)" style="font-family: 'Open Sans', verdana, arial, sans-serif; font-size: 12px; fill: rgb(42, 63, 95); fill-opacity: 1; white-space: pre;">Israel</text></g><g class="xtick"><text text-anchor="start" x="0" y="441" transform="translate(598.62,0) rotate(90,0,435)" style="font-family: 'Open Sans', verdana, arial, sans-serif; font-size: 12px; fill: rgb(42, 63, 95); fill-opacity: 1; white-space: pre;">Russia</text></g><g class="xtick"><text text-anchor="start" x="0" y="441" transform="translate(620.69,0) rotate(90,0,435)" style="font-family: 'Open Sans', verdana, arial, sans-serif; font-size: 12px; fill: rgb(42, 63, 95); fill-opacity: 1; white-space: pre;">Thailand</text></g><g class="xtick"><text text-anchor="start" x="0" y="441" transform="translate(642.76,0) rotate(90,0,435)" style="font-family: 'Open Sans', verdana, arial, sans-serif; font-size: 12px; fill: rgb(42, 63, 95); fill-opacity: 1; white-space: pre;">India</text></g><g class="xtick"><text text-anchor="start" x="0" y="441" transform="translate(664.83,0) rotate(90,0,435)" style="font-family: 'Open Sans', verdana, arial, sans-serif; font-size: 12px; fill: rgb(42, 63, 95); fill-opacity: 1; white-space: pre;">United Arab Emirates</text></g><g class="xtick"><text text-anchor="start" x="0" y="441" transform="translate(686.9,0) rotate(90,0,435)" style="font-family: 'Open Sans', verdana, arial, sans-serif; font-size: 12px; fill: rgb(42, 63, 95); fill-opacity: 1; white-space: pre;">Saudi Arabia</text></g><g class="xtick"><text text-anchor="start" x="0" y="441" transform="translate(708.97,0) rotate(90,0,435)" style="font-family: 'Open Sans', verdana, arial, sans-serif; font-size: 12px; fill: rgb(42, 63, 95); fill-opacity: 1; white-space: pre;">South Korea</text></g></g><g class="yaxislayer-above"><g class="ytick"><text text-anchor="end" x="79" y="4.199999999999999" transform="translate(0,412.56)" style="font-family: 'Open Sans', verdana, arial, sans-serif; font-size: 12px; fill: rgb(42, 63, 95); fill-opacity: 1; white-space: pre;">0</text></g><g class="ytick"><text text-anchor="end" x="79" y="4.199999999999999" transform="translate(0,364.64)" style="font-family: 'Open Sans', verdana, arial, sans-serif; font-size: 12px; fill: rgb(42, 63, 95); fill-opacity: 1; white-space: pre;">50</text></g><g class="ytick"><text text-anchor="end" x="79" y="4.199999999999999" transform="translate(0,316.71000000000004)" style="font-family: 'Open Sans', verdana, arial, sans-serif; font-size: 12px; fill: rgb(42, 63, 95); fill-opacity: 1; white-space: pre;">100</text></g><g class="ytick"><text text-anchor="end" x="79" y="4.199999999999999" transform="translate(0,268.78999999999996)" style="font-family: 'Open Sans', verdana, arial, sans-serif; font-size: 12px; fill: rgb(42, 63, 95); fill-opacity: 1; white-space: pre;">150</text></g><g class="ytick"><text text-anchor="end" x="79" y="4.199999999999999" transform="translate(0,220.87)" style="font-family: 'Open Sans', verdana, arial, sans-serif; font-size: 12px; fill: rgb(42, 63, 95); fill-opacity: 1; white-space: pre;">200</text></g><g class="ytick"><text text-anchor="end" x="79" y="4.199999999999999" transform="translate(0,172.95)" style="font-family: 'Open Sans', verdana, arial, sans-serif; font-size: 12px; fill: rgb(42, 63, 95); fill-opacity: 1; white-space: pre;">250</text></g><g class="ytick"><text text-anchor="end" x="79" y="4.199999999999999" transform="translate(0,125.03)" style="font-family: 'Open Sans', verdana, arial, sans-serif; font-size: 12px; fill: rgb(42, 63, 95); fill-opacity: 1; white-space: pre;">300</text></g></g><g class="overaxes-above"/></g></g><g class="polarlayer"/><g class="ternarylayer"/><g class="geolayer"/><g class="funnelarealayer"/><g class="pielayer"/><g class="treemaplayer"/><g class="sunburstlayer"/><g class="glimages"/><defs id="topdefs-63cba7"><g class="clips"/></defs><g class="layer-above"><g class="imagelayer"/><g class="shapelayer"/></g><g class="infolayer"><g class="g-gtitle"><text class="gtitle" x="40" y="50" text-anchor="start" dy="0em" style="font-family: 'Open Sans', verdana, arial, sans-serif; font-size: 17px; fill: rgb(42, 63, 95); opacity: 1; font-weight: normal; white-space: pre;">Ocorrências no Top500</text></g><g class="g-xtitle"><text class="xtitle" x="400" y="587.8625" text-anchor="middle" style="font-family: 'Open Sans', verdana, arial, sans-serif; font-size: 14px; fill: rgb(42, 63, 95); opacity: 1; font-weight: normal; white-space: pre;">Países</text></g><g class="g-ytitle"><text class="ytitle" transform="rotate(-90,31.309375000000003,264)" x="31.309375000000003" y="264" text-anchor="middle" style="font-family: 'Open Sans', verdana, arial, sans-serif; font-size: 14px; fill: rgb(42, 63, 95); opacity: 1; font-weight: normal; white-space: pre;">Ocorrências</text></g></g></svg>