<svg class="main-svg" xmlns="http://www.w3.org/2000/svg" xmlns:xlink="http://www.w3.org/1999/xlink" width="1200" height="1000" style="" viewBox="0 0 1200 1000"><rect x="0" y="0" width="1200" height="1000" style="fill: rgb(255, 255, 255); fill-opacity: 1;"/><defs id="defs-9711e0"><g class="clips"><clipPath id="clip9711e0xyplot" class="plotclip"><rect width="962" height="846"/></clipPath><clipPath class="axesclip" id="clip9711e0x"><rect x="80" y="0" width="962" height="1000"/></clipPath><clipPath class="axesclip" id="clip9711e0y"><rect x="0" y="60" width="1200" height="846"/></clipPath><clipPath class="axesclip" id="clip9711e0xy"><rect x="80" y="60" width="962" height="846"/></clipPath></g><g class="gradients"/></defs><g class="bglayer"><rect class="bg" x="80" y="60" width="962" height="846" style="fill: rgb(229, 236, 246); fill-opacity: 1; stroke-width: 0;"/></g><g class="layer-below"><g class="imagelayer"/><g class="shapelayer"/></g><g class="cartesianlayer"><g class="subplot xy"><g class="layer-subplot"><g class="shapelayer"/><g class="imagelayer"/></g><g class="gridlayer"><g class="x"><path class="xgrid crisp" transform="translate(97.49,0)" d="M0,60v846" style="stroke: rgb(255, 255, 255); stroke-opacity: 1; stroke-width: 1px;"/><path class="xgrid crisp" transform="translate(114.97999999999999,0)" d="M0,60v846" style="stroke: rgb(255, 255, 255); stroke-opacity: 1; stroke-width: 1px;"/><path class="xgrid crisp" transform="translate(132.47,0)" d="M0,60v846" style="stroke: rgb(255, 255, 255); stroke-opacity: 1; stroke-width: 1px;"/><path class="xgrid crisp" transform="translate(149.95999999999998,0)" d="M0,60v846" style="stroke: rgb(255, 255, 255); stroke-opacity: 1; stroke-width: 1px;"/><path class="xgrid crisp" transform="translate(167.45,0)" d="M0,60v846" style="stroke: rgb(255, 255, 255); stroke-opacity: 1; stroke-width: 1px;"/><path class="xgrid crisp" transform="translate(184.95,0)" d="M0,60v846" style="stroke: rgb(255, 255, 255); stroke-opacity: 1; stroke-width: 1px;"/><path class="xgrid crisp" transform="translate(202.44,0)" d="M0,60v846" style="stroke: rgb(255, 255, 255); stroke-opacity: 1; stroke-width: 1px;"/><path class="xgrid crisp" transform="translate(219.93,0)" d="M0,60v846" style="stroke: rgb(255, 255, 255); stroke-opacity: 1; stroke-width: 1px;"/><path class="xgrid crisp" transform="translate(237.42,0)" d="M0,60v846" style="stroke: rgb(255, 255, 255); stroke-opacity: 1; stroke-width: 1px;"/><path class="xgrid crisp" transform="translate(254.91,0)" d="M0,60v846" style="stroke: rgb(255, 255, 255); stroke-opacity: 1; stroke-width: 1px;"/><path class="xgrid crisp" transform="translate(272.4,0)" d="M0,60v846" style="stroke: rgb(255, 255, 255); stroke-opacity: 1; stroke-width: 1px;"/><path class="xgrid crisp" transform="translate(289.89,0)" d="M0,60v846" style="stroke: rgb(255, 255, 255); stroke-opacity: 1; stroke-width: 1px;"/><path class="xgrid crisp" transform="translate(307.38,0)" d="M0,60v846" style="stroke: rgb(255, 255, 255); stroke-opacity: 1; stroke-width: 1px;"/><path class="xgrid crisp" transform="translate(324.87,0)" d="M0,60v846" style="stroke: rgb(255, 255, 255); stroke-opacity: 1; stroke-width: 1px;"/><path class="xgrid crisp" transform="translate(342.36,0)" d="M0,60v846" style="stroke: rgb(255, 255, 255); stroke-opacity: 1; stroke-width: 1px;"/><path class="xgrid crisp" transform="translate(359.85,0)" d="M0,60v846" style="stroke: rgb(255, 255, 255); stroke-opacity: 1; stroke-width: 1px;"/><path class="xgrid crisp" transform="translate(377.35,0)" d="M0,60v846" style="stroke: rgb(255, 255, 255); stroke-opacity: 1; stroke-width: 1px;"/><path class="xgrid crisp" transform="translate(394.84,0)" d="M0,60v846" style="stroke: rgb(255, 255, 255); stroke-opacity: 1; stroke-width: 1px;"/><path class="xgrid crisp" transform="translate(412.33,0)" d="M0,60v846" style="stroke: rgb(255, 255, 255); stroke-opacity: 1; stroke-width: 1px;"/><path class="xgrid crisp" transform="translate(429.82,0)" d="M0,60v846" style="stroke: rgb(255, 255, 255); stroke-opacity: 1; stroke-width: 1px;"/><path class="xgrid crisp" transform="translate(447.31,0)" d="M0,60v846" style="stroke: rgb(255, 255, 255); stroke-opacity: 1; stroke-width: 1px;"/><path class="xgrid crisp" transform="translate(464.8,0)" d="M0,60v846" style="stroke: rgb(255, 255, 255); stroke-opacity: 1; stroke-width: 1px;"/><path class="xgrid crisp" transform="translate(482.29,0)" d="M0,60v846" style="stroke: rgb(255, 255, 255); stroke-opacity: 1; stroke-width: 1px;"/><path class="xgrid crisp" transform="translate(499.78,0)" d="M0,60v846" style="stroke: rgb(255, 255, 255); stroke-opacity: 1; stroke-width: 1px;"/><path class="xgrid crisp" transform="translate(517.27,0)" d="M0,60v846" style="stroke: rgb(255, 255, 255); stroke-opacity: 1; stroke-width: 1px;"/><path class="xgrid crisp" transform="translate(534.76,0)" d="M0,60v846" style="stroke: rgb(255, 255, 255); stroke-opacity: 1; stroke-width: 1px;"/><path class="xgrid crisp" transform="translate(552.25,0)" d="M0,60v846" style="stroke: rgb(255, 255, 255); stroke-opacity: 1; stroke-width: 1px;"/><path class="xgrid crisp" transform="translate(569.75,0)" d="M0,60v846" style="stroke: rgb(255, 255, 255); stroke-opacity: 1; stroke-width: 1px;"/><path class="xgrid crisp" transform="translate(587.24,0)" d="M0,60v846" style="stroke: rgb(255, 255, 255); stroke-opacity: 1; stroke-width: 1px;"/><path class="xgrid crisp" transform="translate(604.73,0)" d="M0,60v846" style="stroke: rgb(255, 255, 255); stroke-opacity: 1; stroke-width: 1px;"/><path class="xgrid crisp" transform="translate(622.22,0)" d="M0,60v846" style="stroke: rgb(255, 255, 255); stroke-opacity: 1; stroke-width: 1px;"/><path class="xgrid crisp" transform="translate(639.71,0)" d="M0,60v846" style="stroke: rgb(255, 255, 255); stroke-opacity: 1; stroke-width: 1px;"/><path class="xgrid crisp" transform="translate(657.2,0)" d="M0,60v846" style="stroke: rgb(255, 255, 255); stroke-opacity: 1; stroke-width: 1px;"/><path class="xgrid crisp" transform="translate(674.69,0)" d="M0,60v846" style="stroke: rgb(255, 255, 255); stroke-opacity: 1; stroke-width: 1px;"/><path class="xgrid crisp" transform="translate(692.18,0)" d="M0,60v846" style="stroke: rgb(255, 255, 255); stroke-opacity: 1; stroke-width: 1px;"/><path class="xgrid crisp" transform="translate(709.67,0)" d="M0,60v846" style="stroke: rgb(255, 255, 255); stroke-opacity: 1; stroke-width: 1px;"/><path class="xgrid crisp" transform="translate(727.16,0)" d="M0,60v846" style="stroke: rgb(255, 255, 255); stroke-opacity: 1; stroke-width: 1px;"/><path class="xgrid crisp" transform="translate(744.65,0)" d="M0,60v846" style="stroke: rgb(255, 255, 255); stroke-opacity: 1; stroke-width: 1px;"/><path class="xgrid crisp" transform="translate(762.15,0)" d="M0,60v846" style="stroke: rgb(255, 255, 255); stroke-opacity: 1; stroke-width: 1px;"/><path class="xgrid crisp" transform="translate(779.64,0)" d="M0,60v846" style="stroke: rgb(255, 255, 255); stroke-opacity: 1; stroke-width: 1px;"/><path class="xgrid crisp" transform="translate(797.13,0)" d="M0,60v846" style="stroke: rgb(255, 255, 255); stroke-opacity: 1; stroke-width: 1px;"/><path class="xgrid crisp" transform="translate(814.62,0)" d="M0,60v846" style="stroke: rgb(255, 255, 255); stroke-opacity: 1; stroke-width: 1px;"/><path class="xgrid crisp" transform="translate(832.11,0)" d="M0,60v846" style="stroke: rgb(255, 255, 255); stroke-opacity: 1; stroke-width: 1px;"/><path class="xgrid crisp" transform="translate(849.6,0)" d="M0,60v846" style="stroke: rgb(255, 255, 255); stroke-opacity: 1; stroke-width: 1px;"/><path class="xgrid crisp" transform="translate(867.09,0)" d="M0,60v846" style="stroke: rgb(255, 255, 255); stroke-opacity: 1; stroke-width: 1px;"/><path class="xgrid crisp" transform="translate(884.58,0)" d="M0,60v846" style="stroke: rgb(255, 255, 255); stroke-opacity: 1; stroke-width: 1px;"/><path class="xgrid crisp" transform="translate(902.07,0)" d="M0,60v846" style="stroke: rgb(255, 255, 255); stroke-opacity: 1; stroke-width: 1px;"/><path class="xgrid crisp" transform="translate(919.56,0)" d="M0,60v846" style="stroke: rgb(255, 255, 255); stroke-opacity: 1; stroke-width: 1px;"/><path class="xgrid crisp" transform="translate(937.05,0)" d="M0,60v846" style="stroke: rgb(255, 255, 255); stroke-opacity: 1; stroke-width: 1px;"/><path class="xgrid crisp" transform="translate(954.55,0)" d="M0,60v846" style="stroke: rgb(255, 255, 255); stroke-opacity: 1; stroke-width: 1px;"/><path class="xgrid crisp" transform="translate(972.04,0)" d="M0,60v846" style="stroke: rgb(255, 255, 255); stroke-opacity: 1; stroke-width: 1px;"/><path class="xgrid crisp" transform="translate(989.53,0)" d="M0,60v846" style="stroke: rgb(255, 255, 255); stroke-opacity: 1; stroke-width: 1px;"/><path class="xgrid crisp" transform="translate(1007.02,0)" d="M0,60v846" style="stroke: rgb(255, 255, 255); stroke-opacity: 1; stroke-width: 1px;"/><path class="xgrid crisp" transform="translate(1024.51,0)" d="M0,60v846" style="stroke: rgb(255, 255, 255); stroke-opacity: 1; stroke-width: 1px;"/></g><g class="y"><path class="ygrid crisp" transform="translate(0,742.57)" d="M80,0h962" style="stroke: rgb(255, 255, 255); stroke-opacity: 1; stroke-width: 1px;"/><path class="ygrid crisp" transform="translate(0,618.96)" d="M80,0h962" style="stroke: rgb(255, 255, 255); stroke-opacity: 1; stroke-width: 1px;"/><path class="ygrid crisp" transform="translate(0,495.36)" d="M80,0h962" style="stroke: rgb(255, 255, 255); stroke-opacity: 1; stroke-width: 1px;"/><path class="ygrid crisp" transform="translate(0,371.76)" d="M80,0h962" style="stroke: rgb(255, 255, 255); stroke-opacity: 1; stroke-width: 1px;"/><path class="ygrid crisp" transform="translate(0,248.15)" d="M80,0h962" style="stroke: rgb(255, 255, 255); stroke-opacity: 1; stroke-width: 1px;"/><path class="ygrid crisp" transform="translate(0,124.55)" d="M80,0h962" style="stroke: rgb(255, 255, 255); stroke-opacity: 1; stroke-width: 1px;"/></g></g><g class="zerolinelayer"><path class="yzl zl crisp" transform="translate(0,866.17)" d="M80,0h962" style="stroke: rgb(255, 255, 255); stroke-opacity: 1; stroke-width: 2px;"/></g><path class="xlines-below"/><path class="ylines-below"/><g class="overlines-below"/><g class="xaxislayer-below"/><g class="yaxislayer-below"/><g class="overaxes-below"/><g class="plot" transform="translate(80,60)" clip-path="url('#clip9711e0xyplot')"><g class="scatterlayer mlayer"><g class="trace scatter trace338e37" style="stroke-miterlimit: 2; opacity: 1;"><g class="fills"/><g class="errorbars"/><g class="lines"><path class="js-line" d="M0,249.95L17.49,222.76L34.98,198.04L52.47,207.93L69.96,128.82L87.45,160.96L104.95,170.85L122.44,146.13L139.93,151.07L157.42,151.07L174.91,101.63L192.4,89.27L209.89,81.85L227.38,143.66L244.87,165.9L262.36,227.71L279.85,180.74L297.35,237.59L314.84,247.48L332.33,242.54L349.82,195.57L367.31,198.04L384.8,168.38L402.29,148.6L419.78,121.41L437.27,52.19L454.76,67.02L472.25,42.3L489.75,111.52L507.24,106.57L524.73,170.85L542.22,89.27L559.71,86.8L577.2,121.41L594.69,109.05L612.18,128.82L629.67,175.79L647.16,156.02L664.65,183.21L682.15,185.68L699.64,183.21L717.13,153.54L734.62,232.65L752.11,235.12L769.6,230.18L804.58,398.28L822.07,383.45L839.56,390.86L857.05,452.66L874.55,499.63L892.04,536.72L909.53,519.41L927.02,516.94L944.51,526.83L962,526.83" style="vector-effect: non-scaling-stroke; fill: none; stroke: rgb(99, 110, 250); stroke-opacity: 1; stroke-width: 2px; opacity: 1;"/></g><g class="points"/><g class="text"/></g><g class="trace scatter trace6d711b" style="stroke-miterlimit: 2; opacity: 1;"><g class="fills"/><g class="errorbars"/><g class="lines"><path class="js-line" d="M69.96,803.7L227.38,803.7L244.87,801.23L297.35,798.76L314.84,798.76L332.33,793.81L349.82,791.34L384.8,771.56L402.29,764.15L419.78,759.2L437.27,764.15L454.76,736.95L472.25,761.67L489.75,774.04L507.24,781.45L524.73,776.51L542.22,769.09L559.71,754.26L577.2,754.26L594.69,746.84L612.18,704.82L629.67,655.38L647.16,623.24L664.65,638.07L682.15,628.18L699.64,643.01L717.13,650.43L734.62,618.29L752.11,655.38L769.6,714.71L787.09,536.72L804.58,390.86L822.07,383.45L839.56,410.64L857.05,306.81L874.55,296.92L892.04,245.01L909.53,262.31L927.02,242.54L944.51,247.48L962,277.15" style="vector-effect: non-scaling-stroke; fill: none; stroke: rgb(239, 85, 59); stroke-opacity: 1; stroke-width: 2px; opacity: 1;"/></g><g class="points"/><g class="text"/></g></g></g><g class="overplot"/><path class="xlines-above crisp" d="M0,0" style="fill: none;"/><path class="ylines-above crisp" d="M0,0" style="fill: none;"/><g class="overlines-above"/><g class="xaxislayer-above"><g class="xtick"><text text-anchor="start" x="0" y="919" transform="translate(80,0) rotate(90,0,913)" style="font-family: 'Open Sans', verdana, arial, sans-serif; font-size: 12px; fill: rgb(42, 63, 95); fill-opacity: 1; white-space: pre;">1993.06</text></g><g class="xtick"><text text-anchor="start" x="0" y="919" transform="translate(97.49,0) rotate(90,0,913)" style="font-family: 'Open Sans', verdana, arial, sans-serif; font-size: 12px; fill: rgb(42, 63, 95); fill-opacity: 1; white-space: pre;">1993.11</text></g><g class="xtick"><text text-anchor="start" x="0" y="919" transform="translate(114.97999999999999,0) rotate(90,0,913)" style="font-family: 'Open Sans', verdana, arial, sans-serif; font-size: 12px; fill: rgb(42, 63, 95); fill-opacity: 1; white-space: pre;">1994.06</text></g><g class="xtick"><text text-anchor="start" x="0" y="919" transform="translate(132.47,0) rotate(90,0,913)" style="font-family: 'Open Sans', verdana, arial, sans-serif; font-size: 12px; fill: rgb(42, 63, 95); fill-opacity: 1; white-space: pre;">1994.11</text></g><g class="xtick"><text text-anchor="start" x="0" y="919" transform="translate(149.95999999999998,0) rotate(90,0,913)" style="font-family: 'Open Sans', verdana, arial, sans-serif; font-size: 12px; fill: rgb(42, 63, 95); fill-opacity: 1; white-space: pre;">1995.06</text></g><g class="xtick"><text text-anchor="start" x="0" y="919" transform="translate(167.45,0) rotate(90,0,913)" style="font-family: 'Open Sans', verdana, arial, sans-serif; font-size: 12px; fill: rgb(42, 63, 95); fill-opacity: 1; white-space: pre;">1995.11</text></g><g class="xtick"><text text-anchor="start" x="0" y="919" transform="translate(184.95,0) rotate(90,0,913)" style="font-family: 'Open Sans', verdana, arial, sans-serif; font-size: 12px; fill: rgb(42, 63, 95); fill-opacity: 1; white-space: pre;">1996.06</text></g><g class="xtick"><text text-anchor="start" x="0" y="919" transform="translate(202.44,0) rotate(90,0,913)" style="font-family: 'Open Sans', verdana, arial, sans-serif; font-size: 12px; fill: rgb(42, 63, 95); fill-opacity: 1; white-space: pre;">1996.11</text></g><g class="xtick"><text text-anchor="start" x="0" y="919" transform="translate(219.93,0) rotate(90,0,913)" style="font-family: 'Open Sans', verdana, arial, sans-serif; font-size: 12px; fill: rgb(42, 63, 95); fill-opacity: 1; white-space: pre;">1997.06</text></g><g class="xtick"><text text-anchor="start" x="0" y="919" transform="translate(237.42,0) rotate(90,0,913)" style="font-family: 'Open Sans', verdana, arial, sans-serif; font-size: 12px; fill: rgb(42, 63, 95); fill-opacity: 1; white-space: pre;">1997.11</text></g><g class="xtick"><text text-anchor="start" x="0" y="919" transform="translate(254.91,0) rotate(90,0,913)" style="font-family: 'Open Sans', verdana, arial, sans-serif; font-size: 12px; fill: rgb(42, 63, 95); fill-opacity: 1; white-space: pre;">1998.06</text></g><g class="xtick"><text text-anchor="start" x="0" y="919" transform="translate(272.4,0) rotate(90,0,913)" style="font-family: 'Open Sans', verdana, arial, sans-serif; font-size: 12px; fill: rgb(42, 63, 95); fill-opacity: 1; white-space: pre;">1998.11</text></g><g class="xtick"><text text-anchor="start" x="0" y="919" transform="translate(289.89,0) rotate(90,0,913)" style="font-family: 'Open Sans', verdana, arial, sans-serif; font-size: 12px; fill: rgb(42, 63, 95); fill-opacity: 1; white-space: pre;">1999.06</text></g><g class="xtick"><text text-anchor="start" x="0" y="919" transform="translate(307.38,0) rotate(90,0,913)" style="font-family: 'Open Sans', verdana, arial, sans-serif; font-size: 12px; fill: rgb(42, 63, 95); fill-opacity: 1; white-space: pre;">1999.11</text></g><g class="xtick"><text text-anchor="start" x="0" y="919" transform="translate(324.87,0) rotate(90,0,913)" style="font-family: 'Open Sans', verdana, arial, sans-serif; font-size: 12px; fill: rgb(42, 63, 95); fill-opacity: 1; white-space: pre;">2000.06</text></g><g class="xtick"><text text-anchor="start" x="0" y="919" transform="translate(342.36,0) rotate(90,0,913)" style="font-family: 'Open Sans', verdana, arial, sans-serif; font-size: 12px; fill: rgb(42, 63, 95); fill-opacity: 1; white-space: pre;">2000.11</text></g><g class="xtick"><text text-anchor="start" x="0" y="919" transform="translate(359.85,0) rotate(90,0,913)" style="font-family: 'Open Sans', verdana, arial, sans-serif; font-size: 12px; fill: rgb(42, 63, 95); fill-opacity: 1; white-space: pre;">2001.06</text></g><g class="xtick"><text text-anchor="start" x="0" y="919" transform="translate(377.35,0) rotate(90,0,913)" style="font-family: 'Open Sans', verdana, arial, sans-serif; font-size: 12px; fill: rgb(42, 63, 95); fill-opacity: 1; white-space: pre;">2001.11</text></g><g class="xtick"><text text-anchor="start" x="0" y="919" transform="translate(394.84,0) rotate(90,0,913)" style="font-family: 'Open Sans', verdana, arial, sans-serif; font-size: 12px; fill: rgb(42, 63, 95); fill-opacity: 1; white-space: pre;">2002.06</text></g><g class="xtick"><text text-anchor="start" x="0" y="919" transform="translate(412.33,0) rotate(90,0,913)" style="font-family: 'Open Sans', verdana, arial, sans-serif; font-size: 12px; fill: rgb(42, 63, 95); fill-opacity: 1; white-space: pre;">2002.11</text></g><g class="xtick"><text text-anchor="start" x="0" y="919" transform="translate(429.82,0) rotate(90,0,913)" style="font-family: 'Open Sans', verdana, arial, sans-serif; font-size: 12px; fill: rgb(42, 63, 95); fill-opacity: 1; white-space: pre;">2003.06</text></g><g class="xtick"><text text-anchor="start" x="0" y="919" transform="translate(447.31,0) rotate(90,0,913)" style="font-family: 'Open Sans', verdana, arial, sans-serif; font-size: 12px; fill: rgb(42, 63, 95); fill-opacity: 1; white-space: pre;">2003.11</text></g><g class="xtick"><text text-anchor="start" x="0" y="919" transform="translate(464.8,0) rotate(90,0,913)" style="font-family: 'Open Sans', verdana, arial, sans-serif; font-size: 12px; fill: rgb(42, 63, 95); fill-opacity: 1; white-space: pre;">2004.06</text></g><g class="xtick"><text text-anchor="start" x="0" y="919" transform="translate(482.29,0) rotate(90,0,913)" style="font-family: 'Open Sans', verdana, arial, sans-serif; font-size: 12px; fill: rgb(42, 63, 95); fill-opacity: 1; white-space: pre;">2004.11</text></g><g class="xtick"><text text-anchor="start" x="0" y="919" transform="translate(499.78,0) rotate(90,0,913)" style="font-family: 'Open Sans', verdana, arial, sans-serif; font-size: 12px; fill: rgb(42, 63, 95); fill-opacity: 1; white-space: pre;">2005.06</text></g><g class="xtick"><text text-anchor="start" x="0" y="919" transform="translate(517.27,0) rotate(90,0,913)" style="font-family: 'Open Sans', verdana, arial, sans-serif; font-size: 12px; fill: rgb(42, 63, 95); fill-opacity: 1; white-space: pre;">2005.11</text></g><g class="xtick"><text text-anchor="start" x="0" y="919" transform="translate(534.76,0) rotate(90,0,913)" style="font-family: 'Open Sans', verdana, arial, sans-serif; font-size: 12px; fill: rgb(42, 63, 95); fill-opacity: 1; white-space: pre;">2006.06</text></g><g class="xtick"><text text-anchor="start" x="0" y="919" transform="translate(552.25,0) rotate(90,0,913)" style="font-family: 'Open Sans', verdana, arial, sans-serif; font-size: 12px; fill: rgb(42, 63, 95); fill-opacity: 1; white-space: pre;">2006.11</text></g><g class="xtick"><text text-anchor="start" x="0" y="919" transform="translate(569.75,0) rotate(90,0,913)" style="font-family: 'Open Sans', verdana, arial, sans-serif; font-size: 12px; fill: rgb(42, 63, 95); fill-opacity: 1; white-space: pre;">2007.06</text></g><g class="xtick"><text text-anchor="start" x="0" y="919" transform="translate(587.24,0) rotate(90,0,913)" style="font-family: 'Open Sans', verdana, arial, sans-serif; font-size: 12px; fill: rgb(42, 63, 95); fill-opacity: 1; white-space: pre;">2007.11</text></g><g class="xtick"><text text-anchor="start" x="0" y="919" transform="translate(604.73,0) rotate(90,0,913)" style="font-family: 'Open Sans', verdana, arial, sans-serif; font-size: 12px; fill: rgb(42, 63, 95); fill-opacity: 1; white-space: pre;">2008.06</text></g><g class="xtick"><text text-anchor="start" x="0" y="919" transform="translate(622.22,0) rotate(90,0,913)" style="font-family: 'Open Sans', verdana, arial, sans-serif; font-size: 12px; fill: rgb(42, 63, 95); fill-opacity: 1; white-space: pre;">2008.11</text></g><g class="xtick"><text text-anchor="start" x="0" y="919" transform="translate(639.71,0) rotate(90,0,913)" style="font-family: 'Open Sans', verdana, arial, sans-serif; font-size: 12px; fill: rgb(42, 63, 95); fill-opacity: 1; white-space: pre;">2009.06</text></g><g class="xtick"><text text-anchor="start" x="0" y="919" transform="translate(657.2,0) rotate(90,0,913)" style="font-family: 'Open Sans', verdana, arial, sans-serif; font-size: 12px; fill: rgb(42, 63, 95); fill-opacity: 1; white-space: pre;">2009.11</text></g><g class="xtick"><text text-anchor="start" x="0" y="919" transform="translate(674.69,0) rotate(90,0,913)" style="font-family: 'Open Sans', verdana, arial, sans-serif; font-size: 12px; fill: rgb(42, 63, 95); fill-opacity: 1; white-space: pre;">2010.06</text></g><g class="xtick"><text text-anchor="start" x="0" y="919" transform="translate(692.18,0) rotate(90,0,913)" style="font-family: 'Open Sans', verdana, arial, sans-serif; font-size: 12px; fill: rgb(42, 63, 95); fill-opacity: 1; white-space: pre;">2010.11</text></g><g class="xtick"><text text-anchor="start" x="0" y="919" transform="translate(709.67,0) rotate(90,0,913)" style="font-family: 'Open Sans', verdana, arial, sans-serif; font-size: 12px; fill: rgb(42, 63, 95); fill-opacity: 1; white-space: pre;">2011.06</text></g><g class="xtick"><text text-anchor="start" x="0" y="919" transform="translate(727.16,0) rotate(90,0,913)" style="font-family: 'Open Sans', verdana, arial, sans-serif; font-size: 12px; fill: rgb(42, 63, 95); fill-opacity: 1; white-space: pre;">2011.11</text></g><g class="xtick"><text text-anchor="start" x="0" y="919" transform="translate(744.65,0) rotate(90,0,913)" style="font-family: 'Open Sans', verdana, arial, sans-serif; font-size: 12px; fill: rgb(42, 63, 95); fill-opacity: 1; white-space: pre;">2012.06</text></g><g class="xtick"><text text-anchor="start" x="0" y="919" transform="translate(762.15,0) rotate(90,0,913)" style="font-family: 'Open Sans', verdana, arial, sans-serif; font-size: 12px; fill: rgb(42, 63, 95); fill-opacity: 1; white-space: pre;">2012.11</text></g><g class="xtick"><text text-anchor="start" x="0" y="919" transform="translate(779.64,0) rotate(90,0,913)" style="font-family: 'Open Sans', verdana, arial, sans-serif; font-size: 12px; fill: rgb(42, 63, 95); fill-opacity: 1; white-space: pre;">2013.06</text></g><g class="xtick"><text text-anchor="start" x="0" y="919" transform="translate(797.13,0) rotate(90,0,913)" style="font-family: 'Open Sans', verdana, arial, sans-serif; font-size: 12px; fill: rgb(42, 63, 95); fill-opacity: 1; white-space: pre;">2013.11</text></g><g class="xtick"><text text-anchor="start" x="0" y="919" transform="translate(814.62,0) rotate(90,0,913)" style="font-family: 'Open Sans', verdana, arial, sans-serif; font-size: 12px; fill: rgb(42, 63, 95); fill-opacity: 1; white-space: pre;">2014.06</text></g><g class="xtick"><text text-anchor="start" x="0" y="919" transform="translate(832.11,0) rotate(90,0,913)" style="font-family: 'Open Sans', verdana, arial, sans-serif; font-size: 12px; fill: rgb(42, 63, 95); fill-opacity: 1; white-space: pre;">2014.11</text></g><g class="xtick"><text text-anchor="start" x="0" y="919" transform="translate(849.6,0) rotate(90,0,913)" style="font-family: 'Open Sans', verdana, arial, sans-serif; font-size: 12px; fill: rgb(42, 63, 95); fill-opacity: 1; white-space: pre;">2015.06</text></g><g class="xtick"><text text-anchor="start" x="0" y="919" transform="translate(867.09,0) rotate(90,0,913)" style="font-family: 'Open Sans', verdana, arial, sans-serif; font-size: 12px; fill: rgb(42, 63, 95); fill-opacity: 1; white-space: pre;">2015.11</text></g><g class="xtick"><text text-anchor="start" x="0" y="919" transform="translate(884.58,0) rotate(90,0,913)" style="font-family: 'Open Sans', verdana, arial, sans-serif; font-size: 12px; fill: rgb(42, 63, 95); fill-opacity: 1; white-space: pre;">2016.06</text></g><g class="xtick"><text text-anchor="start" x="0" y="919" transform="translate(902.07,0) rotate(90,0,913)" style="font-family: 'Open Sans', verdana, arial, sans-serif; font-size: 12px; fill: rgb(42, 63, 95); fill-opacity: 1; white-space: pre;">2016.11</text></g><g class="xtick"><text text-anchor="start" x="0" y="919" transform="translate(919.56,0) rotate(90,0,913)" style="font-family: 'Open Sans', verdana, arial, sans-serif; font-size: 12px; fill: rgb(42, 63, 95); fill-opacity: 1; white-space: pre;">2017.06</text></g><g class="xtick"><text text-anchor="start" x="0" y="919" transform="translate(937.05,0) rotate(90,0,913)" style="font-family: 'Open Sans', verdana, arial, sans-serif; font-size: 12px; fill: rgb(42, 63, 95); fill-opacity: 1; white-space: pre;">2017.11</text></g><g class="xtick"><text text-anchor="start" x="0" y="919" transform="translate(954.55,0) rotate(90,0,913)" style="font-family: 'Open Sans', verdana, arial, sans-serif; font-size: 12px; fill: rgb(42, 63, 95); fill-opacity: 1; white-space: pre;">2018.06</text></g><g class="xtick"><text text-anchor="start" x="0" y="919" transform="translate(972.04,0) rotate(90,0,913)" style="font-family: 'Open Sans', verdana, arial, sans-serif; font-size: 12px; fill: rgb(42, 63, 95); fill-opacity: 1; white-space: pre;">2018.11</text></g><g class="xtick"><text text-anchor="start" x="0" y="919" transform="translate(989.53,0) rotate(90,0,913)" style="font-family: 'Open Sans', verdana, arial, sans-serif; font-size: 12px; fill: rgb(42, 63, 95); fill-opacity: 1; white-space: pre;">2019.06</text></g><g class="xtick"><text text-anchor="start" x="0" y="919" transform="translate(1007.02,0) rotate(90,0,913)" style="font-family: 'Open Sans', verdana, arial, sans-serif; font-size: 12px; fill: rgb(42, 63, 95); fill-opacity: 1; white-space: pre;">2019.11</text></g><g class="xtick"><text text-anchor="start" x="0" y="919" transform="translate(1024.51,0) rotate(90,0,913)" style="font-family: 'Open Sans', verdana, arial, sans-serif; font-size: 12px; fill: rgb(42, 63, 95); fill-opacity: 1; white-space: pre;">2020.06</text></g><g class="xtick"><text text-anchor="start" x="0" y="919" transform="translate(1042,0) rotate(90,0,913)" style="font-family: 'Open Sans', verdana, arial, sans-serif; font-size: 12px; fill: rgb(42, 63, 95); fill-opacity: 1; white-space: pre;">2020.11</text></g></g><g class="yaxislayer-above"><g class="ytick"><text text-anchor="end" x="79" y="4.199999999999999" transform="translate(0,866.17)" style="font-family: 'Open Sans', verdana, arial, sans-serif; font-size: 12px; fill: rgb(42, 63, 95); fill-opacity: 1; white-space: pre;">0</text></g><g class="ytick"><text text-anchor="end" x="79" y="4.199999999999999" transform="translate(0,742.57)" style="font-family: 'Open Sans', verdana, arial, sans-serif; font-size: 12px; fill: rgb(42, 63, 95); fill-opacity: 1; white-space: pre;">50</text></g><g class="ytick"><text text-anchor="end" x="79" y="4.199999999999999" transform="translate(0,618.96)" style="font-family: 'Open Sans', verdana, arial, sans-serif; font-size: 12px; fill: rgb(42, 63, 95); fill-opacity: 1; white-space: pre;">100</text></g><g class="ytick"><text text-anchor="end" x="79" y="4.199999999999999" transform="translate(0,495.36)" style="font-family: 'Open Sans', verdana, arial, sans-serif; font-size: 12px; fill: rgb(42, 63, 95); fill-opacity: 1; white-space: pre;">150</text></g><g class="ytick"><text text-anchor="end" x="79" y="4.199999999999999" transform="translate(0,371.76)" style="font-family: 'Open Sans', verdana, arial, sans-serif; font-size: 12px; fill: rgb(42, 63, 95); fill-opacity: 1; white-space: pre;">200</text></g><g class="ytick"><text text-anchor="end" x="79" y="4.199999999999999" transform="translate(0,248.15)" style="font-family: 'Open Sans', verdana, arial, sans-serif; font-size: 12px; fill: rgb(42, 63, 95); fill-opacity: 1; white-space: pre;">250</text></g><g class="ytick"><text text-anchor="end" x="79" y="4.199999999999999" transform="translate(0,124.55)" style="font-family: 'Open Sans', verdana, arial, sans-serif; font-size: 12px; fill: rgb(42, 63, 95); fill-opacity: 1; white-space: pre;">300</text></g></g><g class="overaxes-above"/></g></g><g class="polarlayer"/><g class="ternarylayer"/><g class="geolayer"/><g class="funnelarealayer"/><g class="pielayer"/><g class="treemaplayer"/><g class="sunburstlayer"/><g class="glimages"/><defs id="topdefs-9711e0"><g class="clips"/><clipPath id="legend9711e0"><rect width="127" height="64" x="0" y="0"/></clipPath></defs><g class="layer-above"><g class="imagelayer"/><g class="shapelayer"/></g><g class="infolayer"><g class="legend" pointer-events="all" transform="translate(1061.24,60)"><rect class="bg" shape-rendering="crispEdges" width="127" height="64" x="0" y="0" style="stroke: rgb(68, 68, 68); stroke-opacity: 1; fill: rgb(255, 255, 255); fill-opacity: 1; stroke-width: 0px;"/><g class="scrollbox" transform="" clip-path="url('#legend9711e0')"><text class="legendtitletext" text-anchor="start" x="2" y="15.600000000000001" style="font-family: 'Open Sans', verdana, arial, sans-serif; font-size: 12px; fill: rgb(42, 63, 95); fill-opacity: 1; white-space: pre;">Country</text><g class="groups" transform=""><g class="traces" transform="translate(0,30.1)" style="opacity: 1;"><text class="legendtext" text-anchor="start" x="40" y="4.680000000000001" style="font-family: 'Open Sans', verdana, arial, sans-serif; font-size: 12px; fill: rgb(42, 63, 95); fill-opacity: 1; white-space: pre;">United States</text><g class="layers" style="opacity: 1;"><g class="legendfill"/><g class="legendlines"><path class="js-line" d="M5,0h30" style="fill: none; stroke: rgb(99, 110, 250); stroke-opacity: 1; stroke-width: 2px;"/></g><g class="legendsymbols"><g class="legendpoints"/></g></g><rect class="legendtoggle" x="0" y="-9.5" width="121.515625" height="19" style="fill: rgb(0, 0, 0); fill-opacity: 0;"/></g></g><g class="groups" transform=""><g class="traces" transform="translate(0,49.1)" style="opacity: 1;"><text class="legendtext" text-anchor="start" x="40" y="4.680000000000001" style="font-family: 'Open Sans', verdana, arial, sans-serif; font-size: 12px; fill: rgb(42, 63, 95); fill-opacity: 1; white-space: pre;">China</text><g class="layers" style="opacity: 1;"><g class="legendfill"/><g class="legendlines"><path class="js-line" d="M5,0h30" style="fill: none; stroke: rgb(239, 85, 59); stroke-opacity: 1; stroke-width: 2px;"/></g><g class="legendsymbols"><g class="legendpoints"/></g></g><rect class="legendtoggle" x="0" y="-9.5" width="121.515625" height="19" style="fill: rgb(0, 0, 0); fill-opacity: 0;"/></g></g></g><rect class="scrollbar" rx="20" ry="3" width="0" height="0" x="0" y="0" style="fill: rgb(128, 139, 164); fill-opacity: 1;"/></g><g class="g-gtitle"/><g class="g-xtitle"><text class="xtitle" x="561" y="987.940625" text-anchor="middle" style="font-family: 'Open Sans', verdana, arial, sans-serif; font-size: 14px; fill: rgb(42, 63, 95); opacity: 1; font-weight: normal; white-space: pre;">List</text></g><g class="g-ytitle"><text class="ytitle" transform="rotate(-90,31.309375000000003,483)" x="31.309375000000003" y="483" text-anchor="middle" style="font-family: 'Open Sans', verdana, arial, sans-serif; font-size: 14px; fill: rgb(42, 63, 95); opacity: 1; font-weight: normal; white-space: pre;">Occurrences</text></g></g></svg>